<svg width="1739" height="503" viewBox="0 0 1739 503" fill="none" xmlns="http://www.w3.org/2000/svg">
<path fill-rule="evenodd" clip-rule="evenodd" d="M317.537 334.052L240.181 185.424L177.601 334.052H317.537ZM0 486.158V496.298L94.7397 499.195L131.824 417.203L363.604 418.072L398.95 501.803L491.951 495.429L243.948 13.3281L0 486.158Z" fill="#435F74"/>
<path fill-rule="evenodd" clip-rule="evenodd" d="M562.354 457.761C660.86 543.809 789.787 489.631 826.582 397.209C850.049 338.395 842.517 76.4845 837.881 1.15625L796.74 2.60487H756.758V3.76375C755.889 32.7361 756.179 61.7085 756.758 90.3912V327.385C752.123 373.162 726.337 411.405 672.449 413.144C637.102 412.564 617.691 403.873 607.84 402.134C594.223 399.816 590.167 420.677 562.354 457.761Z" fill="#435F74"/>
<path fill-rule="evenodd" clip-rule="evenodd" d="M592.775 459.5C582.635 458.631 572.205 458.052 562.064 457.183C574.523 436.322 586.691 415.173 599.149 394.312C618.271 406.191 627.542 409.088 649.851 412.275C646.954 423.285 644.056 434.005 641.159 445.014C625.224 449.65 609 454.575 592.775 459.5Z" fill="#435F74"/>
<path fill-rule="evenodd" clip-rule="evenodd" d="M303.341 162.539L317.538 334.056L240.182 185.427L303.341 162.539Z" fill="#435F74"/>
<path fill-rule="evenodd" clip-rule="evenodd" d="M1486.86 0C1625.64 0 1738.34 112.413 1738.34 251.191C1738.34 389.968 1625.64 502.381 1486.86 502.381C1348.08 502.381 1235.67 389.968 1235.67 251.191C1235.67 112.413 1348.08 0 1486.86 0ZM1486.86 85.7583C1578.13 85.7583 1652.29 159.928 1652.29 251.191C1652.29 342.454 1578.42 416.623 1486.86 416.623C1395.6 416.623 1321.43 342.454 1321.43 251.191C1321.43 159.928 1395.6 85.7583 1486.86 85.7583Z" fill="#435F74"/>
<path d="M1091.39 1.15625H1013.46V502.668H1091.39V1.15625Z" fill="#435F74"/>
</svg>
