<svg width="4343" height="1439" viewBox="0 0 4343 1439" fill="none" xmlns="http://www.w3.org/2000/svg">
<path d="M1389.38 1013.94H1454.9V1197.9H1456.53C1459.8 1193.52 1463.99 1189.17 1469.06 1184.82C1474.69 1179.7 1480.93 1175.3 1487.63 1171.7C1495.59 1167.44 1504.02 1164.15 1512.75 1161.89C1522.21 1159.31 1533.13 1158.03 1545.49 1158.03C1564.04 1158.03 1581.14 1161.69 1596.81 1168.95C1612.44 1175.89 1625.72 1185.5 1636.65 1197.9C1647.93 1210.26 1656.66 1224.81 1662.84 1241.56C1669.13 1258.87 1672.28 1277.17 1672.13 1295.59C1672.13 1314.88 1669.22 1332.87 1663.4 1349.61C1657.58 1366.36 1649.01 1380.91 1637.76 1393.31C1626.26 1405.81 1612.33 1415.83 1596.81 1422.74C1580.78 1429.68 1562.79 1433.14 1542.75 1433.14C1524.88 1433.28 1507.2 1429.56 1490.91 1422.22C1474.82 1414.87 1461.46 1402.65 1452.7 1387.29H1451.59V1426.6H1389.38V1013.94ZM1606.62 1295.59C1606.62 1285.42 1604.82 1275.57 1601.16 1266.12C1597.94 1256.74 1592.73 1248.17 1585.89 1241C1579.34 1233.74 1571.33 1227.92 1561.88 1223.54C1552.39 1219.19 1541.67 1217 1529.66 1217C1519.05 1216.81 1508.51 1218.85 1498.73 1222.98C1488.95 1227.12 1480.15 1233.26 1472.88 1241C1466.34 1248.3 1461.24 1256.67 1457.61 1266.12C1454.34 1275.6 1452.7 1285.42 1452.7 1295.59C1452.7 1305.79 1454.34 1315.6 1457.61 1325.05C1461.24 1334.54 1466.34 1342.91 1472.88 1350.17C1480.15 1357.92 1488.95 1364.05 1498.73 1368.19C1508.51 1372.32 1519.05 1374.36 1529.66 1374.18C1541.67 1374.18 1552.39 1372.02 1561.88 1367.63C1571.33 1363.29 1579.34 1357.46 1585.89 1350.17C1592.73 1343 1597.94 1334.43 1601.16 1325.05C1604.82 1315.6 1606.62 1305.73 1606.62 1295.59ZM1907.88 1390.59H1906.25C1896.76 1405.47 1884.76 1416.43 1870.21 1423.3C1855.65 1429.84 1839.66 1433.14 1822.19 1433.14C1810.19 1433.15 1798.25 1431.5 1786.71 1428.24C1775.42 1424.97 1765.22 1420.06 1756.12 1413.52C1747.39 1406.95 1740.29 1398.77 1734.87 1388.93C1729.22 1378.36 1726.39 1366.53 1726.66 1354.55C1726.66 1340.36 1729.21 1328.36 1734.31 1318.51C1739.38 1308.34 1746.12 1299.97 1754.49 1293.4C1763.22 1286.49 1773.23 1281.03 1784.51 1277.04C1795.85 1273.03 1807.55 1270.1 1819.44 1268.31C1831.71 1266.14 1844.12 1264.86 1856.57 1264.48C1868.93 1263.77 1880.57 1263.37 1891.5 1263.37H1907.88V1256.28C1907.88 1239.92 1902.26 1227.72 1890.97 1219.71C1879.69 1211.34 1865.3 1207.15 1847.83 1207.15C1834 1207.15 1821.08 1209.7 1809.08 1214.81C1797.52 1219.25 1786.95 1225.91 1777.97 1234.43L1743.57 1200.09C1757.68 1185.45 1775.1 1174.4 1794.36 1167.88C1813.98 1161.33 1834.2 1158.06 1854.93 1158.06C1873.51 1158.06 1889.14 1160.22 1901.87 1164.61C1914.62 1168.6 1925.15 1173.86 1933.53 1180.43C1941.9 1186.97 1948.28 1194.63 1952.66 1203.33C1957.37 1211.73 1960.64 1220.27 1962.47 1229C1964.66 1237.73 1965.94 1246.3 1966.3 1254.67C1966.63 1262.65 1966.82 1269.75 1966.82 1275.93V1426.6H1907.88V1390.59ZM1904.06 1309.22H1890.45C1881.36 1309.22 1871.15 1309.62 1859.87 1310.34C1848.98 1311 1838.19 1312.83 1827.69 1315.8C1817.87 1318.35 1809.47 1322.34 1802.57 1327.8C1795.63 1332.9 1792.2 1340.16 1792.2 1349.61C1792.2 1355.83 1793.48 1361.06 1796.03 1365.44C1798.94 1369.47 1802.57 1372.93 1806.92 1375.84C1811.3 1378.75 1816.21 1380.91 1821.67 1382.38C1827.13 1383.46 1832.59 1384.02 1838.02 1384.02C1860.59 1384.02 1877.17 1378.75 1887.74 1368.19C1898.63 1357.27 1904.09 1342.52 1904.09 1323.97V1309.26L1904.06 1309.22ZM2029.68 1366L2169.96 1218.08V1217H2036.19V1164.61H2249.11V1224.09L2107.17 1374.21H2255.65V1426.6H2029.65L2029.68 1366ZM2486.24 1390.59H2484.6C2475.12 1405.47 2463.15 1416.43 2448.59 1423.3C2434.04 1429.84 2418.01 1433.14 2400.51 1433.14C2388.53 1433.14 2376.6 1431.49 2365.06 1428.24C2353.78 1424.97 2343.6 1420.06 2334.48 1413.52C2325.75 1406.95 2318.65 1398.77 2313.22 1388.93C2307.58 1378.36 2304.77 1366.52 2305.04 1354.55C2305.04 1340.36 2307.56 1328.36 2312.66 1318.51C2317.76 1308.34 2324.47 1299.97 2332.84 1293.4C2341.58 1286.49 2351.58 1281.03 2362.87 1277.04C2374.21 1273.03 2385.9 1270.1 2397.8 1268.31C2410.06 1266.14 2422.47 1264.86 2434.92 1264.48C2447.32 1263.77 2458.96 1263.37 2469.88 1263.37H2486.24V1256.28C2486.24 1239.92 2480.61 1227.72 2469.33 1219.71C2458.04 1211.34 2443.65 1207.15 2426.19 1207.15C2412.35 1207.15 2399.43 1209.7 2387.43 1214.81C2375.88 1219.25 2365.31 1225.92 2356.33 1234.43L2321.95 1200.09C2336.05 1185.45 2353.46 1174.4 2372.71 1167.88C2392.34 1161.33 2412.55 1158.06 2433.29 1158.06C2451.86 1158.06 2467.5 1160.22 2480.25 1164.61C2492.98 1168.6 2503.54 1173.86 2511.91 1180.43C2520.25 1186.97 2526.63 1194.63 2531.01 1203.33C2535.72 1211.73 2538.99 1220.27 2540.83 1229C2543.02 1237.73 2544.29 1246.3 2544.65 1254.67C2545.01 1262.65 2545.21 1269.75 2545.21 1275.93V1426.6H2486.24V1390.59ZM2482.41 1309.22H2468.77C2459.68 1309.22 2449.48 1309.62 2438.22 1310.34C2427.32 1311 2416.52 1312.83 2406.01 1315.8C2396.2 1318.35 2387.82 1322.34 2380.89 1327.8C2373.99 1332.9 2370.52 1340.16 2370.52 1349.61C2370.52 1355.83 2371.8 1361.06 2374.35 1365.44C2377.26 1369.47 2380.89 1372.93 2385.27 1375.84C2389.62 1378.75 2394.53 1380.91 2399.99 1382.38C2405.45 1383.46 2410.91 1384.02 2416.34 1384.02C2438.91 1384.02 2455.49 1378.75 2466.06 1368.19C2476.95 1357.27 2482.41 1342.52 2482.41 1323.97V1309.22ZM2790.35 1390.59H2788.71C2779.22 1405.47 2767.25 1416.43 2752.67 1423.3C2738.11 1429.84 2722.12 1433.14 2704.65 1433.14C2692.66 1433.15 2680.71 1431.5 2669.17 1428.24C2657.88 1424.97 2647.71 1420.06 2638.59 1413.52C2629.85 1406.95 2622.76 1398.77 2617.33 1388.93C2611.69 1378.36 2608.88 1366.52 2609.15 1354.55C2609.15 1340.36 2611.67 1328.36 2616.77 1318.51C2621.87 1308.34 2628.58 1299.97 2636.95 1293.4C2645.68 1286.49 2655.69 1281.03 2666.98 1277.04C2678.26 1273.02 2689.9 1270.11 2701.91 1268.31C2714.17 1266.14 2726.58 1264.86 2739.03 1264.48C2750.66 1263.77 2762.31 1263.4 2773.96 1263.37H2790.35V1256.28C2790.35 1239.92 2784.72 1227.72 2773.44 1219.71C2762.15 1211.34 2747.76 1207.15 2730.3 1207.15C2716.49 1207.15 2703.57 1209.7 2691.54 1214.81C2679.98 1219.25 2669.42 1225.91 2660.43 1234.43L2626.03 1200.09C2640.14 1185.45 2657.56 1174.4 2676.82 1167.88C2696.44 1161.33 2716.66 1158.06 2737.39 1158.06C2755.97 1158.06 2771.6 1160.22 2784.36 1164.61C2797.08 1168.6 2807.65 1173.86 2816.02 1180.43C2824.36 1186.97 2830.74 1194.63 2835.12 1203.33C2839.83 1211.73 2843.1 1220.27 2844.93 1229C2847.12 1237.73 2848.4 1246.3 2848.76 1254.67C2849.12 1262.65 2849.32 1269.75 2849.32 1275.93V1426.6H2790.35V1390.59ZM2786.52 1309.22H2772.88C2763.79 1309.22 2753.58 1309.62 2742.3 1310.34C2731.41 1311 2720.62 1312.83 2710.12 1315.8C2700.3 1318.35 2691.9 1322.34 2685 1327.8C2678.1 1332.9 2674.63 1340.16 2674.63 1349.61C2674.63 1355.83 2675.9 1361.06 2678.46 1365.44C2681.37 1369.47 2685 1372.93 2689.38 1375.84C2693.73 1378.75 2698.64 1380.91 2704.1 1382.38C2709.56 1383.46 2715.02 1384.02 2720.45 1384.02C2743.02 1384.02 2759.6 1378.75 2770.16 1368.19C2781.06 1357.27 2786.52 1342.52 2786.52 1323.97V1309.22ZM2930.69 1164.61H2996.2V1206.07H2997.28C3004.57 1190.8 3014.94 1178.96 3028.42 1170.59C3042.37 1162.08 3058.46 1157.73 3074.8 1158.03C3078.82 1158.03 3082.65 1158.39 3086.24 1159.14C3090.27 1159.86 3094.26 1160.78 3098.28 1161.86V1225.17C3092.9 1223.74 3087.44 1222.64 3081.93 1221.9C3076.9 1220.82 3071.76 1220.27 3066.62 1220.27C3051.35 1220.27 3038.95 1223.18 3029.5 1229C3021.14 1233.8 3013.9 1240.31 3008.24 1248.1C3003.76 1254.78 3000.44 1262.17 2998.39 1269.95C2996.92 1277.21 2996.2 1282.7 2996.2 1286.3V1426.6H2930.69V1164.61ZM55.209 358.503C55.209 331.097 77.4169 308.891 104.825 308.891H1032.03C1059.44 308.891 1081.65 331.097 1081.65 358.503V542.859H55.209V358.503Z" fill="#008193"/>
<path opacity="0.4" d="M896.492 558.298C896.492 416.492 860.842 280.473 797.456 180.201C734.005 79.9291 648.019 31.4609 558.37 31.4609C468.655 31.4609 382.636 79.9291 319.25 180.201C255.799 280.473 220.182 416.492 220.182 558.298H289.945C289.945 445.729 318.204 337.772 368.54 258.169C418.908 178.599 487.167 117.964 558.337 117.964C629.539 117.964 697.799 178.599 748.134 258.169C798.47 337.772 826.761 445.729 826.761 558.298H896.492Z" fill="black"/>
<path d="M896.492 558.299C896.492 403.967 860.842 255.978 797.456 146.843C734.005 37.7083 648.019 0 558.37 0C468.655 0 382.636 37.7083 319.25 146.843C255.799 255.978 220.182 403.967 220.182 558.299H287.525C287.525 434.676 316.045 316.155 366.839 228.768C417.632 141.382 486.545 78.6544 558.337 78.6544C630.161 78.6544 699.041 141.382 749.835 228.768C800.629 316.155 829.149 434.709 829.149 558.299H896.492Z" fill="white"/>
<path d="M0 520.789H1130.22V1290.13C1130.22 1329.61 1114.53 1367.48 1086.61 1395.4C1058.69 1423.32 1020.82 1439 981.334 1439H148.881C109.395 1439 71.5269 1423.32 43.6063 1395.4C15.6857 1367.48 0 1329.61 0 1290.13V520.789Z" fill="url(#paint0_linear_6119_1779)"/>
<path fill-rule="evenodd" clip-rule="evenodd" d="M910.098 720.482C906.337 727.808 688.346 1044.94 562.425 1192.54C532.597 1227.44 482.588 1228.35 452.825 1190.74C383.944 1103.78 328.31 1028.3 263.714 923.414C254.785 909.024 243.796 888.257 259.79 870.073C259.79 870.073 277.386 849.796 315.489 877.66C363.928 912.981 415.474 947.452 463.029 980.222C490.241 998.929 507.609 1000.56 532.695 980.483C638.338 896.04 875.167 713.876 888.643 705.405C912.42 690.459 915.429 709.134 909.771 720.45H910.098V720.482Z" fill="white"/>
<path d="M158.955 381.725L0 520.785H158.955V381.725ZM1129.1 520.785L969.069 379.828V520.785H1129.1Z" fill="#038B9A"/>
<path d="M54.0967 474.415V357.725C54.0979 353.226 55.3218 348.812 57.6377 344.955C59.9536 341.098 63.2743 337.942 67.2448 335.826C71.2153 333.71 75.6863 332.713 80.1798 332.941C84.6733 333.169 89.0203 334.614 92.7561 337.121L158.955 381.73L54.0967 474.415ZM1081.61 355.567V478.863L969.068 380.618L1043.77 334.472C1047.53 332.15 1051.84 330.872 1056.26 330.772C1060.68 330.672 1065.04 331.753 1068.9 333.903C1072.76 336.053 1075.98 339.194 1078.22 343.002C1080.46 346.811 1081.61 351.148 1081.61 355.567Z" fill="#04A5B7"/>
<path opacity="0.3" d="M440.364 424.639C440.364 435.065 436.222 445.064 428.85 452.436C421.477 459.808 411.477 463.95 401.051 463.95C390.624 463.95 380.625 459.808 373.252 452.436C365.879 445.064 361.737 435.065 361.737 424.639C361.737 414.213 365.879 404.214 373.252 396.842C380.625 389.47 390.624 385.328 401.051 385.328C411.477 385.328 421.477 389.47 428.85 396.842C436.222 404.214 440.364 414.213 440.364 424.639ZM754.938 424.639C754.938 435.065 750.796 445.064 743.423 452.436C736.051 459.808 726.051 463.95 715.624 463.95C705.198 463.95 695.198 459.808 687.826 452.436C680.453 445.064 676.311 435.065 676.311 424.639C676.311 414.213 680.453 404.214 687.826 396.842C695.198 389.47 705.198 385.328 715.624 385.328C726.051 385.328 736.051 389.47 743.423 396.842C750.796 404.214 754.938 414.213 754.938 424.639Z" fill="black"/>
<path fill-rule="evenodd" clip-rule="evenodd" d="M1492.21 461.883C1492.21 426.398 1492.21 395.656 1525.84 395.656C1559.43 395.656 1559.43 435 1559.43 463.78C1559.43 478.17 1564.2 482.977 1578.59 482.977H1654.41C1668.8 482.977 1673.57 473.395 1673.57 459.038C1673.57 355.364 1623.73 286.292 1521.03 286.292C1425.03 286.292 1377.05 350.589 1377.05 436.929C1377.05 512.771 1386.7 548.256 1478.84 656.671C1529.66 716.193 1558.44 755.537 1558.44 792.003C1558.44 827.487 1558.44 858.197 1524.85 858.197C1491.26 858.197 1491.26 818.853 1491.26 790.04C1491.26 775.65 1486.46 770.843 1472.1 770.843H1396.25C1381.86 770.843 1377.05 780.458 1377.05 794.848C1377.05 898.521 1426.96 967.593 1529.66 967.593C1625.62 967.593 1673.57 903.296 1673.57 816.923C1673.57 741.114 1664.94 705.597 1572.84 597.149C1522.01 537.692 1492.21 498.381 1492.21 461.883ZM1918.28 962.818H1995.08C2004.66 962.818 2014.28 962.818 2014.28 943.621V310.265C2014.28 295.875 2009.47 291.067 1995.08 291.067H1918.25C1903.86 291.067 1899.09 295.875 1899.09 310.265V534.814C1899.09 554.012 1899.09 554.012 1879.89 554.012H1851.1C1831.91 554.012 1831.91 554.012 1831.91 534.814V310.265C1831.91 295.875 1827.1 291.067 1812.71 291.067H1735.91C1721.55 291.067 1716.71 295.875 1716.71 310.265V943.588C1716.71 962.786 1726.36 962.786 1735.91 962.786H1812.71C1822.32 962.786 1831.91 962.786 1831.91 943.588V682.606C1831.91 663.408 1831.91 663.408 1851.1 663.408H1879.89C1899.09 663.408 1899.09 663.408 1899.09 682.606V943.588C1899.09 962.786 1908.67 962.786 1918.25 962.786L1918.28 962.818ZM2369.31 775.683V478.235C2369.31 334.27 2316.55 286.325 2220.56 286.325C2124.6 286.325 2071.84 333.321 2071.84 478.235V775.683C2071.84 920.597 2124.6 967.659 2220.56 967.659C2316.55 967.659 2369.31 919.583 2369.31 775.683ZM2254.15 475.357V779.542C2254.15 827.52 2254.15 858.197 2220.56 858.197C2186.97 858.197 2186.97 827.52 2186.97 779.542V475.357C2186.97 426.431 2186.97 395.689 2220.56 395.689C2254.15 395.689 2254.15 426.431 2254.15 475.357ZM2724.34 548.288V483.01C2724.34 339.077 2657.2 291.1 2561.23 291.1H2446.07C2431.68 291.1 2426.87 295.907 2426.87 310.297V943.621C2426.87 958.011 2430.7 962.818 2446.07 962.818H2522.84C2536.25 962.818 2542.04 958.044 2542.04 943.621V758.415C2542.04 739.217 2542.04 739.217 2561.23 739.217C2657.2 739.217 2724.34 691.273 2724.34 548.288ZM2542.04 414.886C2542.04 395.689 2542.04 395.689 2561.23 395.689C2609.18 395.689 2609.18 444.648 2609.18 493.574V536.744C2609.18 585.67 2609.18 634.628 2561.23 634.628C2542.04 634.628 2542.04 634.628 2542.04 617.36V414.919V414.886ZM2897.07 473.428C2897.07 425.45 2897.07 394.74 2930.66 394.74C2964.28 394.74 2964.28 425.483 2964.28 473.428V502.208C2964.28 516.598 2969.02 521.372 2983.48 521.372H3060.21C3074.6 521.372 3079.41 516.63 3079.41 502.175V477.319C3079.41 333.321 3026.62 285.344 2930.66 285.344C2834.7 285.344 2781.91 332.34 2781.91 477.319V775.683C2781.91 920.597 2834.7 967.659 2930.66 967.659C3026.62 967.659 3079.37 919.583 3079.37 775.683V751.711C3079.37 737.321 3074.63 732.513 3060.21 732.513H2983.48C2969.02 732.513 2964.28 737.321 2964.28 751.711V779.542C2964.28 827.52 2964.28 858.197 2930.66 858.197C2897.07 858.197 2897.07 827.52 2897.07 779.542V473.428ZM3156.2 962.786H3358.69C3373.08 962.786 3377.89 958.011 3377.89 943.588V872.587C3377.89 858.197 3373.08 853.422 3358.69 853.422H3272.31C3252.16 853.422 3252.16 853.422 3252.16 833.243V310.297C3252.16 295.907 3247.39 291.067 3232.97 291.067H3156.2C3141.81 291.067 3137.04 295.875 3137.04 310.265V943.588C3137.04 957.978 3141.78 962.786 3156.2 962.786ZM3584.2 310.265V779.509C3584.2 827.487 3584.2 858.164 3550.61 858.164C3516.99 858.164 3516.99 827.487 3516.99 779.509V310.265C3516.99 295.875 3512.22 291.067 3497.79 291.067H3421.03C3406.64 291.067 3401.83 295.875 3401.83 310.265V775.65C3401.83 920.564 3454.65 967.626 3550.61 967.626C3646.58 967.626 3699.33 919.55 3699.33 775.65V310.265C3699.33 295.875 3694.56 291.067 3680.13 291.067H3603.4C3589.01 291.067 3584.2 295.875 3584.2 310.265ZM3776.13 962.786H3983.39C3997.78 962.786 4002.59 958.011 4002.59 943.588V872.587C4002.59 858.197 3997.78 853.422 3983.39 853.422H3891.25C3872.06 853.422 3872.06 853.422 3872.06 834.224V682.606C3872.06 663.408 3872.06 663.408 3891.25 663.408H3983.39C3997.78 663.408 4002.59 658.601 4002.59 644.211V573.176C4002.59 558.786 3997.78 554.012 3983.39 554.012H3891.25C3872.06 554.012 3872.06 554.012 3872.06 534.814V419.629C3872.06 400.464 3872.06 400.464 3891.25 400.464H3983.39C3997.78 400.464 4002.59 395.656 4002.59 381.266V310.297C4002.59 295.907 3997.78 291.067 3983.39 291.067H3776.13C3761.7 291.067 3756.93 295.875 3756.93 310.265V943.588C3756.93 962.786 3766.51 962.786 3776.13 962.786ZM4160.92 461.883C4160.92 426.398 4160.92 395.656 4194.51 395.656C4228.07 395.656 4228.07 435 4228.07 463.78C4228.07 478.17 4232.91 482.977 4247.27 482.977H4323.11C4337.51 482.977 4342.31 473.395 4342.31 459.038C4342.31 355.364 4292.4 286.292 4189.7 286.292C4093.74 286.292 4045.76 350.589 4045.76 436.929C4045.76 512.771 4055.34 548.256 4147.48 656.671C4198.34 716.193 4227.15 755.537 4227.15 792.003C4227.15 827.487 4227.15 858.197 4193.53 858.197C4159.97 858.197 4159.97 818.853 4159.97 790.04C4159.97 775.65 4155.13 770.843 4140.77 770.843H4064.96C4050.54 770.843 4045.76 780.458 4045.76 794.848C4045.76 898.521 4095.64 967.593 4198.34 967.593C4294.3 967.593 4342.31 903.296 4342.31 816.923C4342.31 741.114 4333.68 705.597 4241.54 597.149C4190.65 537.692 4160.92 498.381 4160.92 461.883Z" fill="#003037"/>
<defs>
<linearGradient id="paint0_linear_6119_1779" x1="565.108" y1="520.789" x2="565.108" y2="1439" gradientUnits="userSpaceOnUse">
<stop stop-color="#009CAD"/>
<stop offset="1" stop-color="#018EA2"/>
</linearGradient>
</defs>
</svg>
