<svg width="443" height="124" viewBox="0 0 443 124" fill="none" xmlns="http://www.w3.org/2000/svg">
<path d="M37.4029 19.2548H37.6242L48.2476 50.9034H27.0009L37.4029 19.2548ZM29.3617 0L0 80.929V85.9455H15.7874L22.8696 64.1087H52.6739L59.9775 85.9455H79.0847V80.929L49.6492 0H29.3617Z" fill="#00418D"/>
<path d="M84.618 81.3714V68.0923H90.446C93.4707 70.8219 99.0037 73.4777 106.75 73.4777C114.201 73.4777 118.111 71.4858 118.111 67.4283C118.111 63.5184 115.75 61.674 106.381 60.5675C91.8477 58.8707 84.1016 53.559 84.1016 40.9438C84.1016 27.9598 94.1347 20.6562 110.365 20.6562C119.955 20.6562 125.931 22.5006 131.243 25.0826V38.0667H125.71C122.685 35.8535 117.373 33.7878 110.512 33.7878C103.283 33.7878 100.553 35.8535 100.553 39.5421C100.553 42.8619 103.799 44.5587 112.947 45.6653C128.734 47.6572 135.3 52.6737 135.3 65.6578C135.3 78.3467 126.816 86.5356 107.635 86.5356C96.7905 86.6831 89.7821 84.2486 84.618 81.3714Z" fill="#00418D"/>
<path d="M137.439 21.4704H145.259V4.28125H163.703V21.4704H177.129V33.4954H163.776V66.5457C163.776 72.6688 166.285 74.3656 172.334 74.3656H177.424V85.2102C174.621 86.0955 171.006 86.907 165.768 86.907C153.006 86.907 145.259 81.9642 145.259 68.6113V33.4954H137.439V21.4704Z" fill="#00418D"/>
<path d="M198.301 57.686C199.187 70.5962 205.531 74.1373 215.786 74.1373C223.237 74.1373 229.065 71.7766 233.344 68.7519H239.024V80.5556C233.712 83.5065 226.261 86.8263 212.982 86.8263C191.219 86.8263 179.342 74.2849 179.342 54.0711C179.342 33.3409 193.285 20.5781 211.654 20.5781C231.13 20.5781 241.532 30.9801 241.532 52.2268C241.532 54.4399 241.237 57.1695 241.237 57.7597H198.301V57.686ZM198.523 46.9151H223.311C222.942 35.4803 218.884 31.7916 211.654 31.7916C205.236 31.7916 199.924 34.8901 198.523 46.9151Z" fill="#00418D"/>
<path d="M268.902 39.392V85.9428H250.459V21.4652H263C266.173 21.4652 268.017 22.7931 268.681 29.2114C272.886 24.9325 278.935 20.875 287.124 20.875C288.526 20.875 289.928 21.0963 291.182 21.4652V35.5558H288.009C278.862 35.6296 272.443 37.5477 268.902 39.392Z" fill="#00418D"/>
<path d="M50.2394 121.426H49.4279L45.7392 105.565H43.9687L40.28 121.426H39.4685L36.2963 105.344H34.7471L38.2882 122.754H41.3866L44.854 107.483L48.2475 122.754H51.4198L54.9609 105.344H53.4116L50.2394 121.426Z" fill="#595757"/>
<path d="M61.7481 109.992C58.7234 109.992 56.584 111.689 56.584 116.558C56.584 120.763 57.6906 122.976 61.453 123.05C63.3711 123.05 66.2482 122.681 66.2482 122.681L66.1745 121.427C66.1745 121.427 63.4449 121.648 61.6006 121.648C58.9447 121.648 58.1332 120.099 58.1332 117.148H66.6171L66.6909 115.968C66.6909 111.763 64.9941 109.992 61.7481 109.992ZM58.1332 115.894C58.1332 112.574 59.4611 111.32 61.7481 111.32C64.1088 111.32 65.2154 112.5 65.2154 115.894H58.1332Z" fill="#595757"/>
<path d="M68.9775 110.218H70.2317L71.6334 104.906H70.0841L68.9775 110.218Z" fill="#595757"/>
<path d="M76.2811 104.68H74.8057V122.754H76.2811V104.68Z" fill="#595757"/>
<path d="M81.8143 104.68H80.3389V122.754H81.8143V104.68Z" fill="#595757"/>
<path d="M102.176 105.344H89.708V106.745H95.1672V122.754H96.7164V106.745H102.176V105.344Z" fill="#595757"/>
<path d="M103.504 110.288H102.028V122.83H103.504V113.46C103.504 113.46 105.865 112.059 108.225 111.616V110.141C105.643 110.583 103.504 112.206 103.504 112.206V110.288Z" fill="#595757"/>
<path d="M114.864 109.992C111.84 109.992 109.7 111.689 109.7 116.558C109.7 120.763 110.807 122.976 114.569 123.05C116.487 123.05 119.364 122.681 119.364 122.681L119.291 121.427C119.291 121.427 116.561 121.648 114.717 121.648C112.061 121.648 111.249 120.099 111.249 117.148H119.733L119.807 115.968C119.733 111.763 118.037 109.992 114.864 109.992ZM111.176 115.894C111.176 112.574 112.504 111.32 114.791 111.32C117.151 111.32 118.258 112.5 118.258 115.894H111.176Z" fill="#595757"/>
<path d="M131.463 120.689V113.976C131.463 111.32 130.283 109.992 127.553 109.992C125.414 109.992 122.684 110.509 122.684 110.509L122.758 111.689C122.758 111.689 125.709 111.32 127.479 111.32C129.102 111.32 129.914 112.058 129.914 113.976V115.156L125.635 115.599C123.127 115.82 121.946 116.927 121.946 119.288C121.946 121.796 123.2 123.05 125.414 123.05C127.774 123.05 130.135 122.017 130.135 122.017C130.799 122.755 131.758 123.05 132.938 123.05L133.012 121.87C132.275 121.722 131.537 121.427 131.463 120.689ZM129.988 120.911C129.988 120.911 127.701 121.796 125.709 121.796C124.307 121.796 123.643 120.837 123.643 119.288C123.643 117.812 124.233 117.001 125.93 116.853L129.988 116.41V120.911Z" fill="#595757"/>
<path d="M139.505 121.723C137.734 121.723 137.513 120.912 137.513 117.813V111.616H141.718V110.288H137.513V106.305H136.038V110.215H134.193V111.543H136.038V118.477C136.038 122.092 136.923 122.977 139.431 122.977C140.317 122.977 141.94 122.756 141.94 122.756L141.866 121.502C141.792 121.502 140.169 121.723 139.505 121.723Z" fill="#595757"/>
<path d="M158.98 105.344L154.333 113.828L149.685 105.344H147.988L153.595 115.451V122.754H155.144V115.451L160.751 105.344H158.98Z" fill="#595757"/>
<path d="M165.841 109.992C161.931 109.992 160.604 111.91 160.604 116.337C160.604 121.058 161.636 123.05 165.841 123.05C170.046 123.05 171.079 121.058 171.079 116.337C171.079 111.91 169.751 109.992 165.841 109.992ZM165.841 121.722C162.595 121.722 162.153 120.173 162.153 116.337C162.153 112.574 162.964 111.32 165.841 111.32C168.719 111.32 169.53 112.574 169.53 116.337C169.604 120.173 169.087 121.722 165.841 121.722Z" fill="#595757"/>
<path d="M182.293 120.621C182.293 120.621 180.596 121.654 178.605 121.654C176.096 121.654 175.727 120.473 175.727 116.711V110.219H174.252V116.785C174.252 121.432 174.99 123.055 178.457 123.055C180.375 123.055 182.293 121.875 182.293 121.875V122.834H183.769V110.293H182.293V120.621Z" fill="#595757"/>
<path d="M207.449 121.426H206.638L203.023 105.565H201.179L197.49 121.426H196.678L193.506 105.344H191.957L195.572 122.754H198.67L202.064 107.483L205.531 122.754H208.63L212.171 105.344H210.622L207.449 121.426Z" fill="#595757"/>
<path d="M218.958 109.992C215.933 109.992 213.794 111.689 213.794 116.558C213.794 120.763 214.901 122.976 218.663 123.05C220.581 123.05 223.458 122.681 223.458 122.681L223.384 121.427C223.384 121.427 220.655 121.648 218.811 121.648C216.155 121.648 215.343 120.099 215.343 117.148H223.827L223.901 115.968C223.901 111.763 222.204 109.992 218.958 109.992ZM215.343 115.894C215.343 112.574 216.671 111.32 218.958 111.32C221.319 111.32 222.425 112.5 222.425 115.894H215.343Z" fill="#595757"/>
<path d="M228.623 104.68H227.147V122.754H228.623V104.68Z" fill="#595757"/>
<path d="M234.155 104.68H232.68V122.754H234.155V104.68Z" fill="#595757"/>
<path d="M442.048 61.5259C442.048 95.1664 414.752 122.462 381.111 122.462C347.471 122.462 320.175 95.1664 320.175 61.5259C320.175 27.8116 347.471 0.515625 381.111 0.515625C414.752 0.589398 442.048 27.8854 442.048 61.5259Z" fill="white"/>
<mask id="mask0_6121_1988" style="mask-type:luminance" maskUnits="userSpaceOnUse" x="338" y="17" width="86" height="87">
<path d="M338.176 60.3474C338.176 83.9548 357.283 103.062 380.89 103.062C404.498 103.062 423.605 83.9548 423.605 60.3474C423.605 36.74 404.498 17.6328 380.89 17.6328C357.283 17.6328 338.176 36.74 338.176 60.3474Z" fill="white"/>
</mask>
<g mask="url(#mask0_6121_1988)">
<path d="M336.184 60.2733C336.184 35.6331 356.176 15.6406 380.89 15.6406C405.53 15.6406 425.523 35.6331 425.523 60.2733C425.523 84.9872 405.53 104.98 380.89 104.98C356.25 104.906 336.184 84.9135 336.184 60.2733Z" fill="#00A283"/>
</g>
<mask id="mask1_6121_1988" style="mask-type:luminance" maskUnits="userSpaceOnUse" x="338" y="17" width="86" height="87">
<path d="M338.176 60.3474C338.176 83.9548 357.283 103.062 380.89 103.062C404.498 103.062 423.605 83.9548 423.605 60.3474C423.605 36.74 404.498 17.6328 380.89 17.6328C357.283 17.6328 338.176 36.74 338.176 60.3474Z" fill="white"/>
</mask>
<g mask="url(#mask1_6121_1988)">
<path d="M335.741 59.6092C335.741 34.8953 355.734 14.9766 380.374 14.9766C400.809 14.9766 418.81 27.518 424.121 46.1088C423.752 46.3301 422.277 47.5842 421.023 47.5842C417.629 47.5842 412.834 51.9368 412.834 51.9368L403.907 62.0437L387.825 78.2738C387.825 78.2738 386.349 78.5689 386.202 75.8393C386.054 73.1097 383.915 63.4454 383.915 63.4454C383.915 63.4454 382.882 66.3963 380.005 69.6424C377.054 72.8884 363.775 80.4132 355.66 81.0034C347.545 81.5936 343.192 76.7983 343.192 76.7983C340.684 73.1097 338.397 68.9784 337.143 68.3144C336.258 64.552 335.741 63.593 335.741 59.6092Z" fill="#0B308E"/>
</g>
<path fill-rule="evenodd" clip-rule="evenodd" d="M387.456 47.7282C387.456 47.7282 387.013 47.2856 386.349 49.6463C385.685 52.007 385.611 58.7204 385.611 58.7204C387.087 57.0236 389.447 50.7529 389.447 48.8348C389.374 46.9167 387.456 47.7282 387.456 47.7282ZM376.832 60.5647L376.759 60.7123C376.906 60.7123 377.57 60.5647 378.013 60.8598C378.677 61.3024 378.972 62.5566 378.677 62.7779C378.086 63.1468 372.48 66.6879 371.152 66.1715C369.824 65.655 364.512 60.4171 361.266 58.204C358.02 56.0645 342.159 50.9004 341.495 64.2533C340.831 77.5325 354.553 81.5162 363.258 78.4915C372.037 75.5406 381.701 63.9583 381.701 63.9583C381.554 53.8514 382.513 51.1955 384.431 47.3593C386.423 43.3018 392.915 43.0067 391.882 49.8676C390.775 56.7285 385.39 63.2205 385.39 63.2205C386.865 66.8354 388.12 76.4259 388.12 76.4259C388.12 76.4259 403.317 58.7204 409.956 51.9332C416.448 45.3675 421.686 47.6544 421.686 47.6544C420.211 48.3184 419.768 53.3349 419.547 54.1464C419.252 54.9579 417.555 54.1464 417.555 54.1464L417.776 52.3759C414.973 48.1708 409.292 55.6219 406.342 61.8188C403.391 68.0158 401.989 80.4834 401.989 80.4834L406.046 80.7785V82.9179C402.432 83.213 397.784 85.5 397.784 85.5C397.784 85.5 397.636 84.6885 397.931 80.9261C398.226 77.1636 401.177 65.2862 401.177 65.2862C401.177 65.2862 396.308 70.4503 394.612 72.7372C392.841 75.0242 384.505 84.5409 384.505 84.5409L383.177 83.213C383.177 83.213 384.357 77.3849 384.136 75.2455C383.841 73.1061 382.808 68.0158 382.808 68.0158L379.414 71.4093C374.25 76.9423 366.061 80.9998 366.061 80.9998C340.093 89.1149 334.487 65.8026 341.421 57.3187C348.282 48.9086 358.02 52.2284 360.528 53.2612C363.479 54.5153 373.439 62.5566 374.693 62.7041C375.726 62.7779 376.537 61.3762 376.759 60.9336L376.832 60.5647Z" fill="white"/>
<path d="M442.048 61.5259C442.048 95.1664 414.752 122.462 381.111 122.462C347.471 122.462 320.175 95.1664 320.175 61.5259C320.175 27.8116 347.471 0.515625 381.111 0.515625C414.752 0.589398 442.048 27.8854 442.048 61.5259Z" fill="white"/>
<mask id="mask2_6121_1988" style="mask-type:luminance" maskUnits="userSpaceOnUse" x="338" y="17" width="86" height="87">
<path d="M338.176 60.3474C338.176 83.9548 357.283 103.062 380.89 103.062C404.498 103.062 423.605 83.9548 423.605 60.3474C423.605 36.74 404.498 17.6328 380.89 17.6328C357.283 17.6328 338.176 36.74 338.176 60.3474Z" fill="white"/>
</mask>
<g mask="url(#mask2_6121_1988)">
<path d="M336.184 60.2733C336.184 35.6331 356.176 15.6406 380.89 15.6406C405.53 15.6406 425.523 35.6331 425.523 60.2733C425.523 84.9872 405.53 104.98 380.89 104.98C356.25 104.906 336.184 84.9135 336.184 60.2733Z" fill="#00AA83"/>
</g>
<mask id="mask3_6121_1988" style="mask-type:luminance" maskUnits="userSpaceOnUse" x="338" y="17" width="86" height="87">
<path d="M338.176 60.3474C338.176 83.9548 357.283 103.062 380.89 103.062C404.498 103.062 423.605 83.9548 423.605 60.3474C423.605 36.74 404.498 17.6328 380.89 17.6328C357.283 17.6328 338.176 36.74 338.176 60.3474Z" fill="white"/>
</mask>
<g mask="url(#mask3_6121_1988)">
<path d="M335.741 59.6092C335.741 34.8953 355.734 14.9766 380.374 14.9766C400.809 14.9766 418.81 27.518 424.121 46.1088C423.752 46.3301 422.277 47.5842 421.023 47.5842C417.629 47.5842 412.834 51.9368 412.834 51.9368L403.907 62.0437L387.825 78.2738C387.825 78.2738 386.349 78.5689 386.202 75.8393C386.054 73.1097 383.915 63.4454 383.915 63.4454C383.915 63.4454 382.882 66.3963 380.005 69.6424C377.054 72.8884 363.775 80.4132 355.66 81.0034C347.545 81.5936 343.192 76.7983 343.192 76.7983C340.684 73.1097 338.397 68.9784 337.143 68.3144C336.258 64.552 335.741 63.593 335.741 59.6092Z" fill="#00418D"/>
</g>
<path fill-rule="evenodd" clip-rule="evenodd" d="M387.457 47.2856C387.457 47.2856 387.014 47.2118 386.276 49.5725C385.612 51.9333 385.538 58.6466 385.538 58.6466C387.014 56.9498 389.375 50.6791 389.375 48.761C389.375 46.9167 387.457 47.2856 387.457 47.2856ZM376.76 60.7123C376.907 60.7123 377.571 60.5647 378.014 60.8598C378.678 61.3024 378.973 62.5566 378.678 62.7779C378.087 63.1468 372.481 66.6879 371.153 66.1715C369.825 65.655 364.513 60.4171 361.267 58.204C358.021 56.0645 342.16 50.9004 341.496 64.2533C340.832 77.5325 354.554 81.5162 363.259 78.4915C372.038 75.5406 381.702 63.9583 381.702 63.9583C381.555 53.8514 382.514 51.1955 384.432 47.3593C386.424 43.3018 392.916 43.0067 391.883 49.8676C390.776 56.7285 385.391 63.2205 385.391 63.2205C386.866 66.8354 388.121 76.4259 388.121 76.4259C388.121 76.4259 403.318 58.7204 409.957 51.9332C416.449 45.3675 421.687 47.6544 421.687 47.6544C420.212 48.3184 419.769 53.3349 419.548 54.1464C419.253 54.9579 417.556 54.1464 417.556 54.1464L417.777 52.3759C414.974 48.1708 409.293 55.5481 406.342 61.8188C403.392 68.0158 401.99 80.4834 401.99 80.4834L406.047 80.7785V82.9179C402.432 83.213 397.785 85.5 397.785 85.5C397.785 85.5 397.637 84.6885 397.932 80.9261C398.227 77.1636 401.178 65.2862 401.178 65.2862C401.178 65.2862 396.309 70.4503 394.613 72.7372C392.842 75.0242 384.506 84.5409 384.506 84.5409L383.178 83.213C383.178 83.213 384.358 77.3849 384.137 75.2455C383.842 73.1061 382.809 68.0158 382.809 68.0158L379.415 71.4093C374.251 76.9423 366.062 80.9998 366.062 80.9998C340.094 89.1149 334.488 65.8026 341.422 57.3187C345.406 52.3759 350.496 51.4906 354.406 51.7857C357.21 52.007 359.718 53.0399 361.046 53.63C362.226 54.2202 363.997 55.3268 366.358 57.0236C369.972 59.6057 373.956 62.5566 374.694 62.7041C375.653 62.5566 376.538 61.0811 376.76 60.7123Z" fill="white"/>
<path d="M329.323 76.723L328.29 72.8869L325.855 72.4442L325.486 70.9688L336.11 72.8869L327.773 79.6002L327.404 78.1247L329.323 76.723ZM330.429 75.8378L333.085 73.6983L329.691 73.1082L330.429 75.8378Z" fill="#231815"/>
<path d="M337.881 83.1434L336.848 82.4056C337.069 82.0368 337.217 81.8154 337.291 81.5941C337.291 81.3728 337.291 81.0777 337.143 80.7826C336.995 80.4137 336.774 80.1924 336.479 80.0449C336.184 79.8973 335.889 79.8973 335.594 80.0449C335.151 80.1924 335.004 80.7088 335.004 81.3728V82.3318C335.004 83.1433 334.93 83.8073 334.635 84.2499C334.413 84.7664 333.971 85.1352 333.381 85.3565C332.643 85.7254 331.831 85.7254 331.094 85.4303C330.356 85.1352 329.839 84.6188 329.471 83.8073C329.175 83.0696 329.102 82.4056 329.323 81.7417C329.544 81.0777 329.987 80.4875 330.725 80.0449L331.61 81.2252C331.167 81.5203 330.872 81.7417 330.725 81.963C330.503 82.4056 330.503 82.8483 330.725 83.3647C330.872 83.7335 331.167 84.0286 331.536 84.1762C331.905 84.3237 332.274 84.3237 332.717 84.1024L333.159 83.8073L333.454 83.4384C333.528 83.2909 333.602 83.1433 333.602 82.922C333.602 82.7007 333.676 82.4794 333.676 82.2581V81.299C333.676 79.9711 334.118 79.0121 335.004 78.6432C335.668 78.3481 336.258 78.3481 336.922 78.6432C337.586 78.9383 338.028 79.4547 338.323 80.1924C338.692 81.2253 338.545 82.1843 337.881 83.1434Z" fill="#231815"/>
<path d="M340.094 86.8293L333.38 90.9606L332.643 89.7802L339.43 85.6489L338.323 83.8784L339.43 83.1406L342.307 87.9359L341.2 88.5998L340.094 86.8293Z" fill="#231815"/>
<path d="M344.963 93.323L342.676 90.4459L340.905 91.8476L343.119 94.651L342.16 95.4624L339.873 92.6591L337.512 94.5772L339.799 97.4543L338.766 98.2658L335.594 94.2821L342.824 88.6016L345.922 92.5115L344.963 93.323Z" fill="#231815"/>
<path d="M345.479 99.4487L344.815 104.244L343.561 103.064L344.225 98.5634L344.078 98.4159L341.496 101.145L340.463 100.186L346.807 93.5469L347.988 94.6535C348.873 95.465 349.316 96.2765 349.389 96.9404C349.463 97.7519 349.242 98.4159 348.652 99.0061C348.209 99.4487 347.693 99.7438 347.102 99.8176C346.586 99.8914 345.996 99.8176 345.479 99.4487ZM344.963 97.5306L345.258 97.8257C346.217 98.711 347.029 98.7847 347.693 98.1208C348.357 97.4568 348.209 96.6453 347.25 95.7601L346.881 95.3912L344.963 97.5306Z" fill="#231815"/>
<path d="M349.979 108.077L354.553 100.109L356.25 101.068C357.062 101.511 357.652 101.954 358.021 102.396C358.463 102.839 358.758 103.355 358.906 103.946C359.275 105.2 359.127 106.38 358.463 107.634C357.726 108.888 356.767 109.626 355.439 109.847C354.775 109.995 354.185 109.995 353.668 109.847C353.152 109.774 352.488 109.479 351.676 108.962L349.979 108.077ZM351.898 107.708L352.414 108.003C352.93 108.298 353.447 108.519 353.889 108.593C354.332 108.667 354.775 108.667 355.217 108.593C356.103 108.372 356.84 107.856 357.357 106.97C357.873 106.085 357.947 105.2 357.726 104.314C357.504 103.503 356.84 102.839 355.808 102.249L355.291 101.954L351.898 107.708Z" fill="#231815"/>
<path d="M358.463 112.873L363.406 104.094L364.143 111.84L369.529 106.086L368.053 116.045L366.725 115.602L367.611 110.069L363.111 114.865L362.52 108.373L359.791 113.315L358.463 112.873Z" fill="#231815"/>
<path d="M376.759 111.618L380.742 111.766L380.89 108.225H382.292L381.849 117.446L380.521 117.373L380.669 113.094L376.759 112.872L376.537 117.151H375.136L375.578 107.93L376.98 108.003L376.759 111.618Z" fill="#231815"/>
<path d="M389.153 108.89L385.464 109.259L385.686 111.472L389.227 111.104L389.374 112.358L385.833 112.8L386.202 115.825L389.817 115.382L389.964 116.71L384.948 117.301L383.915 108.153L389.005 107.562L389.153 108.89Z" fill="#231815"/>
<path d="M397.268 112.654L393.505 113.687L393.137 116.122L391.661 116.49L393.432 105.867L400.219 114.13L398.743 114.499L397.268 112.654ZM396.383 111.548L394.243 108.892L393.653 112.285L396.383 111.548Z" fill="#231815"/>
<path d="M399.629 104.391L402.728 111.62L405.236 110.514L405.752 111.694L401.99 113.317L398.375 104.907L399.629 104.391Z" fill="#231815"/>
<path d="M405.236 102.991L409.072 109.926L407.891 110.59L404.055 103.655L402.211 104.688L401.547 103.581L406.49 100.852L407.08 101.958L405.236 102.991Z" fill="#231815"/>
<path d="M410.326 102.471L413.498 100.111L411.285 97.2334L412.392 96.4219L417.998 103.725L416.892 104.537L414.31 101.143L411.138 103.578L413.72 106.971L412.613 107.783L407.08 100.479L408.187 99.6679L410.326 102.471Z" fill="#231815"/>
<path d="M418.588 90.6641L419.768 91.7707C418.735 91.9182 417.924 92.2871 417.334 92.8773C416.67 93.5412 416.375 94.3527 416.448 95.3118C416.522 96.2708 416.891 97.0823 417.629 97.6725C418.367 98.3365 419.178 98.6316 420.063 98.6316C421.022 98.6316 421.76 98.2627 422.424 97.525C422.719 97.1561 423.014 96.7872 423.088 96.4184C423.162 96.1971 423.236 95.9757 423.236 95.7544C423.309 95.5331 423.309 95.238 423.309 94.9429L424.563 96.0495C424.342 96.9348 423.973 97.6725 423.383 98.3365C422.498 99.2955 421.391 99.8119 420.063 99.8857C418.735 99.9595 417.629 99.5168 416.67 98.6316C415.784 97.8201 415.342 96.861 415.194 95.6806C415.047 94.2052 415.416 92.951 416.448 91.8444C416.965 91.4018 417.703 90.9592 418.588 90.6641Z" fill="#231815"/>
<path d="M427.736 88.4501L425.596 91.7699L426.924 93.8356L426.113 95.0897L420.358 86.0156L430.908 87.5649L430.096 88.819L427.736 88.4501ZM426.334 88.2288L422.94 87.7124L424.785 90.5896L426.334 88.2288Z" fill="#231815"/>
<path d="M429.433 81.2988L434.154 80.266L433.49 81.8152L428.99 82.7742L428.916 82.9956L432.384 84.471L431.867 85.7252L423.457 82.1103L424.121 80.6348C424.637 79.5282 425.154 78.7905 425.818 78.4954C426.556 78.1265 427.219 78.1265 428.031 78.4954C428.621 78.7167 429.064 79.1594 429.359 79.6758C429.506 80.1184 429.58 80.7086 429.433 81.2988ZM427.81 82.4792L427.957 82.1103C428.474 80.9299 428.252 80.1184 427.367 79.6758C426.482 79.3069 425.818 79.6758 425.301 80.8561L425.08 81.2988L427.81 82.4792Z" fill="#231815"/>
<path d="M428.548 71.1892L427.589 74.7303L429.728 75.3205L430.614 71.8531L431.868 72.222L430.982 75.6893L433.933 76.5008L434.892 72.9597L436.147 73.2548L434.819 78.1976L425.966 75.7631L427.294 70.8203L428.548 71.1892Z" fill="#231815"/>
<path d="M381.112 123.053C347.176 123.053 319.585 95.4623 319.585 61.5267C319.585 27.5911 347.176 0 381.112 0C415.047 0 442.638 27.5911 442.638 61.5267C442.638 95.4623 415.047 123.053 381.112 123.053ZM381.112 0.663964C347.545 0.663964 320.249 27.96 320.249 61.5267C320.249 95.0934 347.545 122.389 381.112 122.389C414.678 122.389 441.974 95.0934 441.974 61.5267C441.974 27.96 414.678 0.663964 381.112 0.663964Z" fill="#231815"/>
</svg>
