<svg width="745" height="277" viewBox="0 0 745 277" fill="none" xmlns="http://www.w3.org/2000/svg">
<path d="M93.1991 0H97.0991C102.899 0.5 108.199 3.3 111.999 7.7C119.599 16.2 119.499 30.3 111.999 38.8C107.199 44.5 99.7991 47.3 92.4991 46.3C82.7991 45.1 74.6991 36.7 73.4991 27.1C72.9991 22.1 73.2991 16.8 75.7991 12.3C79.2991 5.5 85.7991 0.9 93.1991 0Z" fill="#E83035"/>
<path d="M132.8 62.9062C151.6 93.9062 170.6 124.706 189.2 155.906C176 181.506 163.4 207.406 150.2 233.006C158.9 247.206 168.3 260.906 177.1 275.006C156.1 275.106 135.1 274.906 114.1 275.106C111.9 265.006 109.7 254.706 108.1 244.506C111.1 212.906 114 181.306 117.1 149.706C123.1 149.706 129.1 149.706 135.1 149.706C134.2 120.706 133.5 91.8062 132.8 62.9062Z" fill="#0CA854"/>
<path d="M53.2 69.9047C54.6 67.7047 56 65.4047 57.5 63.3047C56.7 92.1047 55.1 120.805 54.2 149.505C60.2 149.505 66.1 149.505 72.1 149.505C75.1 179.205 77.6 208.905 80.5 238.605C80.7 242.405 81.4 246.205 80.5 249.905C78.6 258.205 77.1 266.605 75.1 274.905C54.1 274.805 33.2 274.905 12.2 274.905C20.8 260.705 30.3 247.105 39 232.905C25.8 207.405 13.3 181.405 0 155.905C1.1 153.705 2.4 151.505 3.8 149.405C20.1 123.005 36.7 96.5047 53.2 69.9047Z" fill="#0CA854"/>
<path d="M608.7 105.008H642.2C642.2 114.808 642.2 124.608 642.2 134.408H608.7C608.7 124.608 608.7 114.808 608.7 105.008Z" fill="#0CA854"/>
<path d="M241.8 111.006C270.8 110.706 299.8 110.706 328.8 111.006C328.6 119.406 328.8 127.806 328.7 136.106C311.6 136.206 294.4 136.006 277.2 136.206L276.8 136.606C276.7 145.106 276.7 153.606 276.8 162.106L277.8 163.006C290.4 163.206 302.9 163.006 315.5 163.106C315.5 171.506 315.5 180.006 315.5 188.406C302.6 188.406 289.7 188.406 276.9 188.406C276.5 211.806 276.9 235.306 276.7 258.706C265.1 263.506 253.6 268.806 242 273.506C241.7 219.306 242 165.106 241.8 111.006Z" fill="#0CA854"/>
<path d="M534.6 132.105C545.8 128.805 557 125.405 568.2 122.305C568.2 133.105 568.2 143.805 568.2 154.605H642.2C642.5 189.305 642.2 223.905 642.3 258.605C631.1 263.605 620 268.605 608.9 273.705C608.7 242.205 608.9 210.605 608.8 179.005C595.4 178.905 581.9 179.105 568.5 178.905C568.2 205.305 568.3 231.805 568.4 258.205C557.3 263.605 546 268.405 534.8 273.405C534.7 245.205 534.8 217.105 534.8 188.905C534.7 185.505 535 182.005 534.5 178.705C529 180.105 523.2 178.905 517.6 180.005C507.9 181.305 497.9 185.505 492.6 194.105C486.7 203.805 485.2 215.505 485 226.705C484.9 237.305 485.2 248.005 484.9 258.605C473.6 263.305 462.7 268.805 451.4 273.405C451.3 234.205 451.3 194.905 451.4 155.705C461.3 155.605 471.3 155.705 481.3 155.705C481.4 164.605 481.1 173.505 481.5 182.405C484.4 169.605 495 159.105 507.5 155.505C516.5 153.105 525.8 155.005 534.9 154.005C534.6 146.705 534.6 139.405 534.6 132.105Z" fill="#0CA854"/>
<path d="M671.7 155.308C685.6 148.908 701.3 148.708 716.3 150.208C723.6 151.008 730.8 152.208 738 153.808C737.2 161.508 736.3 169.308 735.8 177.008C726.9 174.408 717.9 171.908 708.6 172.008C702.5 171.808 695.8 172.208 690.7 175.908C686.8 178.708 684.7 184.608 687.3 188.908C689.9 192.808 694.6 194.308 698.8 195.708C710.4 199.408 723 201.608 732.8 209.208C740.3 214.808 744.3 224.308 744.1 233.608C744.6 242.708 741.2 251.508 734.8 258.008C726.8 266.108 715.5 269.908 704.6 271.708C687.2 274.108 669.5 271.908 652.5 267.708C653 259.208 653.6 250.808 654.5 242.408C665 247.408 676.5 250.108 688.2 250.208C694.3 249.708 701 248.708 705.7 244.308C710.2 240.108 710.5 231.908 705.7 227.808C700.9 223.708 694.3 222.308 688.3 220.508C678.4 217.808 667.9 215.408 660.1 208.308C651.6 200.708 649.6 187.908 652.3 177.208C654.5 167.308 662.5 159.508 671.7 155.308Z" fill="#0CA854"/>
<path d="M332.3 167.808C346.5 156.208 365.6 151.908 383.7 153.108C399.4 154.008 415.1 159.508 426.8 170.208C451.3 192.708 451.9 236.108 427.4 258.808C415.8 269.908 399.7 275.008 384 276.208H374.4C362.4 275.708 350.2 272.908 339.7 266.808C327.7 260.008 318.6 249.008 314.2 235.908C310.8 226.108 310.4 215.608 311.6 205.408C313.3 190.708 320.8 177.208 332.3 167.808ZM369.4 177.908C356.3 180.908 347.5 193.508 346.2 206.408C345.5 216.608 346.2 227.208 350.8 236.408C354 243.308 360 248.508 367.3 250.808C376.2 253.408 386.3 252.908 394.5 248.308C402.1 244.008 406.6 235.808 408.5 227.508C410.7 217.808 411.3 207.308 408 197.708C405.9 191.308 401.8 185.808 396.3 182.008C388.5 176.808 378.4 175.808 369.4 177.908Z" fill="#0CA854"/>
</svg>
