<svg width="1631" height="1781" viewBox="0 0 1631 1781" fill="none" xmlns="http://www.w3.org/2000/svg">
<g clip-path="url(#clip0_6117_1690)">
<mask id="mask0_6117_1690" style="mask-type:luminance" maskUnits="userSpaceOnUse" x="0" y="0" width="1631" height="1781">
<path d="M1631 0H0V1781H1631V0Z" fill="white"/>
</mask>
<g mask="url(#mask0_6117_1690)">
<path d="M1276.89 12.9004C1307.61 1.45029 1343.69 -6.95613 1374.69 8.26238C1393.09 20.1473 1395.99 44.4969 1396.86 64.4984C1399.76 110.299 1380.2 153.345 1359.05 192.624C1318.43 261.258 1271.43 325.898 1218.65 385.681C1147.08 471.485 1075.36 557.143 1001.32 640.338C986.83 656.716 972.341 671.354 959.011 688.747C985.091 716.72 1011.17 744.838 1035.95 773.971C949.014 773.971 862.082 773.971 775.149 773.971C772.831 685.172 771.43 596.325 770.947 507.429C807.749 532.649 836.581 568.448 873.528 592.508C930.96 549.43 986.139 503.423 1038.84 454.672C1089.12 408.147 1140.27 362.056 1186.2 311.473C1237.48 260.552 1282.92 204.063 1321.67 143.055C1335 122.726 1342.7 99.2172 1343.98 74.9339C1344.15 67.8541 1341.6 60.9783 1336.86 55.7211C1332.11 50.4639 1325.54 47.2251 1318.48 46.671C1287.17 47.0951 1256.16 52.829 1226.76 63.6288C1172.28 82.2842 1120.08 107.032 1071.15 137.402C1077.55 129.791 1085.02 123.151 1093.32 117.691C1149.83 75.1257 1211.52 39.9138 1276.89 12.9004Z" fill="#0161B0"/>
<path d="M608.529 120.591C657.985 93.7592 712.324 77.1367 768.323 71.7091C824.322 66.2815 880.84 72.1594 934.526 88.9942C1039.02 121.877 1126.79 193.841 1179.53 289.878C1182.72 296.835 1188.22 304.372 1186.2 312.199C1139.98 362.782 1089.12 408.873 1038.84 455.398C985.904 504.169 930.483 550.175 872.804 593.234C835.857 569.174 807.025 533.375 770.223 508.155C770.223 597.051 771.624 685.898 774.425 774.697C861.358 774.697 948.29 774.697 1035.22 774.697C1010.45 745.709 984.367 717.446 958.287 689.473C970.893 672.08 987.265 657.442 1000.59 641.064C1075.07 557.869 1146.79 472.211 1217.93 386.407C1233.1 449.443 1234.33 515.032 1221.55 578.595C1199.05 685.321 1136.19 779.215 1046.09 840.643C972.018 891.262 883.62 916.672 793.985 913.113C715.745 913.113 640.549 884.125 574.19 843.832L572.886 842.673C571.094 840.784 569.157 839.039 567.091 837.455C513.558 799.256 469.047 749.782 436.692 692.517C523.943 595.715 617.867 505.149 717.774 421.482C730.114 410.845 743.239 401.155 757.038 392.495C763.124 392.495 767.036 398.437 771.527 401.916C796.303 426.7 820.934 451.774 845.71 476.414C850.201 394.524 847.014 312.489 847.448 230.019L842.522 223.787C774.715 221.613 706.762 223.787 639.68 222.917C625.036 221.27 610.21 222.802 596.213 227.41C626.205 253.644 654.168 282.777 681.262 311.909C588.824 408.535 499.863 508.445 414.379 611.641L408.294 613.236C402.639 604.04 398.94 593.778 397.427 583.088C377.993 493.111 388.158 399.259 426.405 315.533C464.212 232.406 528.175 163.94 608.529 120.591Z" fill="#BCBDC1"/>
<path d="M595.633 227.846C609.63 223.238 624.456 221.706 639.1 223.353C706.907 224.367 774.859 222.048 841.942 224.222L846.868 230.455C846.868 312.49 849.621 394.525 845.13 476.85C820.354 452.21 795.723 427.136 770.947 402.351C766.456 398.873 762.544 392.93 756.459 392.93C742.66 401.59 729.534 411.28 717.194 421.918C617.287 505.584 523.363 596.151 436.112 692.952C389.603 747.014 342.515 802.236 311.509 866.878C303.25 886.735 293.108 911.374 305.568 931.376C321.216 950.218 349.035 947.319 370.768 942.681C414.234 931.231 452.339 907.171 491.169 885.72C517.566 871.809 542.724 855.662 566.366 837.456C568.432 839.04 570.37 840.785 572.162 842.673C550.37 855.641 529.548 870.172 509.86 886.155C460.471 923.173 406.995 954.394 350.483 979.205C324.114 989.496 293.543 996.888 266.449 984.713C256.728 979.291 248.569 971.454 242.757 961.959C236.945 952.465 233.678 941.632 233.269 930.506C229.792 891.952 247.034 856.008 263.986 822.672C302.8 753.503 348.165 688.223 399.455 627.73C403.111 623.626 405.612 618.624 406.7 613.236L412.785 611.642C498.848 508.929 588.244 409.163 680.972 312.345C653.588 283.357 625.915 254.369 595.923 227.846H595.633Z" fill="#DB1920"/>
<path d="M420.174 1326.91C420.174 1244.73 494.066 1172.98 575.058 1170.37C628.232 1167.19 687.636 1179.51 723.134 1222.41C755.878 1260.67 762.253 1313.57 759.645 1362.13C724.293 1363.14 688.94 1363.29 653.587 1362.13C657.215 1346.42 656.862 1330.05 652.561 1314.51C648.26 1298.96 640.146 1284.74 628.957 1273.14C602.732 1244.15 547.385 1255.89 536.228 1293.43C527.101 1313.28 538.981 1334.88 552.891 1349.08C601.428 1399.38 665.758 1430.83 714.875 1480.54C747.704 1513.88 767.628 1557.8 771.091 1604.46C775.148 1650.55 765.875 1701.72 730.957 1734.91C696.04 1768.1 648.082 1778.39 602.297 1780.85C549.848 1783.9 491.168 1771.87 456.106 1729.55C417.421 1683.31 409.597 1618.96 414.958 1560.69C452.628 1560.69 490.444 1560.69 528.115 1560.69C528.135 1588.08 529.975 1615.44 533.621 1642.58C534.866 1650.8 537.742 1658.69 542.081 1665.78C546.419 1672.87 552.132 1679.02 558.882 1683.87C565.633 1688.72 573.285 1692.17 581.388 1694.01C589.491 1695.86 597.881 1696.06 606.064 1694.62C621.994 1690.59 635.944 1680.97 645.363 1667.5C654.781 1654.04 659.038 1637.63 657.355 1621.28C655.204 1601.27 645.703 1582.78 630.695 1569.39C572.74 1524.46 514.785 1478.08 459.003 1430.83C445.168 1417.52 434.497 1401.27 427.776 1383.29C421.056 1365.3 418.458 1346.03 420.174 1326.91Z" fill="#21201E"/>
<path d="M0 1185.02C72.4438 1185.02 144.888 1185.02 217.331 1185.02C238.79 1184.54 259.959 1190.03 278.48 1200.88C297.002 1211.74 312.147 1227.52 322.23 1246.47C338.313 1279.52 337.443 1317.78 333.531 1353.44C328.46 1393.15 309.915 1436.49 269.926 1451.85C311.798 1455.62 331.648 1499.24 338.457 1535.62C346.571 1582.58 351.063 1633.31 333.097 1678.82C321.529 1703.4 303.587 1724.44 281.138 1739.73C258.689 1755.02 232.554 1764.02 205.451 1765.79C137.064 1765.79 68.5318 1765.79 0 1765.79C0 1571.86 0 1377.98 0 1184.15V1185.02ZM113.882 1263.72C113.882 1315.17 113.882 1366.77 113.882 1418.22C135.729 1422.39 158.312 1420.17 178.936 1411.85C189.319 1407.08 198.304 1399.73 205.027 1390.49C211.751 1381.25 215.988 1370.44 217.331 1359.09C220.519 1332.42 219.939 1301.11 198.786 1280.97C177.632 1260.82 142.859 1259.08 114.316 1263.72H113.882ZM113.882 1507.8C113.882 1565.77 113.882 1622.15 113.882 1679.4C142.859 1685.34 175.894 1687.23 200.814 1668.24C225.735 1649.25 230.661 1617.22 230.516 1588.67C231.569 1563.32 223.091 1538.5 206.755 1519.1C196.745 1509.95 184.786 1503.2 171.783 1499.36C158.781 1495.52 145.075 1494.69 131.703 1496.93C124.893 1498.66 110.984 1496.06 114.316 1507.8H113.882Z" fill="#21201E"/>
<path d="M854.836 1185.02C893.473 1185.02 932.11 1185.02 970.746 1185.02C1015.56 1302.61 1060.53 1420.11 1105.64 1537.51C1108.57 1548.63 1113.48 1559.13 1120.13 1568.52C1120.7 1440.69 1120.7 1312.9 1120.13 1185.16C1154.61 1185.16 1188.95 1185.16 1223.14 1185.16C1223.14 1378.94 1223.14 1572.87 1223.14 1766.65C1183.15 1766.65 1143.16 1766.65 1103.17 1766.65C1056.95 1641.14 1011.02 1515.48 963.937 1389.81C963.937 1393.87 962.777 1402.28 962.343 1406.48C962.343 1526.3 962.343 1646.16 962.343 1766.07C926.266 1766.07 889.899 1766.07 853.967 1766.07C853.967 1572.15 853.967 1378.27 853.967 1184.44L854.836 1185.02Z" fill="#21201E"/>
<path d="M1320.51 1185.01C1359.48 1185.01 1398.31 1185.01 1437.29 1185.01C1437.29 1348.65 1436.13 1512.28 1437.29 1675.92C1501.76 1675.92 1566.24 1675.05 1630.71 1675.92C1630.71 1705.92 1630.71 1736.07 1630.71 1766.21C1527.41 1766.21 1424.1 1766.21 1320.8 1766.21C1320.8 1572.29 1320.8 1378.51 1320.8 1184.58L1320.51 1185.01Z" fill="#21201E"/>
</g>
</g>
<defs>
<clipPath id="clip0_6117_1690">
<rect width="1631" height="1781" fill="white"/>
</clipPath>
</defs>
</svg>
