<svg width="360" height="534" viewBox="0 0 360 534" fill="none" xmlns="http://www.w3.org/2000/svg">
<path d="M169.85 0.236582C174.732 0.0341682 179.624 -0.0333032 184.515 0.0148906C186.626 3.56195 190.202 5.81261 192.853 8.90665C195.624 12.0874 198.294 15.3502 200.949 18.6225C203.166 21.4226 204.94 24.5407 207.166 27.3408C213.383 36.541 218.617 46.4352 222.458 56.8643C227.76 70.8501 230.613 85.6842 231.644 100.586C232.357 106.345 232.044 112.157 232.193 117.94C232.126 143.069 228.531 168.004 227.451 193.079C226.555 212.318 227.273 231.856 232.203 250.56C237.032 269.418 246.454 286.975 258.927 301.872C263.172 306.735 267.418 311.636 272.262 315.925C268.917 317.786 265.756 319.974 262.353 321.723C260.445 319.564 258.329 317.612 256.305 315.569C250.888 310.022 246.035 303.973 241.08 298.016C231.663 285.578 223.673 272.001 217.928 257.471C210.448 238.849 206.704 218.882 205.542 198.891C203.899 171.86 206.795 144.861 208.284 117.892C209.2 99.6749 209.523 81.2359 206.145 63.2307C203.306 48.1219 197.629 33.4036 188.593 20.8924C184.698 15.249 180.173 10.0537 175.228 5.30657C173.46 3.58605 171.382 2.19325 169.85 0.236582ZM95.4628 20.0153C98.8557 18.5888 102.036 16.661 105.473 15.3502C107.559 16.5068 109.102 18.4442 110.788 20.1069C114.017 23.7889 117.391 27.3552 120.379 31.2397C126.784 38.7868 132.061 47.24 136.591 56.0257C141.223 64.5368 144.413 73.737 147.069 83.0287C152.572 103.463 153.315 124.851 152.066 145.878C150.481 173.729 145.743 201.33 144.996 229.239C144.437 251.452 146.775 274.199 155.57 294.802C161.122 308.754 169.773 321.26 179.604 332.533C182.482 335.786 185.715 338.711 188.588 341.974C182.906 342.075 177.224 342.311 171.537 342.249C169.166 338.981 166.081 336.297 163.498 333.203C158.563 328.282 154.341 322.725 150.076 317.236C146.553 312.031 142.832 306.942 139.883 301.376C130.047 284.305 123.68 265.235 121.333 245.668C120.408 238.743 119.912 231.76 119.757 224.776C119.16 194.303 125.15 164.279 128.871 134.162C131.348 113.391 132.808 92.0265 127.907 71.4863C123.883 53.992 114.461 37.9049 101.535 25.4998C99.5545 23.625 97.7135 21.5768 95.4628 20.0153ZM73.4238 359.011C75.6021 357.82 78.2287 358.48 80.3444 359.488C86.653 363.093 91.4194 368.832 95.2845 374.886C97.7279 379.194 99.3424 383.903 100.692 388.655C97.6845 388.838 94.658 388.852 91.6507 388.65C91.0001 385.358 90.0555 382.013 87.9783 379.315C84.4168 374.635 79.7034 370.847 74.378 368.36C72.6575 367.608 71.1153 366.1 70.9081 364.158C70.4599 362.114 71.7563 360.085 73.4238 359.011ZM198.063 358.866C200.27 357.492 203.07 358.268 205.181 359.449C211.075 362.847 215.692 368.11 219.331 373.782C222.179 378.322 223.813 383.469 225.427 388.544C222.372 388.486 219.316 388.577 216.261 388.486C215.509 383.536 213.162 378.818 209.417 375.464C207.027 372.958 204.193 370.919 201.195 369.218C199.451 368.312 197.422 367.637 196.308 365.907C194.569 363.671 195.513 360.037 198.063 358.866ZM105.545 392.105C107.15 392.163 108.731 391.855 110.331 391.792C124.475 391.734 138.62 391.845 152.765 391.734C162.24 391.874 171.72 391.912 181.195 391.768C225.051 391.821 268.907 391.792 312.769 391.816C315.424 391.71 317.516 394.361 317.024 396.92C316.846 398.809 315.188 400.563 313.251 400.616C309.781 400.804 306.287 400.452 302.821 400.78C302.884 416.53 302.865 432.284 302.831 448.034C304.561 448.217 306.436 447.962 308.002 448.892C310.012 449.923 310.494 452.627 309.699 454.588C308.961 456.396 306.85 457.022 305.062 457.07C299.747 457.046 294.436 457.09 289.12 457.051C287.664 457.022 285.992 456.743 285.072 455.485C283.491 453.668 283.607 450.294 285.775 448.974C287.419 448.005 289.375 448.179 291.202 448.135C291.231 439.379 291.308 430.617 291.163 421.86C287.255 422.631 283.655 425.012 281.592 428.448C279.394 431.928 277.9 436.106 274.377 438.521C272.58 439.099 270.392 438.675 269.062 437.282C267.447 435.74 267.187 433.296 267.466 431.195C267.915 428.323 269.934 426.12 271.544 423.826C268.026 420.997 263.293 419.687 258.825 420.381C256.449 420.901 254.589 422.631 253.061 424.434C251.085 427.161 250.738 430.786 251.611 433.981C253.057 439.538 257.91 443.432 262.835 445.904C264.666 447.012 266.758 447.634 268.512 448.868C270.961 451.172 270.753 456.251 267.327 457.538C265.712 458.092 263.837 458.111 262.213 457.567C257.842 455.374 253.384 453.172 249.746 449.841C244.941 445.861 240.95 440.473 239.909 434.203C239.374 429.904 239.731 425.407 241.461 421.402C244.497 414.573 251.837 410.014 259.278 410.077C265.958 409.759 272.715 412.308 277.592 416.872C279.452 415.431 281.216 413.821 283.38 412.838C285.756 411.508 288.546 411.445 291.197 411.296C291.24 407.754 291.265 404.212 291.216 400.674C275.597 400.872 259.968 400.785 244.343 400.799C238.497 400.881 232.661 400.476 226.815 400.664C226.719 405.359 226.868 410.057 226.748 414.752C226.704 416.246 226.116 417.952 224.651 418.612C222.858 419.576 220.757 419.335 218.8 419.373C213.171 419.397 207.542 419.306 201.923 419.421C199.494 419.484 197.706 421.378 196.395 423.219C194.231 427.079 194.569 431.812 195.691 435.942C197.171 441.21 202.101 445.046 207.431 445.798C210.926 446.237 214.68 446.318 217.904 444.685C221.634 443.032 224.854 440.246 226.94 436.738C229.152 436.063 231.885 435.807 233.789 437.383C235.904 439.33 236.362 443.022 234.348 445.21C229.967 450.521 223.393 453.813 216.651 454.907C209.938 455.649 202.877 454.882 196.877 451.61C190.612 448.314 185.638 442.333 184.178 435.335C183.32 431.629 183.127 427.73 183.889 423.995C185.079 418.043 189.894 413.074 195.663 411.368C201.624 410.11 207.764 411.137 213.779 410.626C215.229 410.703 215.836 409.228 215.856 408.004C215.947 405.556 215.87 403.113 215.88 400.669C202.193 400.544 188.501 400.717 174.809 400.693C174.756 416.506 174.819 432.323 174.785 448.135C176.959 448.145 179.821 447.918 181.147 450.034C182.506 451.668 182.11 454.241 180.751 455.76C179.701 456.68 178.289 457.09 176.906 457.061C171.595 457.056 166.284 457.09 160.973 457.051C159.006 457.099 156.915 456.121 156.182 454.213C155.782 452.526 155.801 450.357 157.435 449.316C158.958 447.793 161.252 448.294 163.185 448.015C163.093 439.35 163.127 430.675 163.165 422.005C159.508 422.337 156.274 424.814 154.139 427.701C151.691 431.321 150.25 435.827 146.529 438.429C143.073 439.865 139.3 436.631 139.473 433.075C138.987 429.34 141.82 426.626 143.551 423.682C139.941 420.988 135.281 419.566 130.798 420.342C127.435 421.369 124.557 424.12 123.618 427.547C122.745 430.906 123.473 434.559 125.194 437.528C127.96 441.909 132.452 444.887 137.122 446.94C138.654 447.658 140.418 448.29 141.338 449.817C142.89 452.068 142.355 455.442 140.264 457.172C138.172 458.126 135.579 458.184 133.526 457.085C129.425 455.114 125.415 452.878 121.921 449.938C117.931 446.444 114.35 442.236 112.711 437.109C110.962 431.166 111.608 424.482 114.716 419.099C119.184 412.101 128.114 408.679 136.182 410.26C140.741 410.992 145.204 412.906 148.654 416.009C149.045 416.299 149.604 417.007 150.115 416.472C151.638 415.412 152.934 414.048 154.601 413.204C157.132 411.696 160.12 411.31 163.016 411.267C163.238 407.754 163.117 404.226 163.088 400.708C143.873 400.64 124.654 400.626 105.439 400.814C107.502 405.566 109.116 410.795 108.181 416.024C107.343 420.728 104.003 424.848 99.5689 426.636C95.9881 428.357 91.9784 428.487 88.0988 428.829C87.8867 434.622 87.8964 441.147 91.8386 445.832C94.7495 448.926 99.2701 448.531 103.135 448.487C105.429 448.612 107.969 448.029 110.037 449.306C112.085 450.564 112.041 453.567 111.039 455.485C109.906 457.364 107.439 457.21 105.54 457.201C99.2846 457.046 92.4989 457.957 86.8409 454.67C82.1035 452.121 78.8793 447.297 77.8673 442.058C76.7877 437.711 76.9467 433.215 76.5853 428.786C74.6383 428.68 72.6286 428.988 70.7297 428.434C66.6911 426.887 67.2743 419.489 71.843 419.166C77.4576 418.92 83.0963 419.282 88.7109 418.968C90.6772 418.771 92.8122 418.458 94.3206 417.055C96.0219 415.474 97.3761 413.32 97.3424 410.925C97.5496 407.069 95.4821 403.537 92.8893 400.848C83.93 400.713 74.9708 400.872 66.0116 400.77C62.9754 400.867 61.4187 396.987 62.5898 394.525C63.1007 392.886 64.8212 391.99 66.4742 392.115C79.4962 392.144 92.523 392.076 105.545 392.105ZM120.475 473.047C124.273 470.656 129.796 471.336 132.721 474.801C134.962 477.268 135.787 480.575 136.866 483.64C141.411 496.797 145.97 509.949 150.553 523.096C151.233 525.245 151.768 527.689 150.703 529.809C148.828 533.901 142.399 534.595 139.719 530.956C137.642 528.176 137.049 524.638 136.119 521.371C128.76 521.221 121.391 521.231 114.032 521.371C112.798 524.865 112.157 528.783 109.632 531.641C107.082 534.383 102.133 533.588 100.277 530.421C98.4894 527.568 99.4292 524.026 100.591 521.13C105.482 507.688 110.335 494.238 115.203 480.791C116.21 477.818 117.757 474.791 120.475 473.047ZM125.179 486.565C122.847 493.958 120.263 501.269 118.027 508.691C122.716 508.744 127.415 508.782 132.105 508.705C129.729 501.346 127.767 493.842 125.179 486.565ZM161.156 471.943C163.459 471.264 166.168 471.659 167.946 473.346C169.845 475.688 170.091 478.859 170.139 481.76C170.134 494.932 170.125 508.103 170.139 521.274C170.115 524.257 170.25 527.433 168.901 530.18C167.151 533.877 161.618 534.258 158.785 531.65C156.765 529.164 156.679 525.771 156.611 522.72C156.63 508.739 156.582 494.753 156.635 480.772C156.698 477.437 157.479 473.066 161.156 471.943ZM183.918 472.902C186.723 470.796 191.547 471.249 193.282 474.521C194.395 476.406 194.583 478.637 194.694 480.777C194.732 493.78 194.622 506.782 194.747 519.78C198.916 519.91 203.089 519.746 207.258 519.843C209.6 519.963 212.077 520.349 214.029 521.751C216.714 524.012 216.526 528.951 213.47 530.826C211.157 532.166 208.395 532.349 205.783 532.373C200.482 532.325 195.181 532.368 189.879 532.364C187.648 532.224 185.18 532.137 183.354 530.686C181.469 529.115 181.363 526.441 181.209 524.185C181.195 509.876 181.2 495.572 181.209 481.269C181.286 478.338 181.614 474.989 183.918 472.902ZM298.6 473.36C301.274 470.738 306.624 471.018 308.47 474.493C309.771 476.666 309.814 479.297 309.901 481.765C309.891 494.435 309.872 507.11 309.911 519.79C313.757 519.881 317.602 519.819 321.453 519.809C323.906 519.857 326.475 520.113 328.663 521.313C332.143 523.457 331.849 529.496 328.089 531.183C323.545 533.072 318.518 532.137 313.742 532.349C309.188 532.147 304.465 532.961 300.05 531.559C297.144 530.667 296.532 527.308 296.407 524.682C296.363 510.209 296.407 495.736 296.378 481.269C296.469 478.531 296.744 475.529 298.6 473.36ZM57.2596 474.921C59.1632 473.384 61.7271 473.162 64.079 473.08C72.2479 473.273 81.0529 471.996 88.5181 476.131C93.1158 478.608 96.5183 483.293 97.1448 488.517C97.9352 493.678 96.6243 499.462 92.6049 503.033C90.1518 505.534 86.7253 506.609 83.424 507.467C87.2024 511.814 91.0145 516.132 94.7736 520.498C96.5809 522.72 98.3882 525.51 97.6701 528.513C96.9616 532.171 92.5182 534.383 89.1398 532.831C85.5686 531.135 83.4144 527.621 81.0143 524.638C76.7588 519.501 72.8985 514.045 68.5128 509.023C68.3442 514.074 68.5417 519.134 68.4116 524.185C68.3201 526.759 67.9972 529.564 66.2429 531.593C64.0694 533.713 60.4356 533.843 57.9198 532.258C56.5174 531.299 55.8475 529.626 55.3897 528.065C54.7198 524.715 54.98 521.289 54.9559 517.901C54.9415 506.011 54.9656 494.122 54.9366 482.232C55.0619 479.683 55.2547 476.772 57.2596 474.921ZM68.4454 485.625C68.4164 490.271 68.4695 494.922 68.455 499.573C72.3587 499.375 76.6094 500.368 80.1998 498.373C84.6047 496.151 84.4794 488.686 79.9878 486.628C76.3925 484.917 72.2768 485.837 68.4454 485.625ZM211.118 474.613C213.282 473.336 215.861 473.09 218.318 473.066C226.193 473.076 234.063 473.066 241.933 473.071C244.733 473.186 247.89 473.514 249.914 475.693C251.153 477.326 251.379 479.611 250.753 481.543C250.117 483.331 248.391 484.541 246.599 484.999C243.355 485.89 239.962 485.553 236.647 485.625C236.651 498.151 236.651 510.676 236.647 523.207C236.584 526.007 236.41 529.048 234.69 531.395C232.728 533.366 229.552 533.805 227.017 532.773C225.34 532.07 224.275 530.421 223.774 528.739C222.902 525.684 223.162 522.479 223.147 519.346C223.138 508.103 223.167 496.864 223.123 485.62C219.244 485.5 215.114 486.064 211.489 484.334C207.884 482.575 207.716 476.676 211.118 474.613ZM258.531 473.88C261.862 472.685 265.457 473.162 268.922 473.071C272.956 473.138 276.994 472.955 281.023 473.162C283.404 473.423 286.195 473.861 287.674 475.982C289.269 478.285 288.98 481.861 286.792 483.698C284.86 485.134 282.368 485.466 280.031 485.587C276.006 485.669 271.987 485.582 267.968 485.62C267.939 488.657 267.948 491.693 267.992 494.729C271.524 494.811 275.057 494.681 278.585 494.792C281.221 494.932 284.151 495.351 286.05 497.375C287.65 499.447 287.636 502.599 286.055 504.686C284.334 506.643 281.554 507.067 279.086 507.245C275.39 507.409 271.688 507.24 267.992 507.337C267.939 511.481 267.953 515.631 267.997 519.78C272.002 519.906 276.011 519.79 280.016 519.824C282.397 519.915 284.917 520.19 286.961 521.53C289.901 523.573 289.891 528.566 286.995 530.643C284.648 532.156 281.751 532.354 279.038 532.378C273.568 532.32 268.098 532.378 262.628 532.34C260.078 532.205 256.975 531.862 255.534 529.438C254.652 527.67 254.507 525.626 254.454 523.684C254.459 510.672 254.459 497.659 254.454 484.647C254.449 482.189 254.382 479.654 255.245 477.312C255.755 475.77 256.951 474.377 258.531 473.88Z" fill="#1F1A18"/>
<path d="M184.515 0.015625C186.732 0.0686382 188.958 0.0397219 191.161 0.377078C215.253 2.73857 238.959 9.58209 260.425 20.8209C264.786 22.9655 269.143 25.1487 273.264 27.7415C279.992 32.0115 286.719 36.3297 292.917 41.3611C296.339 44.0166 299.77 46.6865 302.884 49.7131C305.886 52.3204 308.807 55.0288 311.515 57.9494C313.279 59.8771 315.366 61.5061 316.947 63.6073C320.691 68.0653 324.571 72.422 328.017 77.1257C340.19 93.555 349.448 112.22 354.523 132.057C356.523 140.062 357.853 148.221 358.687 156.424C358.909 159.561 358.774 162.713 359.044 165.846V169.692C358.692 173.668 359.034 177.687 358.393 181.644C356.335 202.704 349.858 223.23 340.041 241.948C336.248 249.77 331.511 257.081 326.682 264.291C323.511 269.8 319.25 274.537 315.409 279.569C310.643 285.207 306.199 291.188 300.72 296.171C302.681 291.516 305.274 287.164 307.332 282.552C313.906 268.677 319.838 254.407 323.511 239.462C327.607 223.269 329.101 206.006 324.807 189.692C321.183 175.957 313.419 163.32 302.686 154.009C301.139 152.506 299.708 150.862 297.949 149.595C294.421 147.021 291.172 144.062 287.37 141.884C276.83 135.137 265.471 129.729 253.755 125.373C246.714 122.481 239.374 120.433 232.193 117.941C232.044 112.158 232.357 106.346 231.643 100.586C230.612 85.6849 227.759 70.8509 222.458 56.865C218.617 46.4359 213.383 36.5417 207.166 27.3415C204.939 24.5414 203.166 21.4233 200.949 18.6233C198.293 15.3509 195.623 12.0882 192.852 8.90738C190.202 5.81334 186.626 3.56269 184.515 0.015625ZM56.0928 48.2335C56.2422 48.3251 56.3964 48.4167 56.5458 48.5082C56.0687 49.0384 55.5578 49.5444 55.206 50.1709C49.9047 60.6772 44.6371 71.2412 40.584 82.3065C36.2514 93.1839 32.9887 104.49 30.9067 116.013C29.9476 121.888 29.3211 127.835 29.5042 133.797C29.0946 147.532 32.632 161.364 39.6876 173.161C42.6901 178.603 46.8588 183.268 51.0469 187.817C54.9843 191.437 58.7338 195.326 63.2447 198.256C69.6931 203.162 76.7197 207.235 83.9825 210.796C95.4141 216.608 107.477 221.124 119.757 224.777C119.911 231.76 120.407 238.744 121.333 245.669C123.68 265.236 130.046 284.306 139.883 301.376C142.832 306.943 146.553 312.032 150.075 317.237C154.341 322.726 158.562 328.283 163.497 333.203C166.081 336.297 169.165 338.982 171.536 342.249C163.541 342.375 155.497 342.327 147.603 340.914C128.253 338.047 109.569 331.295 92.5176 321.777C87.3313 319.087 82.3591 316.003 77.645 312.552C75.7221 311.256 73.5727 310.292 71.8521 308.711C68.8689 306.041 65.505 303.844 62.5363 301.159C58.2181 297.285 53.5385 293.776 49.6974 289.4C47.9528 287.453 45.9239 285.781 44.2901 283.737C42.4925 281.52 40.5503 279.434 38.7093 277.26C35.461 272.961 31.8609 268.923 28.9211 264.397C22.3378 254.542 16.4726 244.17 11.9039 233.221C4.9977 216.415 0.727726 198.458 0 180.28V162.082C0.987973 158.607 0.93014 154.959 1.63859 151.431C4.98324 129.498 12.9834 108.36 24.5258 89.444C30.0537 79.9836 36.3815 70.9858 43.413 62.5904C47.3215 57.5446 51.471 52.6481 56.0928 48.2335Z" fill="#0093DD"/>
</svg>
