<svg width="813" height="794" viewBox="0 0 813 794" fill="none" xmlns="http://www.w3.org/2000/svg">
<g clip-path="url(#clip0_6118_1716)">
<rect width="813" height="794" fill="white"/>
<path fill-rule="evenodd" clip-rule="evenodd" d="M404.738 59.6003C215.339 60.2258 62.0362 211.624 62.4295 396.147C62.823 581.199 217.116 731.783 406.498 731.493C595.511 731.204 749.461 580.272 749.35 395.361C748.987 208.529 593.278 58.9778 404.738 59.6003ZM811.737 395.66C812.524 612.021 633.287 793.69 406.298 794C182.453 794.308 -0.01911 616.724 1.50112e-06 397C0.0175204 177.365 182.344 0.213745 405.887 4.10659e-08C629.069 -0.00312031 810.943 177.816 811.737 395.66Z" fill="black"/>
<path fill-rule="evenodd" clip-rule="evenodd" d="M335.285 292.495C335.463 303.111 338.437 312.937 343.517 322.312C360.566 353.777 377.544 385.278 394.557 416.762C414.787 454.201 435.044 491.627 455.254 529.077C464.32 545.876 478.286 557.111 497.562 562.232C537.703 572.9 578.107 546.598 582.036 507.427C583.318 494.652 580.437 482.793 574.29 471.465C559.221 443.694 544.226 415.885 529.21 388.087C507.142 347.242 485.025 306.423 463.045 265.533C455.072 250.703 443.303 239.853 426.833 233.77C387.2 219.132 343.464 242.538 336.525 282.081C335.922 285.523 335.69 289.023 335.285 292.495Z" fill="black"/>
<path fill-rule="evenodd" clip-rule="evenodd" d="M229.404 476.335C229.395 515.264 261.263 547.086 300.143 546.975C338.849 546.865 370.558 515.115 370.577 476.449C370.594 437.569 338.709 405.747 299.803 405.82C261.091 405.89 229.414 437.624 229.404 476.335Z" fill="black"/>
</g>
<defs>
<clipPath id="clip0_6118_1716">
<rect width="813" height="794" fill="white"/>
</clipPath>
</defs>
</svg>
