<svg width="2500" height="692" viewBox="0 0 2500 692" fill="none" xmlns="http://www.w3.org/2000/svg">
<path d="M2320.17 267.099C2364.23 252.228 2413.25 242.589 2458.97 257.185C2485.13 265.998 2499.17 293.812 2498.9 320.25C2499.45 374.502 2500 428.754 2498.07 483.006C2482.38 483.006 2466.68 483.006 2451.26 482.73C2449.33 474.193 2447.68 465.656 2445.75 457.119C2416.56 480.252 2377.73 496.775 2340.27 483.006C2297.86 466.207 2292.63 402.592 2324.58 373.125C2356.8 343.382 2403.06 343.107 2443.55 334.019C2441.07 320.25 2438.86 302.625 2422.62 298.769C2390.12 289.13 2357.35 303.726 2326.23 312.539C2323.75 297.668 2321.82 282.521 2320.17 267.099ZM2371.94 392.953C2356.8 405.07 2355.97 434.537 2375.8 442.248C2399.76 451.336 2422.89 435.088 2441.62 422.144C2441.62 404.519 2441.62 386.894 2441.34 369.269C2417.66 373.4 2390.95 376.154 2371.94 392.953ZM1098.54 158.595C1124.7 156.943 1151.13 156.943 1177.57 157.493C1208.69 236.531 1228.8 319.974 1262.39 398.185C1290.21 318.322 1315.82 237.908 1343.08 158.044C1369.24 157.218 1395.41 157.218 1421.57 158.044C1429.28 266.548 1440.3 375.052 1444.98 483.556H1384.39C1377.23 406.172 1373.93 328.236 1366.22 250.851C1335.1 326.859 1313.06 406.722 1284.7 483.832C1265.7 484.658 1246.7 484.383 1227.69 483.556C1200.43 406.447 1178.4 327.134 1145.9 251.953C1139.29 329.062 1136.26 406.722 1129.1 483.832C1110.93 483.832 1092.75 483.832 1074.58 483.556C1079.81 374.777 1091.1 266.824 1098.54 158.595ZM1998.24 183.105C2016.41 179.249 2035.14 176.771 2053.59 175.119C2054.14 201.281 2054.14 227.443 2054.14 253.88C2069.29 254.156 2084.71 254.982 2100.13 255.257C2103.16 270.128 2105.64 285.275 2107.84 300.421C2089.94 301.248 2072.32 302.074 2054.69 302.349C2054.97 342.005 2051.94 381.937 2056.07 421.593C2061.85 440.871 2086.91 435.363 2102.06 438.943C2105.09 454.09 2107.29 469.512 2108.94 484.933C2080.03 487.963 2047.53 491.818 2021.65 475.295C2004.57 464.004 1999.34 442.799 1998.51 423.797C1996.31 383.59 1999.06 343.382 1997.41 303.175C1986.95 302.074 1976.21 300.972 1965.74 299.871C1966.02 285.275 1966.57 270.955 1967.12 256.359C1977.31 255.533 1987.5 254.431 1997.96 253.605C1997.41 229.921 1997.69 206.513 1998.24 183.105ZM1479.4 259.939C1498.95 256.083 1518.78 253.88 1538.61 252.779C1556.51 305.103 1572.21 358.254 1590.66 410.302C1609.39 359.631 1623.98 307.306 1640.5 255.808C1659.51 254.707 1678.23 254.156 1697.24 254.431C1676.03 323.83 1648.49 391.025 1625.08 459.873C1612.69 491.543 1604.98 527.344 1579.09 551.303C1557.89 570.58 1527.32 571.406 1500.61 566.725C1498.13 551.578 1495.65 536.432 1493.17 521.56C1506.39 521.285 1519.61 522.111 1532.55 519.908C1550.18 513.849 1565.6 492.644 1557.61 473.918C1532 402.316 1503.91 331.816 1479.4 259.939ZM1734.14 254.707C1750.11 254.707 1766.08 254.982 1781.78 255.257C1783.98 265.171 1785.91 275.085 1788.11 285C1812.62 264.896 1841.82 245.343 1875.41 250.851C1904.6 251.953 1927.74 278.39 1928.29 306.755C1929.67 365.414 1928.84 424.347 1928.56 483.006C1910.39 483.281 1892.21 483.556 1874.31 483.832C1869.08 430.406 1875.41 376.705 1871.56 323.554C1869.08 301.523 1841.82 296.015 1824.74 304.828C1810.15 311.988 1790.59 322.177 1791.69 341.179C1790.59 388.547 1792.25 435.914 1791.42 483.281C1772.14 483.557 1753.14 483.556 1733.86 483.006C1734.14 406.722 1733.86 330.714 1734.14 254.707ZM2151.63 254.707C2167.88 254.707 2184.13 254.707 2200.37 254.982C2202.3 268.201 2204.51 281.419 2206.71 294.914C2226.81 273.984 2248.84 252.228 2279.69 249.749C2284.64 267.925 2287.4 286.652 2287.95 305.378C2257.66 312.263 2223.23 324.931 2209.74 354.949C2206.98 397.634 2210.29 440.596 2208.64 483.281C2189.63 483.557 2170.63 483.556 2151.63 483.006V254.707Z" fill="#231F20"/>
<path d="M210.95 69.3723C230.227 46.2394 251.157 21.4542 280.899 12.0909C314.222 3.27842 342.587 29.4406 363.517 51.7472C418.32 114.536 458.251 188.617 495.429 262.972C515.533 217.808 540.593 174.847 566.48 132.988C591.265 94.9836 616.876 56.4289 652.677 27.5128C669.201 14.8448 692.058 2.72764 712.713 13.4679C741.904 28.8898 763.935 54.5012 784.59 79.5617C828.377 136.017 862.801 199.081 893.92 263.248C932.75 345.865 966.348 432.062 980.393 522.666C984.524 564.525 988.379 611.617 963.043 648.244C943.49 676.885 906.313 686.799 873.266 681.016C844.625 670.826 819.564 652.1 800.838 628.416C756.224 573.338 729.787 506.693 705.277 440.875C701.697 429.308 697.291 418.017 693.435 406.726C690.957 418.293 687.652 429.859 683.797 441.15C658.736 507.795 632.023 575.816 586.033 631.17C567.582 653.752 543.347 671.102 515.808 681.016C476.152 689.278 437.872 668.623 412.261 639.432C362.14 584.904 334.325 514.404 308.714 445.832C303.757 431.787 298.8 417.742 295.22 403.146C291.089 417.742 286.132 432.338 280.899 446.383C257.767 509.447 231.329 573.063 189.47 626.213C166.612 653.477 136.87 680.19 99.6921 682.117C65.2682 685.147 31.9459 662.84 18.7271 631.445C0.000552966 587.934 5.50837 538.914 13.7701 493.475C31.6705 406.726 64.7175 323.834 103.823 244.796C133.841 183.384 167.989 123.349 210.95 69.3723ZM230.503 88.6496C188.093 142.626 154.22 203.212 123.927 264.625C86.198 344.213 52.0495 427.105 37.4537 514.404C32.2213 538.639 32.2213 563.699 34.6998 588.209C37.7291 611.342 46.817 636.127 68.0221 647.969C88.4011 659.811 114.563 655.129 133.014 641.91C166.061 618.777 188.093 583.527 207.095 548.553C247.852 470.617 274.565 386.072 294.669 300.976C316.149 388.275 343.138 475.299 386.099 554.887C403.173 584.354 421.073 614.922 448.888 635.301C462.933 647.969 481.384 656.781 500.661 654.578C522.142 652.375 540.042 638.606 555.189 624.01C580.8 597.572 599.527 565.076 616.05 532.58C651.3 460.428 675.535 383.318 694.537 305.658C718.22 399.842 747.687 494.301 798.359 578.02C817.361 607.211 839.668 637.504 872.99 651.274C896.398 660.912 926.141 652.375 939.635 630.619C955.883 604.457 957.26 571.961 954.781 542.219C951.477 494.025 937.432 447.209 922.01 401.494C891.166 313.369 850.684 228.548 801.389 149.511C778.531 114.261 754.847 78.7356 722.902 50.6457C711.611 40.7316 694.812 31.0929 680.492 41.007C652.953 57.8058 633.951 84.5188 614.673 109.855C567.857 176.499 529.302 249.203 497.632 324.109C496.806 325.211 494.603 327.414 493.777 328.515C491.023 319.978 488.269 311.716 484.689 303.455C452.193 233.23 416.116 164.107 370.126 101.868C354.429 81.2141 338.181 60.2844 316.976 45.1379C307.888 38.8039 295.771 33.0207 285.03 38.5285C262.173 48.9933 246.2 69.6477 230.503 88.6496Z" fill="#FEFEFE"/>
<path d="M230.502 88.6472C246.2 69.6452 262.448 49.2663 285.305 38.8014C296.045 33.2936 308.163 38.8014 317.25 45.4108C338.456 60.5573 354.704 81.7624 370.401 102.141C416.116 164.655 452.467 233.503 484.964 303.728C488.819 311.714 491.573 320.251 494.051 328.788C451.641 256.911 413.087 182.28 360.211 117.288C344.79 99.1121 328.541 79.8347 306.235 70.196C293.567 64.6882 280.623 71.8484 270.159 78.7331C232.155 110.679 204.065 152.263 177.627 193.571C115.389 292.712 68.5723 401.491 37.7285 514.402C52.3242 427.103 86.1973 344.21 124.201 264.622C154.219 203.21 188.092 142.624 230.502 88.6472ZM680.491 40.7292C694.812 30.8151 711.61 40.4538 722.901 50.3679C754.847 78.1824 778.53 113.708 801.388 149.233C850.683 228.546 891.441 313.091 922.009 401.216C937.431 446.931 951.476 493.472 954.781 541.941C949.548 508.343 940.736 475.296 929.445 443.351C900.253 355.501 859.771 271.231 810.751 192.745C789.271 159.147 766.413 125.825 738.874 97.1843C727.858 86.1687 716.017 74.6023 700.87 69.6452C689.028 66.0651 678.288 74.3269 668.649 80.1101C643.038 100.214 623.21 126.1 604.208 152.263C570.61 199.905 540.593 250.026 513.604 301.524C509.198 309.786 503.69 317.497 497.632 324.382C529.302 249.2 567.856 176.772 614.673 110.128C633.95 84.5163 653.228 57.528 680.491 40.7292Z" fill="#9E242E"/>
<path d="M270.159 78.7294C280.624 71.8446 293.567 64.6844 306.235 70.1923C328.542 79.8309 344.79 99.1083 360.212 117.284C413.087 182.276 451.642 256.907 493.776 328.784C467.339 403.966 435.944 479.423 434.016 560.113C432.64 586 439.524 611.336 449.163 635.295C421.349 614.916 403.173 584.347 386.374 554.881C343.688 475.293 316.424 388.544 294.944 300.97C279.522 228.267 265.202 153.911 270.159 78.7294Z" fill="#FF912E"/>
<path d="M668.926 79.8345C678.564 74.0512 689.305 65.7895 701.146 69.3696C716.293 74.3266 728.135 85.8931 739.15 96.9087C766.689 125.825 789.547 158.872 811.027 192.469C860.047 270.956 900.53 355.225 929.721 443.075C941.287 475.021 949.824 508.068 955.057 541.665C957.535 571.407 956.158 603.904 939.91 630.066C926.416 652.097 896.949 660.359 873.266 650.72C839.943 637.226 817.637 606.658 798.635 577.466C747.963 494.023 718.496 399.563 694.812 305.104C678.84 231.575 663.969 156.118 668.926 79.8345ZM177.628 193.571C204.066 152.262 232.155 110.678 270.159 78.7329C265.202 153.639 279.523 228.27 295.22 300.973C275.116 386.345 248.128 470.614 207.646 548.55C188.644 583.525 166.612 618.775 133.565 641.908C115.114 655.126 88.952 659.808 68.5731 647.966C47.368 636.124 38.2801 611.064 35.2508 588.206C32.4969 563.697 32.7723 538.636 38.0047 514.402C68.2977 401.491 115.39 292.712 177.628 193.571Z" fill="#F41CB2"/>
<path d="M604.484 151.988C623.486 125.826 643.314 99.9395 668.926 79.8359C663.969 155.844 678.84 231.576 695.088 305.381C676.086 383.317 651.576 460.151 616.601 532.303C600.078 565.075 581.351 597.296 555.74 623.733C540.869 638.329 522.693 652.099 501.213 654.302C481.935 656.505 463.484 647.692 449.439 635.024C439.8 611.065 432.916 585.729 434.293 559.843C436.22 479.153 467.615 403.42 494.052 328.514C494.879 327.413 497.082 325.209 497.908 324.108C503.967 316.948 509.474 309.512 513.881 301.25C541.144 249.752 570.887 199.631 604.484 151.988Z" fill="#F25511"/>
</svg>
