<svg width="1708" height="2500" viewBox="0 0 1708 2500" fill="none" xmlns="http://www.w3.org/2000/svg">
<path d="M855.655 2499.93C854.034 2498.78 852.279 2497.23 850.388 2495.68C820.276 2458.34 633.998 2225.01 444.209 1925.7C387.225 1830.37 350.294 1755.97 357.451 1736.73C376.018 1686.7 706.916 1659.28 808.798 1704.66C839.788 1718.43 838.978 1736.59 838.978 1747.26C838.978 1793.03 836.75 1915.92 836.75 1915.92C836.75 1941.3 857.343 1961.89 882.796 1961.83C908.25 1961.83 928.775 1941.1 928.707 1915.64L928.235 1609.59H928.167C928.167 1582.99 899.135 1576.37 893.734 1575.29C840.531 1574.96 732.572 1574.69 616.579 1574.69C360.691 1574.69 303.437 1585.22 260.092 1556.73C165.906 1495.15 11.9012 1080.06 8.32287 846.454C3.25914 516.974 198.382 231.717 473.309 90.4046C588.087 32.6105 717.718 0 854.777 0C1289.85 0 1648.23 328.4 1695.9 750.986C1695.9 751.323 1695.9 751.796 1695.96 752.134C1704.74 854.286 1141.72 875.959 1030.39 846.252C1013.31 841.728 1008.98 824.174 1008.98 816.679C1008.92 739.035 1008.38 520.417 1008.38 520.417C1008.31 494.963 987.649 474.438 962.196 474.438C936.809 474.438 916.217 495.166 916.217 520.62L917.23 923.288C918.04 948.674 939.308 955.493 945.182 956.708C1008.51 956.708 1156.58 956.641 1294.51 956.641C1480.92 956.641 1559.24 978.246 1611.37 1017.88C1646 1044.28 1659.37 1094.85 1647.69 1160.61C1543.11 1745.3 880.771 2469.82 855.857 2500L855.655 2499.93Z" fill="#FC8019"/>
</svg>
