<svg width="924" height="209" viewBox="0 0 924 209" fill="none" xmlns="http://www.w3.org/2000/svg">
<path d="M54.7246 165.199H74.3428V207.877H81.2261V165.199H100.844V159.692H54.7249L54.7246 165.199ZM126.657 172.082C120.462 172.082 115.299 174.492 111.858 179.654V159.692H105.318V207.877H111.858V192.044C111.858 181.031 118.741 176.901 125.625 176.901C131.82 176.901 136.294 180.343 136.294 188.947V208.221H142.834V188.602C142.834 177.245 136.294 172.082 126.657 172.082ZM159.01 186.882C160.042 179.31 164.861 175.868 171.744 175.868C177.595 175.868 183.446 178.966 183.79 186.882H159.01ZM171.744 171.394C159.354 171.394 151.782 177.933 151.782 190.668C151.782 201.681 159.01 208.565 171.4 208.565C180.004 208.565 188.265 205.467 189.641 196.863H182.414C181.037 201.681 176.907 203.746 171.056 203.746C163.14 203.746 159.01 198.584 158.321 191.7H190.33V189.635C190.674 177.933 184.135 171.394 171.744 171.394ZM435.038 178.966L434.694 172.082H428.154C428.498 174.836 428.498 177.245 428.498 179.998V206.5H435.038V189.98C435.038 181.375 438.824 177.245 447.084 177.245C448.461 177.245 449.838 177.245 452.247 177.934V171.738C451.214 171.738 450.526 171.394 448.117 171.394C441.922 171.394 437.791 174.836 435.038 178.966ZM637.757 178.966L637.413 172.083H630.874C631.218 174.836 631.218 177.245 631.218 179.998V206.5H638.101V189.98C638.101 181.375 641.887 177.245 650.147 177.245C651.524 177.245 652.901 177.245 655.31 177.934V171.738C654.277 171.738 653.589 171.394 651.18 171.394C644.64 171.394 640.166 174.836 637.757 178.966ZM358.631 200.993L346.585 171.394H337.981L326.279 200.993L315.265 171.394H307.693L321.46 205.812H330.409L341.766 176.557L353.813 205.812H362.417L375.84 171.394H368.956L358.631 200.993ZM239.202 184.129H225.091V164.855H238.858C248.151 164.855 251.249 168.297 251.249 173.803C251.249 180.687 248.151 184.129 239.202 184.129ZM238.858 159.692H218.208V207.877H225.091V189.635H239.891C252.625 189.635 258.82 183.096 258.82 174.147C258.82 165.887 253.658 159.692 238.858 159.692ZM282.224 203.746C272.932 203.746 268.113 197.551 268.113 189.979C268.113 181.719 272.932 176.212 282.224 176.212C291.861 176.212 296.68 182.063 296.68 189.979C296.68 197.551 291.861 203.746 282.224 203.746ZM282.224 171.394C268.457 171.394 260.886 178.966 260.886 189.979C260.886 201.681 268.457 208.565 282.224 208.565C296.335 208.565 303.563 202.026 303.563 189.979C303.907 178.277 296.68 171.394 282.224 171.394ZM388.918 186.882C389.951 179.31 394.77 175.868 401.653 175.868C407.504 175.868 413.355 178.966 413.355 186.882H388.918ZM401.653 171.394C389.263 171.394 381.691 177.933 381.691 190.668C381.691 201.681 388.918 208.565 401.309 208.565C409.913 208.565 418.174 205.467 419.55 196.863H412.666C411.29 201.681 407.16 203.746 401.309 203.746C393.393 203.746 389.263 198.584 388.574 191.7H420.582V189.635C420.582 177.933 413.699 171.394 401.653 171.394ZM669.077 186.882C670.109 179.31 674.928 175.868 681.811 175.868C687.662 175.868 693.513 178.966 693.513 186.882H669.077ZM682.155 171.394C669.765 171.394 662.193 177.933 662.193 190.668C662.193 201.681 669.421 208.565 681.811 208.565C690.416 208.565 698.676 205.467 700.053 196.863H693.169C691.792 201.681 687.662 203.746 681.811 203.746C673.895 203.746 669.765 198.584 669.077 191.7H701.085V189.635C700.741 177.933 694.202 171.394 682.155 171.394ZM526.588 168.985V170.361H517.984V175.18H526.588V205.123H533.472V175.18H547.239V170.361H533.472V167.608C533.472 162.101 535.881 160.38 541.044 160.38C542.765 160.38 545.174 160.724 548.271 161.413V156.594C545.862 156.25 543.109 155.906 539.667 155.906C529.686 155.562 526.588 161.069 526.588 168.985ZM492.859 203.746C483.567 203.746 478.404 197.551 478.404 189.979C478.404 181.719 483.567 176.212 492.859 176.212C502.496 176.212 507.314 182.063 507.314 189.979C507.314 197.551 502.152 203.746 492.859 203.746ZM492.859 171.394C479.092 171.394 471.521 178.966 471.521 189.979C471.521 201.681 479.092 208.565 492.859 208.565C506.626 208.565 514.198 202.026 514.198 189.979C514.198 178.277 506.97 171.394 492.859 171.394ZM800.896 171.394C793.668 171.394 789.194 176.212 787.473 179.998C785.408 174.147 780.245 171.394 775.083 171.394C770.264 171.394 765.446 173.803 762.348 178.966L762.004 172.77H755.809C756.153 175.524 756.153 177.933 756.153 180.686V207.188H763.037V190.668C763.037 180.342 768.887 176.212 774.05 176.212C779.557 176.212 782.31 179.998 782.31 189.635V207.188H788.85V190.668C788.85 178.622 796.422 176.212 799.863 176.212C806.746 176.212 808.468 180.686 808.468 189.979V207.188H815.351V187.226C815.007 175.868 809.156 171.394 800.896 171.394ZM849.08 188.258L837.722 185.849C832.56 184.817 830.495 183.784 830.495 181.031C830.495 177.589 834.625 175.868 840.476 175.868C845.294 175.868 849.769 177.245 850.113 181.375H856.996C856.996 173.115 848.048 171.05 840.476 171.05C831.527 171.05 823.611 174.147 823.611 181.719C823.611 187.226 827.742 189.291 832.904 190.668L843.574 193.077C847.359 193.765 851.145 194.798 851.145 197.895C851.145 201.681 847.359 203.746 839.788 203.746C833.592 203.746 829.462 202.026 828.774 197.207H821.546C822.235 205.123 829.462 208.221 839.099 208.221C852.178 208.221 858.029 204.435 858.029 197.207C858.373 192.044 855.275 189.635 849.08 188.258ZM596.112 202.714H583.377V164.855H595.079C612.288 164.855 616.418 171.394 616.418 183.784C616.418 193.766 612.632 202.714 596.112 202.714ZM596.8 159.692H576.494V207.877H597.144C614.009 207.877 623.646 199.272 623.646 183.785C623.646 168.297 615.386 159.692 596.8 159.692ZM738.256 191.7C738.256 199.961 733.438 203.746 725.177 203.746C718.638 203.746 715.885 200.993 715.885 197.207C715.885 189.635 729.307 190.324 734.47 190.324H737.912V191.7H738.256ZM744.795 183.44C744.795 175.18 737.912 171.394 728.275 171.394C720.703 171.394 712.099 173.459 711.41 181.719H718.638C718.982 178.278 722.424 175.868 728.619 175.868C734.47 175.868 738.6 177.934 738.6 184.129V185.505H734.814C726.898 185.505 709.345 184.817 709.345 196.863C709.345 203.746 715.196 208.221 723.801 208.221C730.684 208.221 734.814 207.533 738.6 202.37L738.944 207.188H745.139C744.795 205.123 744.795 203.058 744.795 200.649V183.44Z" fill="#020303"/>
<path d="M106.35 17.8926L120.461 19.6133C126.656 20.3019 127.345 25.4643 127.345 28.9062V45.4265H62.984V28.9062C62.984 25.4643 63.6723 20.3019 69.8674 19.6133L83.9788 17.8926V3.78125H0V17.8926L14.1111 19.6133C20.3062 20.3019 20.9948 25.4643 20.9948 28.9062V83.2859C20.9948 86.7274 20.3065 91.8902 14.1111 92.5782L0 94.6437V108.755H83.6345V94.6437L69.5234 92.9228C63.3283 92.2345 62.6397 87.072 62.6397 83.6305V67.1093H127.001V83.6296C127.001 87.0714 126.312 92.2339 120.117 92.9222L106.006 94.6431V108.754H189.64V94.6431L175.529 92.9222C169.334 92.2339 168.646 87.0714 168.646 83.6299V28.9062C168.646 25.4643 169.334 20.3019 175.529 19.6133L189.64 17.8926V3.78125H106.006V17.8926H106.35ZM658.062 88.7923H622.956V24.0877H658.062C678.713 24.0877 685.596 34.0686 685.596 56.44C685.596 78.8114 678.713 88.7923 658.062 88.7923ZM665.634 3.78125H562.382V17.8926L574.772 19.2692C579.246 19.9576 582 21.6785 582 27.8736V83.6299C582 87.0717 581.311 92.2342 575.116 92.9225L561.005 94.6434V108.755H665.634C703.149 108.755 733.781 93.6111 733.781 56.096C733.781 18.9249 702.805 3.78125 665.634 3.78125Z" fill="#CC0000"/>
<path d="M791.258 58.1655L811.22 25.8132L832.214 58.1655H791.258ZM908.621 93.2714C902.082 92.5831 900.017 88.1086 897.952 85.0111L849.768 11.0135C846.326 5.85108 843.917 4.13015 838.754 4.13015H759.594V18.2412L778.523 20.3065C781.277 20.6505 784.719 24.0923 781.965 29.2548L746.515 87.4203C745.138 89.8295 743.417 92.5831 739.287 92.9271L725.177 94.648V108.759H791.946V94.648L780.589 93.6157C775.77 92.9271 773.017 89.4855 775.426 85.6994L780.933 77.0951H844.949L849.768 84.3228C853.898 90.8622 848.735 93.2714 844.261 93.9597L832.559 95.3363V109.448H923.077V94.648L908.621 93.2714ZM486.663 17.8972L500.774 19.6178C506.969 20.3065 507.657 25.4689 507.657 28.9108V81.5692L452.245 8.26031C449.836 4.81846 447.771 3.78585 441.576 3.78585H369.988V17.8972L384.099 19.6178C390.294 20.3065 390.982 25.4689 390.982 28.9108V83.2905C390.982 86.732 390.294 91.8948 384.099 92.5828L369.988 94.304V108.415H436.758V94.648L422.646 92.9271C416.451 92.2388 415.763 87.0763 415.763 83.6348V30.9754L471.175 104.285C473.584 107.726 475.994 108.759 481.844 108.759H532.438V28.9108C532.438 25.4689 533.126 20.3065 539.322 19.6178L553.433 17.8972V3.78585H486.663V17.8972ZM280.158 92.2388C253.657 92.2388 242.987 81.2252 242.987 56.1003C242.987 30.9757 254.001 19.9618 280.158 19.9618C306.66 19.9618 317.329 30.9757 317.329 56.1003C317.673 80.8812 306.66 92.2388 280.158 92.2388ZM280.158 0C212.356 0 194.803 29.9431 194.803 56.1006C194.803 82.2575 212.356 112.201 280.158 112.201C347.96 112.201 365.513 82.2578 365.513 56.1006C365.858 29.9431 348.305 0 280.158 0Z" fill="#CC0000"/>
</svg>
