<svg width="2489" height="445" viewBox="0 0 2489 445" fill="none" xmlns="http://www.w3.org/2000/svg">
<path fill-rule="evenodd" clip-rule="evenodd" d="M966.213 371.181C966.832 417.57 1010.44 444.57 1093.48 444.57C1194.08 444.57 1241 421.498 1241 366.666C1241 302.772 1136.74 297.946 1092.86 291.793C1071.05 288.731 1060.45 286.039 1060.45 276.36C1060.45 267.856 1071.05 259.258 1091.06 259.258C1117.41 259.258 1133.59 269.092 1135.69 282.7H1234.81C1231.19 233.927 1183.78 209.496 1094.68 209.496C1024.54 209.496 971.191 233.619 971.191 283.628C971.191 320.277 995.189 344.583 1047.73 350.058L1111.04 356.645C1158.67 361.624 1158.79 394.128 1111.57 394.128C1088.25 394.128 1073 382.715 1071.48 371.181H966.213ZM1901.03 219.083H1820.49V314.215C1820.49 413.922 1809.33 439.25 1949.89 443.981C2087.54 450.105 2078.98 390.85 2078.98 314.215V219.081H1998.41V326.056C1998.41 367.25 1994.92 390.939 1949.89 391.65C1894.66 390.939 1901.03 367.252 1901.03 326.056V219.083ZM2403.58 437.858H2488.45V219.081H2403.58V437.858ZM2101.15 437.858H2185.98L2184.31 359.46L2269.15 437.858H2380.63L2259.53 326.183L2387.01 219.083H2281.05L2185.98 294.821V219.083H2101.15V437.858ZM1535.63 437.858H1796.19V384.569H1664.25L1796.12 268.782V219.081H1543.18V269.615H1672.39L1535.63 393.662L1535.63 437.858ZM1340.95 219.081H1260.42V314.212C1260.42 413.92 1249.25 439.248 1389.81 443.979C1527.47 450.102 1518.9 390.847 1518.9 314.212V219.081H1438.33V326.056C1438.33 367.25 1434.84 390.939 1389.81 391.65C1334.58 390.939 1340.95 367.252 1340.95 326.056L1340.95 219.081ZM1038.39 171.458L1034.47 43.1441L1105.91 171.458H1170.82L1239.7 42.1856L1235.77 171.458H1308.97V0.435683H1188.14L1137.36 108.861L1083.67 0.435683H966.213V171.458H1038.39ZM1902.64 0.435683V112.045C1902.64 154.57 1926.94 171.641 1995.11 171.641H2056.43C2113.25 171.641 2144.2 155.745 2144.2 113.931V0.433321H2069.45V103.171C2069.45 127.047 2059.31 131.964 2029.28 131.964H2021.21C1985.09 131.964 1977.85 128.036 1977.85 103.171V0.433321L1902.64 0.435683ZM2313.74 171.458V38.6578H2388.27V0.435683H2168.94V38.6578H2240.63V171.458H2313.74ZM1405.12 171.458L1419.01 142.076H1518.5L1532.48 171.458H1608.34L1525.15 0.435683H1409.88L1327.25 171.458H1405.12ZM1434.01 108.089L1468.37 35.4432L1503.13 108.089H1434.01ZM1779.36 0H1626.77V171.458H1701.21V126.364H1755.21C1776.46 126.364 1787.1 130.384 1787.1 144.921V171.455H1864.54V136.417C1864.54 115.79 1840.57 105.924 1816.82 104.13C1843.29 98.9653 1867.69 92.2229 1867.16 58.4188C1866.42 12.7737 1843.35 0 1779.36 0ZM1767.73 39.8023C1784.31 39.8023 1789.6 49.2366 1789.6 62.4106C1789.6 78.6155 1785.73 85.544 1767.73 85.544H1701.21V39.8023H1767.73ZM2413.85 0.433321H2488.42V171.455H2413.85V0.433321Z" fill="black"/>
<path fill-rule="evenodd" clip-rule="evenodd" d="M0 4.11719V434.204H422.727V4.11719H0ZM429.868 4.11719V434.204H852.739V4.11719H429.868Z" fill="white"/>
<path fill-rule="evenodd" clip-rule="evenodd" d="M408.237 318.641L319.448 411.111H377.341C396.424 410.986 408.176 397.44 408.239 377.679L408.237 318.641ZM405.3 127.267V194.223C405.331 206.81 401.65 217.759 392.621 226.293L316.386 303.209C311.561 308.218 309.49 314.218 311.963 319.816L406.414 224.654V280.539C406.567 296.589 403.042 311.743 393.702 323.125L309.768 411.078H216.987V270.024C217.112 226.913 222.277 217.634 235.204 203.068L403.692 31.0547L403.661 96.588C403.722 109.051 399.083 119.907 390.487 128.689L316.108 205.574C311.252 210.583 309.18 216.584 311.685 222.179L373.293 160.08L405.3 127.267ZM18.1313 318.641L106.951 411.111H49.0269C29.9441 410.986 18.1925 397.44 18.1289 377.679L18.1313 318.641ZM21.068 127.267V194.223C21.068 206.81 24.7183 217.759 33.7498 226.293L109.982 303.209C114.807 308.218 116.88 314.218 114.405 319.816L52.769 257.714L19.9564 224.654V280.539C19.801 296.589 23.2958 311.743 32.6665 323.125L116.6 411.078H209.381V270.024C209.256 226.913 204.091 217.634 191.165 203.068L22.7094 31.0547V96.588C22.6459 109.051 27.2853 119.907 35.8835 128.689L110.26 205.574C115.116 210.583 117.188 216.584 114.683 222.179L53.0775 160.08L21.068 127.267Z" fill="#384192"/>
<path fill-rule="evenodd" clip-rule="evenodd" d="M639.538 28.2656C583.126 77.8719 518.801 114.86 450.05 144.736L694.926 318.572L681.133 325.129L579.725 258.328C546.727 236.587 464.772 251.647 448.256 279.264L636.752 410.023C688.958 360.261 752.789 320.831 827.199 290.771L579.447 119.777L592.588 109.604L672.815 166.539C712.803 194.929 744.596 202.413 830.818 160.385L639.538 28.2656Z" fill="#DE0029"/>
</svg>
