<svg width="1491" height="1546" viewBox="0 0 1491 1546" fill="none" xmlns="http://www.w3.org/2000/svg">
<g clip-path="url(#clip0_6112_1667)">
<path fill-rule="evenodd" clip-rule="evenodd" d="M1471.5 364.6C1488.2 370.4 1486.4 395.1 1486.4 426.7C1486.4 481.8 1480.7 551.7 1465.7 553C1443.3 554.7 1360.7 481.2 1353.2 426.7C1375.6 429 1445 418 1471.5 364.6ZM1319.8 379.6C1319.8 372.7 1325.6 359.5 1344.5 359.5C1396.9 359.5 1445 324.4 1445 292.8C1445 283.7 1443.3 279.7 1439.3 274.5C1462.8 277.3 1472 293.4 1472 313C1472 354.9 1417.4 402.5 1357.7 402.5C1335.4 402.5 1319.8 395.7 1319.8 379.6ZM1345.1 337.6C1337.1 337.6 1325.6 337.6 1319.2 325C1314.1 314.7 1315.8 298 1306 290.5C1315.8 293.4 1326.1 293.4 1334.2 293.4C1360.1 293.4 1384.8 275.6 1403.8 275.6C1416.3 275.6 1420.3 283.7 1420.3 291.7C1420.3 317 1369.3 337.6 1345.1 337.6ZM60.3001 787.9C79.8001 787.9 75.8001 668.4 107.4 668.4C114.9 668.4 117.2 675.9 117.2 685.1C117.2 712.1 103.9 751.7 103.9 773.5C103.9 784.4 106.8 787.9 112 787.9C125.8 787.9 149.9 656.4 173.5 656.4C180.9 656.4 184.3 663.8 184.3 671.3C184.3 698.9 149.3 778.1 149.3 800.5C149.3 803.9 150.5 806.8 153.3 806.8C167.7 806.8 196.4 744.8 205.6 713.8C210.8 697.7 217.7 689.1 224 689.1C229.7 689.1 234.9 695.4 234.9 708.6C234.9 739.6 206.2 812.6 180.9 861.4C161.4 899.3 131 953.8 131 984.3C131 999.8 133.8 1015.8 156.2 1035.4C119.5 1033.1 104.5 1029.7 90.8001 1000.9C29.3001 1123.2 203.9 1111.2 144.2 1219.7C133.2 1200.2 47.1001 1180.1 47.1001 1066.4C47.1001 968.2 133.2 910.8 133.2 870C133.2 862 130.4 855.1 122.9 848.7C103.9 832.6 103.4 819.5 88.5001 819.5C77.5001 819.5 64.3001 844.7 78.1001 867.1C82.7001 874.6 86.7001 879.2 86.7001 886.1C86.7001 902.1 61.4001 945.2 43.6001 945.2C25.8001 945.2 12.1001 901 12.1001 829.8C12.1001 766.6 26.4001 702.9 44.2001 702.9C49.4001 702.9 51.1001 706.3 51.1001 710.9C51.1001 718.4 48.8001 733.3 48.8001 758.5C48.8001 785.6 55.1001 787.9 60.3001 787.9ZM175.7 922.8C175.7 920 177.5 909.6 180.9 909.6C185.5 909.6 189 921.6 202.2 921.6C227.5 921.6 229.2 897 229.2 847.6C229.2 790.7 252.7 725.8 328.5 677C316.4 697.7 313.6 724.7 313.6 741.4C313.6 839 431.3 930.3 431.3 990.6C431.3 1015.2 413.5 1042.9 380.8 1042.9C352.1 1042.9 336.6 1019.9 336.6 1000.9C336.6 986 346.9 974.5 350.4 974.5C352.1 974.5 352.7 975.6 352.7 979.6C352.7 987.7 359 998 372.2 998C384.2 998 392.3 989.4 392.3 978.5C392.3 930.9 295.2 847.6 295.2 733.3C290 746 283.7 762 283.7 786.2C283.7 841.3 323.9 898.7 323.9 950.4C323.9 971.6 307.3 990.6 286.6 990.6C262.5 990.6 253.9 971.6 253.9 959.6C253.9 951.5 257.3 944 259.6 944C262.5 944 261.3 956.1 274.6 956.1C288.3 956.1 293.5 946.3 293.5 928.6C293.5 880.9 265.9 847 265.9 797.6C265.9 790.2 265.9 782.1 267.7 774.6C252.7 792.5 251 817.7 251 840.1V898.7C251 938.3 230.9 956.1 206.7 956.1C191.3 956.1 175.7 944 175.7 922.8ZM1076.9 309.5C1084.2 304.6 1116.6 312.4 1158.5 291.7C1163.6 288.8 1168.8 287.7 1173.4 287.7C1193.5 287.7 1188.3 310.6 1206.8 310.6C1221.1 310.6 1239.5 298.6 1250.4 298.6C1267.6 298.6 1292.3 352.6 1292.3 377.8C1292.3 407.1 1248.1 424.9 1195.8 424.9C1119.5 424.9 1073.5 358.3 1073.5 315.3C1073.5 311.8 1075.2 310.6 1076.9 309.5ZM1202.1 382.4C1227.4 382.4 1246.4 370.9 1246.4 364C1246.4 361.8 1243 360 1235.5 360C1228 360 1213.1 359.5 1184.9 354.9C1160.7 350.8 1142.3 341.7 1135.4 341.7C1133.1 341.7 1132 342.8 1132 344.5C1132 359.5 1159.6 382.4 1202.1 382.4ZM335.4 1339.2C381.4 1339.2 403.8 1315.6 403.8 1274.9C403.8 1229.5 373.3 1184.1 322.2 1184.1C296.4 1184.1 278.6 1199.1 278.6 1219.7C278.6 1254.2 306.7 1276 336 1276C355.5 1276 368.2 1268 368.2 1254.8C368.2 1252.5 367.6 1249.6 366.4 1247.9C364.1 1249 359.6 1250.2 353.8 1250.2C330.3 1250.2 311.3 1236.4 311.3 1222.6C311.3 1211.7 318.8 1204.8 329.1 1204.8C363.6 1204.8 387.1 1240.4 387.1 1266.3C387.1 1292.6 368.2 1315.6 336 1315.6C267.6 1315.6 238.9 1258.8 238.9 1220.8C238.9 1180.1 272.8 1152.5 310.7 1152.5C380.2 1152.5 433.6 1213.4 433.6 1300.1C433.6 1339.2 412.9 1397.2 329.1 1397.2C229.7 1397.2 169.4 1310.5 169.4 1254.2C169.4 1207.1 199.9 1177.2 218.8 1172.6C198.7 1256.5 243.5 1339.2 335.4 1339.2ZM874.5 1509.1C902 1509.1 900.6 1506.8 909.2 1506.8C917.8 1506.8 918.4 1512 918.4 1515.4C918.4 1528.1 890.2 1543.6 840.3 1543.6C811 1543.6 793.2 1528.1 788 1510.8C759.3 1529.2 715.6 1545.9 672.6 1545.9C554.8 1545.9 525 1494.7 488.2 1478.1C460 1465.5 417 1490.2 356.7 1423C364.7 1424.7 375.6 1425.3 384.3 1425.3C437.1 1425.3 465.2 1399.5 465.2 1358.1C465.2 1352.9 464.6 1347.2 464 1342.1C480.1 1348.4 516.9 1375.9 525.5 1424.7C526.7 1430.5 550.2 1435.6 565.1 1435.6C585.8 1435.6 612.3 1427 616.3 1393.2C685.2 1387.4 731.7 1346.7 741.5 1294.9C766.2 1303 794.3 1325.4 801.2 1336.9C811 1333.43 822.5 1331.7 835.7 1331.7C854 1331.7 874.7 1335.2 899.4 1342.7C900.6 1335.2 901.7 1326 913.2 1326C930.4 1326 925.8 1344.9 931.6 1355.8C934.5 1361.5 948.9 1365 948.9 1376.5C948.9 1387.4 939.6 1391.4 933.9 1391.4C931.6 1391.4 928.7 1390.9 927 1390.3C915.5 1394.3 915 1477 866.7 1477C831.1 1477 798.3 1447.7 784 1411C779.9 1400.1 771.4 1393.2 763.3 1393.2C754.1 1393.2 749 1394.9 738.1 1407C707 1440.8 655.3 1470.1 591.6 1470.1C572 1470.1 556.6 1468.4 552.5 1468.4C550.2 1468.4 550.2 1468.9 550.2 1469.5C550.2 1473.5 569.7 1489.1 612.3 1489.1C713.3 1489.1 738.1 1432.2 754.1 1432.2C756.4 1432.2 763.3 1432.2 767.3 1441.4C790.9 1496.4 842.3 1509.1 874.5 1509.1ZM829.9 1394.3C829.9 1407 840.3 1417.3 852.9 1417.3C865.6 1417.3 875.9 1407 875.9 1394.3C875.9 1381.7 865.6 1371.3 852.9 1371.3C840.3 1371.3 829.9 1381.7 829.9 1394.3ZM1222.8 1143.3C1210.8 1143.3 1144 1232.3 1101.1 1232.3C1090.7 1232.3 1082.1 1212.8 1082.1 1197.9C1082.1 1189.9 1087.3 1184.1 1105.7 1180.1C1204.5 1157.7 1182.6 1083.6 1267 1083.6C1313.5 1083.6 1365.2 1115.2 1365.2 1186.4C1365.2 1262.2 1257.3 1356.4 1241.2 1356.4C1228 1356.4 1213.6 1337.5 1213.6 1324.8C1213.6 1320.8 1215.4 1315.6 1226.9 1311C1281.9 1289.2 1313.5 1238.7 1313.5 1212.8C1313.5 1207.1 1310.6 1201.4 1303.1 1201.4C1293.4 1201.4 1251.6 1296.7 1205 1296.7C1172.8 1296.7 1140.1 1267.4 1140.1 1253.6C1140.1 1230.6 1233.2 1188.1 1233.2 1156C1233.2 1143.9 1227.4 1143.3 1222.8 1143.3ZM1284.8 1107.7C1276.7 1107.7 1268.1 1114.1 1268.1 1129.6C1268.1 1146.8 1281.4 1157.7 1288.8 1161.1C1292.8 1163.4 1299.2 1165.7 1305.4 1165.7C1322.1 1165.7 1335.3 1161.1 1335.3 1147.3C1335.3 1129.6 1309.5 1107.7 1284.8 1107.7ZM234.9 419.8C247.5 419.8 257.9 430.1 257.9 442.7C257.9 455.4 247.5 465.7 234.9 465.7C222.3 465.7 211.9 455.4 211.9 442.7C211.9 430.1 222.3 419.8 234.9 419.8ZM205 368.1C217.7 368.1 228 378.4 228 391C228 403.7 217.7 414 205 414C192.4 414 182.1 403.7 182.1 391C182.1 378.4 192.4 368.1 205 368.1ZM157.4 574.8C157.4 592 163.1 609.3 179.2 624.8C174.6 628.2 167.1 630.5 156.8 630.5C136.7 630.5 120.6 617.3 120.6 596.6C120.6 567.9 148.2 551.8 161.4 548.4C159.1 555.3 157.4 562.8 157.4 574.8ZM78.7001 581.1C85.6001 581.1 93.0001 580.5 99.3001 579.4C84.4001 598.3 67.7001 607 53.4001 607C34.5001 607 20.1001 592 20.1001 565C20.1001 562.2 20.1001 559.3 20.7001 556.4C34.5001 575.4 57.4001 581.1 78.7001 581.1ZM54.6001 642C70.1001 642 87.3001 638.6 109.7 633.4C80.4001 658.7 55.7001 671.9 37.3001 671.9C13.8001 671.9 0.600098 651.2 0.600098 607.5C17.8001 634 33.9001 642 54.6001 642ZM582.4 198.1C551.4 198.1 485.9 167.1 463.5 167.1C457.2 167.1 455.5 168.8 455.5 174.6C455.5 196.4 497.9 265.3 497.9 295.7C497.9 303.7 495.1 310.1 487.1 310.1C461.2 310.1 403.8 241.2 383.7 241.2C365.3 241.2 373.3 299.2 356.1 299.2C342.3 299.2 330.3 265.8 315.3 265.8C300.4 265.8 290.6 380.7 267.1 380.7C239.5 380.7 250.4 274.5 232 274.5C217.7 274.5 198.2 310.7 176.9 310.7C165.4 310.7 162 301.5 162 288.3C162 271.6 167.2 248.6 167.2 233.7C167.2 225.6 166.6 216.5 159.1 216.5C137.8 216.5 60.3001 273.3 30.4001 273.3C24.2001 273.3 19.5001 270.5 19.5001 264.1C19.5001 236 117.7 151.6 117.7 132.1C117.7 114.2 5.2001 130.3 5.2001 113.1C5.2001 93.6 85.0001 59.7 85.0001 47.1C85.0001 33.9 8.1001 29.3 8.1001 14.3C8.1001 4.5 26.4001 0.6 60.3001 0.6C88.4001 0.6 161.4 8 161.4 24.7C161.4 43.6 99.9001 62.6 99.9001 81C99.9001 102.8 186.1 90.1 186.1 109.1C186.1 128.6 123.5 172.3 123.5 186C123.5 188.3 126.4 189.5 128.7 189.5C143.6 189.5 182.6 160.8 200.4 160.8C207.3 160.8 209.6 165.4 209.6 173.4C209.6 189.5 199.9 216.5 199.9 233.1C199.9 237.1 201 241.7 205.6 241.7C218.2 241.7 238.4 187.2 256.2 187.2C272.3 187.2 257.9 269.3 274.5 269.3C288.9 269.3 291.8 194.6 306.7 194.6C321 194.6 328 236.6 342.9 236.6C349.2 236.6 349.8 228.5 349.8 215.3V195.8C349.8 183.2 350.4 174.6 356.7 174.6C373.9 174.6 422.7 232 433 232C435.3 232 435.9 229.7 435.9 227.9C435.9 212.5 403.2 160.2 403.2 132.6C403.2 123.4 406.6 117.1 415.8 117.1C435.9 117.1 478.4 140.7 497.9 140.7C504.3 140.7 508.3 138.4 508.3 132.1C508.3 108.5 438.2 60.9 438.2 41.3C438.2 22.4 516.4 2.8 569.7 2.8C576.6 2.8 590.5 2.8 590.5 10.3C590.5 24.6 524.1 36.9 508.2 53.7C506.1 56 504.8 58.4 504.9 60.9C505.9 87.8 599.1 150.4 599.1 184.9C599.1 192.3 592.7 198.1 582.4 198.1ZM68.9001 426.1C94.1001 410 116.6 407.7 135.5 407.7C140.1 407.7 144.7 407.9 148.2 408.3C158.5 409.4 166.7 409.6 169.4 412.3C174.1 417 171.3 425.8 178.6 435.8C185.9 445.9 194.7 444.5 194.7 455.4C194.7 464 178.6 515.1 137.3 535.8C117.7 545.5 102.2 549.5 89.0001 549.5C66.6001 549.5 51.1001 539.8 37.3001 539.8C35.0001 539.8 32.2001 540.9 27.6001 540.9C22.4001 540.9 16.7001 535.2 16.7001 530.1C16.7001 527.7 17.3001 525.5 18.4001 523.7C26.4001 510.5 19.1001 457.9 68.9001 426.1ZM141.8 429.5C139 427.8 137.3 427.3 133.2 427.3C124.6 427.3 118.3 428.4 118.3 439.3C118.3 456.5 134.4 487 154.5 487C163.7 487 168.3 476.6 168.3 468.6C168.3 464.6 157.3 457.9 153.4 452.5C147 443.9 147 432.4 141.8 429.5ZM121.8 512.8C121.8 511.6 120.6 511.1 118.9 509.9C101.6 501.9 83.3001 485.8 79.8001 457.7C79.3001 453.6 78.1001 451.9 75.8001 451.9C69.5001 451.9 60.9001 466.3 60.9001 477.8C60.9001 499 81.6001 522.6 100.5 522.6C110.8 522.6 121.8 516.8 121.8 512.8ZM272.8 574.8C272.8 599.5 259.6 623.6 231.5 623.6C202.2 623.6 183.2 597.8 183.2 566.8C183.2 540.9 196.4 515.7 209.1 500.7C237.8 509.3 272.8 536.4 272.8 574.8ZM86.2001 390.5C86.2001 390.5 69.5001 403.1 48.8001 403.1C24.1001 403.1 4.6001 384.7 4.6001 358.9C4.6001 341.1 13.8001 322.7 35.0001 313.5C34.5001 317 34.5001 319.8 34.5001 323.3C34.5001 356 52.8001 380.7 86.2001 390.5ZM1122.8 557C1136 557 1146.9 567.9 1146.9 581.1C1146.9 594.3 1136 605.3 1122.8 605.3C1109.7 605.3 1098.8 594.3 1098.8 581.1C1098.8 567.9 1109.7 557 1122.8 557ZM1127.4 626.5C1142.4 626.5 1154.4 638.5 1154.4 653.5C1154.4 668.4 1142.4 680.5 1127.4 680.5C1112.6 680.5 1100.5 668.4 1100.5 653.5C1100.5 638.5 1112.6 626.5 1127.4 626.5ZM1057.4 662.7C1079.2 662.7 1097.1 680.5 1097.1 702.3C1097.1 724.1 1079.2 741.9 1057.4 741.9C1035.5 741.9 1017.8 724.1 1017.8 702.3C1017.8 680.5 1035.5 662.7 1057.4 662.7ZM1062 598.4C1074.7 598.4 1085 608.7 1085 621.3C1085 634 1074.7 644.3 1062 644.3C1049.3 644.3 1039 634 1039 621.3C1039 608.7 1049.3 598.4 1062 598.4ZM986.7 644.3C999.3 644.3 1009.7 654.6 1009.7 667.3C1009.7 679.9 999.3 690.2 986.7 690.2C974.2 690.2 963.8 679.9 963.8 667.3C963.8 654.6 974.2 644.3 986.7 644.3ZM1059.7 496.1C1079.8 496.1 1096.5 512.8 1096.5 532.9C1096.5 553 1079.8 569.6 1059.7 569.6C1039.6 569.6 1022.9 553 1022.9 532.9C1022.9 512.8 1039.6 496.1 1059.7 496.1ZM1087.9 440.4C1100 440.4 1109.7 450.2 1109.7 462.3C1109.7 474.3 1100 484.1 1087.9 484.1C1075.8 484.1 1066 474.3 1066 462.3C1066 450.2 1075.8 440.4 1087.9 440.4ZM983.8 495.6C995.9 495.6 1005.7 505.3 1005.7 517.4C1005.7 529.5 995.9 539.2 983.8 539.2C971.8 539.2 962.1 529.5 962.1 517.4C962.1 505.3 971.8 495.6 983.8 495.6ZM994.1 557C1013.7 557 1029.2 572.5 1029.2 592C1029.2 611.6 1013.7 627.1 994.1 627.1C974.7 627.1 959.2 611.6 959.2 592C959.2 572.5 974.7 557 994.1 557ZM919.5 596.1C937.3 596.1 952.3 611 952.3 628.8C952.3 646.6 937.3 661.5 919.5 661.5C901.7 661.5 886.8 646.6 886.8 628.8C886.8 611 901.7 596.1 919.5 596.1ZM929.3 524.9C942 524.9 952.3 535.2 952.3 547.8C952.3 560.4 942 570.8 929.3 570.8C916.7 570.8 906.3 560.4 906.3 547.8C906.3 535.2 916.7 524.9 929.3 524.9ZM1108 724.7C1108 713.2 1118.3 703.4 1129.7 703.4C1142.4 703.4 1152.1 713.2 1152.1 724.7C1152.1 737.9 1142.4 747.1 1129.7 747.1C1118.3 747.1 1108 737.9 1108 724.7ZM1188.9 1378.2C1188.9 1432.7 1108.6 1499.9 1001 1499.9C967.8 1499.9 950 1477 950 1454C950 1421.3 967.8 1391.5 981.5 1375.4C987.8 1367.9 994.1 1362.1 999.9 1362.1C1004.5 1362.1 1018.3 1371.9 1049.3 1371.9C1107.4 1371.9 1142.3 1346.1 1157.3 1334.6C1170.5 1334.6 1188.9 1347.2 1188.9 1378.2ZM1065.4 1347.2C1034.4 1347.2 1009.1 1336.3 1009.1 1325.4V1299C1009.1 1290.9 1031.5 1272 1073.5 1272C1108 1272 1133.2 1281.7 1133.2 1298.4V1311.6C1133.2 1317.9 1132.1 1324.3 1127.4 1328.3C1112.6 1340.9 1090.2 1347.2 1065.4 1347.2ZM1054.5 1402.9H1047.1C1047.6 1408.1 1048.2 1411.5 1048.2 1416.2C1048.2 1429.9 1044.7 1444.2 1040.1 1458C1068.9 1457.5 1088.4 1449.4 1102.8 1439.7C1123.4 1426.4 1129.1 1409.8 1129.1 1397.2C1129.1 1386.8 1125.7 1385.1 1122.8 1385.1C1119.5 1385.1 1099.9 1402.9 1054.5 1402.9ZM1177.4 851.6C1177.4 866 1182 882.6 1196.4 882.6C1208.4 882.6 1218.8 864.3 1218.8 844.2C1218.8 821.2 1214.8 803.4 1214.8 794.2C1214.8 790.2 1216.5 788.5 1218.8 788.5C1227.4 789 1235.5 812.6 1244.7 812.6C1255 812.6 1270.4 793.6 1276.7 793.6C1278.5 793.6 1279 795.9 1279 796.5C1279 805.1 1265.8 824.1 1265.8 831.5C1265.8 837.8 1299.2 839 1299.2 844.7C1299.2 853.3 1264.2 853.3 1247.6 860.8C1231.5 867.7 1221.7 876.3 1221.7 887.8C1221.7 899.3 1233.2 901.6 1249.3 901.6C1287.7 901.6 1314.7 880.9 1323.3 880.9C1325 880.9 1326.1 882.1 1326.1 883.8C1326.1 889.5 1306.6 908.5 1306.6 917.1C1306.6 926.8 1342.2 938.3 1341.7 944C1341.1 945.8 1338.8 946.3 1334.8 946.3C1328.4 946.3 1318.7 944.6 1311.2 944.6C1306.6 944.6 1302.6 945.2 1300.8 947.5C1296.9 952.1 1302 982.5 1294 982.5C1286.5 982.5 1267 914.8 1222.8 914.8C1216.5 914.8 1211.9 919.9 1211.9 928.6C1211.9 951.5 1234.3 977.9 1255.6 990.6C1265.2 996.9 1281.4 1003.2 1281.4 1006.7C1281.4 1013.5 1244.7 1007.2 1244.7 1018.7C1244.7 1029.1 1249.3 1044.6 1249.3 1053.7C1249.3 1056.6 1248.7 1060.1 1245.2 1060.1C1238.4 1060.1 1221.7 1028.5 1213.6 1028.5C1206.7 1028.5 1191.8 1047.4 1185.4 1047.4C1183.7 1047.4 1182.6 1045.7 1182.6 1044C1182.6 1030.8 1203.9 1000.9 1203.9 971.6C1203.9 957.9 1202.1 928 1185.4 928C1171.7 928 1156.1 949.8 1149.2 971.6C1145.2 984.2 1148.1 1033.1 1138.9 1033.1C1130.3 1033.1 1132.6 1000.3 1121.1 1000.3C1112.6 1000.3 1094.2 1015.8 1087.9 1015.8C1086.7 1015.8 1085.6 1015.2 1085.6 1014.1C1085.6 1007.2 1102.2 984.8 1102.2 980.2C1102.2 971.6 1064.3 970.5 1064.3 963.6C1064.3 959.6 1079.2 956.7 1093 954.4C1122.2 949.2 1165.4 928 1165.4 898.2C1165.4 864.8 1133.1 850.5 1112 836.7C1101.1 829.8 1089 824.1 1089 819.5C1089 814.9 1102.8 814.9 1108.6 814.9C1117.2 814.9 1125.7 814.3 1125.7 807.4C1125.7 802.2 1124.5 791.9 1124.5 783.9C1124.5 778.1 1125.1 773.5 1127.4 773.5C1136 773.5 1148.1 801.6 1153.8 801.6C1163 801.6 1175.7 778.7 1184.3 778.7C1187.2 778.7 1188.3 780.4 1188.3 785.6C1188.3 806.8 1177.4 830.9 1177.4 851.6ZM903.4 683.4C909.8 732.2 975.3 707.5 975.3 766.6C975.3 775.2 973 787.9 973 798.8C973 811.4 974.2 822.3 983.8 822.3C993.6 822.3 995.9 815.4 995.9 806.2C995.9 797 993.6 785.6 993.6 779.3C993.6 759.1 1007.9 754.6 1016.6 754.6C1038.4 754.6 1055.1 777 1087.9 777C1080.4 813.7 1004.5 803.9 1004.5 844.2C1004.5 864.3 1024.6 868.8 1037.8 868.8C1049.9 868.8 1054 867.1 1054 856.8C1054 851 1052.8 844.7 1052.8 840.7C1052.8 838.4 1054.5 836.1 1057.4 836.1C1070.1 836.1 1132 883.2 1132 897.6C1132 910.7 1066.6 924 1047.6 924C1041.9 924 1040.7 919.9 1040.7 917.7C1040.7 913.6 1050.5 901.6 1050.5 894.7C1050.5 889.5 1041.9 886.1 1018.9 886.1C1008 886.1 999.9 887.2 999.9 895.9C999.9 911.3 1025.2 930.3 1025.2 944.6C1025.2 956.1 1018.3 963 999.9 963C984.4 963 960.9 950.9 960.9 930.9C960.9 914.8 977.5 898.7 977.5 889C977.5 886.1 975.3 881.5 968.4 881.5C947.1 881.5 941.4 937.7 866.1 944C878.2 933.2 888.5 921.1 888.5 896.4C888.5 884.4 885.7 874.6 885.7 861.4C885.7 844.2 893.7 835.5 905.2 835.5C926.4 835.5 936.7 865.4 950.6 865.4C958.1 865.4 966.1 858.5 966.1 848.2C966.1 804.5 882.2 810.8 882.2 749.4C882.2 732.7 887.9 712.1 903.5 683.4H903.4ZM982.6 980.2C1042.9 991.7 1075.7 1037.1 1075.7 1079.6C1075.7 1108.9 1057.3 1135.8 1025.1 1135.8C995.8 1135.8 974.6 1115.8 974.6 1083.6C974.6 1059.5 993.5 1034.2 993.5 1009.5C993.5 999.8 990.6 990 982.6 980.2ZM920 1010.7C946.5 1014.1 952.8 1023.3 952.8 1030.8C952.8 1043.4 941.3 1047.4 930.3 1047.4C922.3 1047.4 913.1 1045.7 903.4 1045.7C890.7 1045.7 878.1 1048.6 867.7 1060.6C875.2 1061.8 886.1 1066.9 886.1 1078.5C886.1 1111.8 793.6 1084.2 793.6 1169.8C793.6 1215.1 840.7 1264.5 912 1264.5C948.8 1264.5 972.3 1252.5 972.3 1238.7C972.3 1227.8 952.8 1235.2 952.8 1226C952.8 1222 959.7 1214.5 959.7 1208.2C959.7 1205.4 957.4 1200.2 952.8 1200.2C942.4 1200.2 922.9 1216.8 883.2 1216.8C852.2 1216.8 821.8 1199.1 821.8 1174.9C821.8 1169.8 824.1 1166.9 827.5 1166.9C831 1166.9 835.6 1169.2 839.6 1169.2C843.1 1169.2 843.6 1166.9 843.6 1160.5C843.6 1154.2 843.6 1136.4 854.5 1136.4C865.4 1136.4 886.1 1176.6 965.5 1176.6C991.8 1176.6 1042.9 1171.5 1061.9 1154.2C1061.3 1217.4 1011.9 1300.7 908.5 1300.7C801.1 1300.7 743.7 1214.5 743.7 1135.3C743.7 1047.4 815.5 967.6 913.7 967.6C938.9 967.6 960.2 976.2 960.2 987.1C960.2 1002.1 922.9 992.9 920 1010.7ZM962 1121C962 1135.8 951.1 1148.5 934.9 1148.5C920 1148.5 909.7 1136.4 909.7 1122.7C909.7 1112.9 913.7 1103.7 913.7 1095.1C913.7 1089.3 912 1083.6 906.2 1077.9C939.5 1077.9 962 1099.1 962 1121ZM1167 1100.3C1167 1122.7 1150.9 1141.6 1127.3 1141.6C1105.6 1141.6 1091.2 1126.1 1091.2 1107.2C1091.2 1090.5 1102.1 1075.6 1102.1 1059.5C1102.1 1053.7 1100.4 1047.4 1096.4 1041.1C1139.4 1044 1167 1069.8 1167 1100.3ZM1012.4 1056.6C1012.4 1064.7 1018.2 1071 1026.3 1071C1035.4 1071 1041.2 1062.9 1041.2 1053.7C1041.2 1041.7 1030.3 1025 1019.9 1025C1015.3 1025 1017.1 1031.9 1015.9 1039.4C1015.3 1045.1 1012.4 1052 1012.4 1056.6ZM548.4 354.9C586.3 354.9 603.5 387.6 603.5 424.4C603.5 440.4 599 464 591.5 464C584 464 585.2 450.8 584 438.7C582.9 423.2 580 419.8 574.8 419.8C565 419.8 558.8 442.7 558.8 464C558.8 477.2 561.1 492.1 571.4 492.1C577.1 492.1 582.3 489.2 585.7 485.8C583.4 512.2 563.9 535.2 536.3 535.2C485.8 535.2 466.8 476 461.1 441.6C430.6 473.7 402.5 497.3 352 497.3C304.9 497.3 283.6 462.9 283.6 430.1C283.6 420.3 287.1 395.1 299.1 395.1C313.5 395.1 300.9 442.2 329 442.2C335.9 442.2 348.5 436.4 355.4 417.5C359.4 406 361.8 393.9 361.8 383.6C361.8 368.1 358.3 358.3 346.8 358.3C337.1 358.3 325 365.8 321 369.8C334.8 328.4 368.1 307.2 404.8 307.2C450.2 307.2 474.3 347.4 474.3 392.2C474.3 398.5 473.7 405.4 472.6 411.7C492.1 379.5 519.1 354.9 548.4 354.9ZM504.2 422.6C504.2 412.9 501.9 410.6 499.6 410.6C493.8 410.6 487.5 417.5 478.3 433C479.5 453.7 482.9 462.9 488.7 462.9C495 462.9 504.2 442.7 504.2 422.6ZM425.5 446.2C431.8 446.2 439.8 439.3 454.8 422.6C456 415.2 456 408.3 456 399.7C456 388.2 451.3 375.5 444.5 375.5C427.2 375.5 418.6 421.5 418.6 433.6C418.6 440.4 422 446.2 425.5 446.2ZM519.1 497.3C533.5 497.3 549.5 442.2 549.5 407.7C549.5 400.2 548.4 392.2 545 392.2C532.9 392.2 512.8 449 512.8 480.1C512.8 492.1 515.7 497.3 519.1 497.3ZM378.4 465.7C398 465.7 420.3 360.1 420.3 342.2C420.3 337.6 418.6 334.2 414.6 334.2C396.8 334.2 372.1 434.7 372.1 457.1C372.1 461.1 373.3 465.7 378.4 465.7ZM487.5 559.3C484.7 558.8 481.8 558.2 478.9 558.2C460.5 558.2 450.2 576.5 435.2 607.6C468.6 585.1 499.6 566.8 534.6 566.8C564.5 566.8 588 585.1 588 613.3C588 625.3 582.3 638.6 574.8 650C570.2 624.2 549 612.7 512.2 612.7C491 612.7 465.7 616.7 445.6 624.2C510.5 633.4 520.3 656.9 520.3 678.2C520.3 714.4 484.1 732.2 459.9 744.2C462.2 733.9 464 722.9 464 711.5C464 689.6 456 665 423.2 640.9C418 664.4 399.6 678.8 399.6 697.1C399.6 704 404.2 706.3 407.7 706.3C407.7 716.7 403.1 745.9 403.1 753.4C403.1 768.9 406.5 771.8 414 773.5C418.6 786.7 418.8 808.9 421.9 820.8C423.7 827.5 428.9 829.2 432.9 829.2C437.5 840.7 443.3 857.9 454.2 866C456.5 867.7 459.4 871.7 459.4 875.2C459.4 885.5 443.9 897 434.1 897C431.2 897 426.3 895.2 421.8 884.6C418.2 875.9 390.5 858.5 388.7 848.2C390.5 846.5 391.6 843 391.6 839C391.6 822.9 366.3 804.5 366.3 779.3C369.2 778.1 372.1 773.5 372.1 768.4C372.1 754 357.1 725.8 357.1 706.9C363.5 706.9 366.9 706.3 367.5 697.1C368.6 678.2 372.7 650 390.5 633.9C386.5 633.4 381.3 632.8 374.4 632.8C339.9 632.8 286.5 652.9 266.4 697.7C265.267 690.833 264.7 684.533 264.7 678.8C264.7 641.4 287.1 616.7 303.8 609.3C312.3 605.3 322.7 604.1 334.2 604.1C352.5 604.1 374.4 608.1 396.8 612.1C377.3 586.3 347.4 567.4 322.7 567.4C311.2 567.4 302 571.4 299.1 581.1C298 576 297.4 567.4 297.4 561.6C297.4 533.5 306.6 517.4 330.7 517.4C366.3 517.4 396.8 559.9 415.2 599.5C415.2 539.2 416.3 509.3 441 509.3C454.8 509.3 480.6 534.1 487.5 559.3ZM1408.7 923.4C1437.5 923.4 1460.4 960.7 1460.4 1004.4C1460.4 1050.8 1438.6 1101.4 1399.7 1135.8C1399.1 1058.3 1304.2 1083 1304.2 1026.7C1304.2 1002.6 1321.4 986.5 1342.1 986.5C1360 986.5 1374 991.4 1384.2 1001.1C1374.6 991.4 1369.7 978.1 1369.7 965.3C1369.7 943.5 1383.5 923.4 1408.7 923.4ZM1384.2 1001.1C1384.53 1001.43 1384.9 1001.77 1385.3 1002.1C1384.97 1001.77 1384.6 1001.43 1384.2 1001.1ZM982.6 335.9C978 328.4 960.8 324.5 952.8 324.5C927.5 324.5 910.2 342.2 906.8 358.3C904.5 352.6 902.8 345.7 902.8 338.8C902.8 313.5 920 282.5 962 282.5C998.7 282.5 1013 302 1018.2 302C1023.9 302 1029.7 296.3 1034.3 296.3C1040.6 296.3 1040.6 306.1 1040.6 313C1040.6 335.9 1030.3 375.5 1004.4 389.9C999.8 380.1 990.6 369.2 975.8 362.4C971.7 360.6 970 357.2 970 353.7C970 347.4 975.8 339.4 982.6 335.9ZM895.9 377.8C910.8 392.2 924 398.5 940.1 398.5C946.5 398.5 953.9 396.8 958 396.8C963.1 396.8 966.6 399.1 966.6 403.1C966.6 409.4 960.8 419.8 953.9 425.5C960.8 428.4 968.3 429.5 976.4 429.5C1009 429.5 1046.4 408.8 1046.4 357.2C1053.3 366.3 1057.3 385.3 1057.3 393.9C1057.3 456.5 1011.3 480.6 968.9 480.6C941.3 480.6 927.5 471.4 924 471.4C913.1 471.4 913.7 493.3 906.2 492.7C893 490.4 881 461.1 881 430.1C881 411.7 885.5 392.2 895.9 377.8ZM64.2001 314.1C64.2001 292.8 80.3001 275 102.7 275C141.7 275 154.4 317 154.4 344.5C154.4 357.2 152.1 368.6 149.2 377.8C109.6 377.8 64.2001 359.5 64.2001 314.1ZM582.3 59.1C597.3 59.1 604.7 59.7 604.7 76.9C604.7 90.7 601.8 103.9 592.1 103.9C575.4 103.9 539.2 81.5 539.2 71.2C539.2 64.3 563.4 59.1 582.3 59.1ZM376.1 38.5C376.1 56.3 427.2 71.2 427.2 85C427.2 89 423.8 90.1 420.3 90.1C410.6 90.1 392.8 82.1 379.6 82.1C370.4 82.1 363.5 86.7 363.5 96.4C363.5 112.5 380.7 137.2 380.7 149.3C380.7 153.3 377.8 156.2 374.4 156.2C360.6 156.2 345.7 112 325.5 112C300.9 112 308.3 175.7 291.1 175.7C274.4 175.7 294.5 110.8 264.1 110.8C245.7 110.8 226.2 140.1 214.7 140.1C211.8 140.1 209 139 209 135.5C209 124 240 98.2 240 83.8C240 76.3 232.5 74.6 224.5 74.6C210.1 74.6 190 80.4 177.4 80.4C171.6 80.4 167 78.6 167 74.6C167 62.6 225 56.8 225 36.7C225 17.8 198.1 20.6 198.1 13.7C198.1 8.6 219.3 4.5 242.3 4.5C280.2 4.5 272.7 36.7 302.6 36.7C331.3 36.7 326.1 5.7 363.5 5.7C387 5.7 404.2 9.2 404.2 12.6C404.2 20.6 376.1 20.6 376.1 38.5ZM74.5001 151.6C74.5001 163.1 30.9001 201.5 15.4001 201.5C9.7001 201.5 8.0001 194.6 8.0001 188.3C8.0001 176.9 13.1001 160.8 19.4001 155.6C26.9001 148.7 44.1001 145.3 57.3001 145.3C65.3001 145.3 74.5001 147 74.5001 151.6ZM499.6 207.3C515.7 207.3 588.6 264.7 599 279.1C601.2 282.5 602.4 287.1 602.4 291.7C602.4 308.9 593.8 329 582.3 329C568.5 329 496.7 230.8 496.7 210.7C496.7 209 497.8 207.3 499.6 207.3ZM1325.5 163.6C1325.5 122.9 1227.9 112.5 1227.9 103.3C1227.9 95.9 1282.4 83.2 1310.5 82.7C1267.5 27.6 1206.1 33.3 1206.1 23.5C1206.1 17.8 1252 6.3 1294.5 6.3C1330.1 6.3 1363.4 14.3 1363.4 41.3C1363.4 56.3 1351.3 71.8 1351.3 94.7C1351.3 107.4 1357.6 118.3 1374.3 118.3C1392.2 118.3 1396.2 99.3 1396.2 79.2C1396.2 62.6 1393.3 49.9 1393.3 41.9C1393.3 17.8 1409.9 1.7 1433.4 1.7C1453 1.7 1457.6 10.3 1486.3 10.3C1470.8 19.5 1465.1 36.2 1465.1 44.2C1465.1 68.3 1480.6 85 1480.6 134.4C1480.6 225.1 1395.6 257.2 1291.6 257.2C1263 257.2 1232.5 254.9 1202.6 250.4C1198 249.8 1196.9 248.6 1196.9 245.8C1196.9 238.3 1237.7 234.3 1237.7 197.5C1237.7 183.2 1233.1 169.4 1233.1 164.2C1233.1 161.4 1235.4 159.6 1237.7 159.6C1246.3 159.6 1263.6 192.9 1295.6 192.9C1304.2 192.9 1325.5 190 1325.5 163.6ZM1419.1 36.7C1419.1 44.8 1425.4 51.1 1433.4 51.1C1441.5 51.1 1447.8 44.8 1447.8 36.7C1447.8 28.7 1441.5 22.4 1433.4 22.4C1425.4 22.4 1419.1 28.7 1419.1 36.7ZM1422.5 105.7C1422.5 156.7 1385.3 195.8 1318 206.7C1325.5 207.3 1332.4 207.3 1339.3 207.3C1417.9 207.3 1446.6 171.7 1446.6 141.8C1446.6 125.2 1437.5 110.2 1422.5 105.7ZM1383 845.9C1392.2 817.1 1403.7 797 1422.5 766C1403.7 756.3 1353.7 735.6 1353.7 701.7C1353.7 662.1 1403.1 631.1 1413.3 631.1C1417.9 631.1 1419.1 635.1 1419.1 642.6C1419.1 663.2 1409.3 696.6 1409.3 714.3C1409.3 730.4 1419.6 746 1428.8 746C1438.6 746 1465.6 711.5 1465.6 677.6C1465.6 616.7 1412.1 598.3 1395.6 598.3C1380.1 598.3 1351.9 623.6 1285.8 623.6C1162.4 623.6 1134.2 501.3 1134.2 447.9C1134.2 445.6 1134.8 445 1135.3 445C1138.2 445 1150.3 460 1189.4 460C1209.5 460 1227.9 454.8 1257.2 454.8C1326.1 454.8 1356.5 502.5 1399.1 563.3C1424.8 579.4 1486.3 605.2 1486.3 678.2C1486.3 742.5 1417.9 778.1 1401.3 847C1427.7 844.2 1443.2 797 1470.2 797C1484 797 1490.3 808 1490.3 825.2C1490.3 850.4 1476 888.4 1448.4 911.9C1448.9 909.6 1448.9 906.7 1448.9 903.3C1448.9 887.2 1442.6 864.3 1424.2 864.3C1395.6 864.3 1386.4 895.3 1370.3 921.1C1353.7 862.6 1331.2 809.7 1291.1 777.5C1250.3 744.8 1180.2 762.6 1180.2 702.9C1180.2 686.8 1190.6 663.8 1190.6 645.4C1190.6 639.1 1189.4 633.4 1185.9 628.8C1241.1 649.5 1221.6 686.2 1255.5 724.1C1276.6 748.2 1335.2 771.2 1369.2 870.6C1369.7 867.7 1370.3 860.2 1370.3 855.1C1370.3 770.1 1257.8 686.8 1248 652.3C1313.4 659.8 1324.9 675.9 1355.9 762C1362.3 779.8 1383 824.1 1383 845.9ZM1368 567.3C1368 555.3 1337.5 554.2 1334.7 520.3C1334.1 515.1 1332.4 505.9 1326.1 505.9C1315.7 505.9 1323.7 537.5 1312.2 537.5C1285.8 537.5 1277.2 485.8 1267.4 485.8C1265.1 485.8 1262.4 487.5 1262.4 494.4C1262.4 500.7 1263.6 504.8 1263.6 512.2C1263.6 519.7 1261.8 524.8 1254.9 524.8C1239.4 524.8 1225.6 488.7 1212.4 488.7C1209.5 488.7 1206.6 490.4 1206.6 493.3C1206.6 500.2 1218.1 512.8 1218.1 519.1C1218.1 532.9 1180.8 525.4 1180.8 536.9C1180.8 542.1 1185.9 543.8 1192.8 543.8C1204.9 543.8 1223.9 538.7 1233.7 538.7C1239.4 538.7 1248 539.8 1248 547.3C1248 555.3 1227.3 565.6 1227.3 573.1C1227.3 576.5 1230.8 578.2 1233.7 578.2C1249.2 578.2 1276.6 551.3 1296.2 551.3C1299.6 551.3 1308.2 553 1308.2 558.2C1308.2 565.6 1288.7 578.8 1288.7 589.7C1288.7 592.6 1290.5 596 1293.9 596C1304.2 596 1318 569.1 1337.5 569.1C1345 569.1 1355.9 572 1361.7 572C1366.3 572 1368 569.1 1368 567.3ZM888.4 260.7C886.1 260.7 885.6 260.7 885.6 257.8C885.6 246.3 914.3 206.1 914.3 194.1C914.3 182 875.2 188.9 875.2 179.2C875.2 167.1 914.3 154.5 914.3 138.4C914.3 122.3 876.9 120 876.9 107.4C876.9 100.5 912 90.7 912 80.4C912 70 876.4 29.8 876.4 16.6C876.4 2.3 929.8 41.9 943.6 41.9C950.5 41.9 950.5 21.8 950.5 15.5C950.5 5.7 953.4 0 956.2 0C963.1 0 976.9 22.9 986 22.4C1000.9 22.4 1029.1 3.4 1067.6 3.4C1148.6 3.4 1207.2 52.2 1207.2 135.5C1207.2 221.6 1141.7 270.4 1072.2 270.4C1023.4 270.4 994 240 983.1 240C975.8 240 964.9 266.4 958 266.4C955.1 266.4 953.9 265.9 952.8 258.9C951.1 245.8 949.3 223.3 940.1 223.3C932.1 223.3 899.3 260.7 888.4 260.7ZM933.8 153.9C933.8 155 934.9 155.6 937.8 155.6C941.9 155.6 955.1 156.2 962 156.2C964.9 156.2 966 158.5 966 160.8L967.2 183.7C967.2 186.6 968.3 188.9 970 188.9C975.2 188.9 985.4 165.4 991.8 165.4C996.9 165.4 1014.8 173.4 1019.4 173.4C1020.5 173.4 1021.1 172.8 1021.1 171.7C1021.1 166.5 1009 150.4 1009 146.4C1009 141.3 1041.8 141.8 1041.8 136.1C1041.8 131.5 1009.6 125.2 1009.6 120C1009.6 115.4 1023.9 99.9 1023.9 95.9C1023.9 94.7 1022.8 94.2 1021.6 94.2C1015.9 94.2 1002.1 102.8 994.7 102.8C988.3 102.8 981.4 72.4 977.4 72.4C971.8 72.4 970.6 104.5 963.1 104.5C954.5 104.5 943.6 102.2 937.2 102.2C935.5 102.2 934.4 102.8 934.4 103.9C934.4 110.8 956.8 122.9 956.8 129.2C956.8 133.2 933.8 149.3 933.8 153.9ZM1157.8 134.9C1157.8 69.5 1123.9 30.4 1067.1 30.4C1032 30.4 1009.6 44.7 1009.6 58C1009.6 66 1016.5 67.2 1022.2 67.2C1033.7 67.2 1061.3 56.3 1066.5 56.3C1070.5 56.3 1072.8 57.4 1072.8 60.3C1072.8 66.6 1060.7 80.4 1060.7 88.4C1060.7 99.3 1123.9 91.3 1123.9 102.8C1123.9 113.7 1077.4 124 1077.4 130.9C1077.4 138.4 1114.8 163.1 1114.8 175.7C1114.8 178 1113.6 180.3 1109.6 180.3C1097.6 180.3 1074.5 174 1059 174C1055.6 174 1053.8 175.7 1053.8 178C1053.8 186.6 1063.6 203.8 1063.6 214.2C1063.6 217.6 1061.9 218.8 1059.6 218.8C1050.4 218.8 1022.8 199.3 1010.2 199.3C1005.6 199.3 1002.1 202.7 1002.1 207.9C1002.1 218.2 1028.6 238.3 1068.8 238.3C1099.8 238.3 1157.8 217.6 1157.8 134.9ZM673.6 1205.4C673.6 1195.6 679.9 1189.3 688.6 1189.3C699.5 1189.3 705.2 1199.1 706.4 1209.4C710.4 1205.4 713.8 1203.7 719 1203.7C730.5 1203.7 737.4 1212.8 737.4 1222.6C737.4 1228.9 733.9 1234.7 729.3 1238.1C736.2 1241.6 740.2 1246.7 740.2 1254.2C740.2 1263.4 733.4 1270.3 724.2 1270.3C715.5 1270.3 710.4 1259.9 701.2 1259.9C696 1259.9 690.3 1262.2 688 1265.7C691.4 1273.7 693.2 1281.7 693.2 1289.2C693.2 1334 636.3 1370.2 577.1 1370.2C518 1370.2 496.7 1333.5 496.7 1318.5C496.7 1315 499 1313.3 503 1313.3C512.8 1313.3 515.1 1316.8 541.5 1316.8C604.7 1316.8 582.3 1231.2 641.4 1231.2C649.5 1231.2 667.3 1236.9 673.6 1248.4C678.2 1242.7 679.9 1236.9 679.9 1231.8C679.9 1222 673.6 1214.5 673.6 1205.4ZM323.3 1099.1C323.3 1083 345.7 1072.1 365.8 1072.1C393.9 1072.1 414.6 1080.2 433.5 1108.9C450.8 1134.7 453.6 1177.8 462.8 1185.9C467.4 1189.9 474.9 1191 480.1 1191C485.8 1191 491 1190.4 495 1190.4C536.3 1190.4 564.5 1237 564.5 1257.6C564.5 1276.6 547.8 1283.4 527.2 1283.4C502.4 1283.4 474.3 1269.1 459.9 1253C449 1241.5 443.3 1218.5 438.7 1190.4C434.1 1161.1 411.1 1136.4 365.2 1125C328.4 1115.8 323.3 1108.9 323.3 1099.1ZM536.9 1244.4C536.9 1229.5 511.1 1211.6 496.7 1211.6C490.4 1211.6 482.3 1216.3 482.3 1224.9C482.3 1235.2 508.2 1253.6 525.4 1253.6C534 1253.6 536.9 1248.4 536.9 1244.4ZM653.5 1054.9C653.5 1029.1 600.1 1028.5 600.1 989.4C600.1 979.6 606.4 963 619.1 945.2C624.2 975.1 636.3 990.6 662.1 1000.3C713.2 1019.3 720.1 1048 720.1 1078.5C720.1 1130.2 684 1194.5 590.9 1194.5C516.2 1194.5 462.8 1127.8 462.8 1071.6C462.8 1056 466.8 1038.8 476.6 1038.8C485.2 1038.8 488.1 1045.7 495 1052.6C520.8 1078.5 549 1085.3 589.8 1085.3C626.5 1085.3 653.5 1070.4 653.5 1054.9ZM655.8 1096.2C636.1 1105.3 628.2 1103.7 628.2 1123.8C628.2 1131.3 626.5 1141 626.5 1146.2C626.5 1153.1 627.7 1157.1 635.7 1157.1C656.4 1157.1 689.1 1122.1 689.1 1092.2C689.1 1084.2 684.5 1080.8 679.3 1080.8C674.7 1080.8 669.6 1089.9 655.8 1096.2ZM472.6 806.3C472.6 769.5 559.9 750 559.9 704.6C559.9 697.1 557 683.9 551.9 674.2C582.3 690.8 604.7 719 604.7 741.9C604.7 781.6 563.3 799.9 563.3 824.6C563.3 853.3 607.6 857.9 607.6 893.6C607.6 922.8 565.6 956.7 565.6 994.6C565.6 1023.9 586.3 1048 617.9 1052C607.6 1054.3 598.4 1056 588.6 1056C530.6 1056 470.9 1008.4 470.9 951.5C470.9 923.4 482.9 898.7 501.3 880.9C517.4 894.7 533.5 903.9 543.8 903.9C553 903.9 557 899.3 557 892.4C557 871.1 472.6 851.6 472.6 806.3ZM171.7 1048.3C174 1047.9 177.4 1047.4 177.4 1047.4C175.6 1043.4 174.8 1039.4 174.5 1036C172.5 1014.5 185.7 997.5 205.7 994.2C227.8 990.5 244 1005.5 249.2 1022.7C253.8 1018.7 260.7 1015.9 268.2 1014.9C287.5 1012.6 306.1 1027.9 308.3 1048.6C310.1 1068.7 296.1 1085.3 275.3 1089.2C273.2 1089.6 270.4 1089.9 270.4 1089.9C272.2 1093.9 273.3 1097.4 273.9 1103.1C276.2 1124.4 261.8 1141.1 240.6 1143.8C219.8 1146.6 204.4 1134.7 199.8 1116.4C195.2 1119.2 188.3 1121.3 180.8 1122.1C160.1 1124.4 141.9 1109.5 139.4 1089.9C136.7 1067.6 154.9 1050.7 171.7 1048.3ZM222.6 1048.1C210.6 1049.5 202 1060.4 203.4 1072.4C204.8 1084.4 215.6 1093 227.6 1091.6C239.6 1090.2 248.2 1079.3 246.8 1067.3C245.4 1055.3 234.6 1046.7 222.6 1048.1Z" fill="#0F0E9A"/>
</g>
<defs>
<clipPath id="clip0_6112_1667">
<rect width="1491" height="1546" fill="white"/>
</clipPath>
</defs>
</svg>
