<svg width="930" height="144" viewBox="0 0 930 144" fill="none" xmlns="http://www.w3.org/2000/svg">
<g clip-path="url(#clip0_6120_1821)">
<rect width="930" height="144" fill="white"/>
<path d="M897.833 115.138L893.465 115.888C893.375 115.331 893.181 114.815 892.886 114.321C892.608 113.833 892.176 113.435 891.591 113.135C891.006 112.822 890.228 112.663 889.257 112.663C887.911 112.663 886.73 112.97 885.719 113.583C884.719 114.202 884.146 114.979 883.998 115.927C883.862 116.699 884.044 117.324 884.549 117.806C885.049 118.277 885.929 118.669 887.19 118.981L890.887 119.855C893.017 120.366 894.539 121.161 895.453 122.251C896.385 123.324 896.708 124.72 896.424 126.44C896.186 127.871 895.561 129.136 894.544 130.243C893.545 131.35 892.261 132.213 890.7 132.837C889.132 133.462 887.389 133.774 885.469 133.774C882.737 133.774 880.608 133.195 879.08 132.037C877.558 130.879 876.774 129.244 876.734 127.127L881.369 126.44C881.454 127.621 881.874 128.512 882.635 129.114C883.408 129.71 884.481 130.005 885.844 130.005C887.411 130.016 888.718 129.687 889.774 129.017C890.825 128.347 891.427 127.541 891.574 126.593C891.699 125.855 891.535 125.237 891.074 124.749C890.626 124.26 889.831 123.88 888.695 123.619L884.81 122.728C882.641 122.217 881.107 121.394 880.21 120.253C879.313 119.117 879.012 117.687 879.301 115.967C879.534 114.559 880.125 113.333 881.085 112.289C882.056 111.239 883.283 110.416 884.765 109.837C886.247 109.24 887.883 108.945 889.677 108.945C892.301 108.945 894.266 109.507 895.584 110.637C896.896 111.749 897.645 113.248 897.833 115.127V115.138Z" fill="black"/>
<path d="M928.347 115.138L923.986 115.888C923.889 115.331 923.696 114.815 923.407 114.321C923.123 113.833 922.691 113.435 922.106 113.135C921.521 112.822 920.743 112.663 919.772 112.663C918.426 112.663 917.25 112.97 916.234 113.583C915.234 114.202 914.66 114.979 914.513 115.927C914.377 116.699 914.558 117.324 915.064 117.806C915.563 118.277 916.444 118.669 917.705 118.981L921.402 119.855C923.531 120.366 925.053 121.161 925.973 122.251C926.899 123.324 927.223 124.72 926.939 126.44C926.7 127.871 926.076 129.136 925.065 130.243C924.065 131.35 922.776 132.213 921.214 132.837C919.647 133.462 917.903 133.774 915.984 133.774C913.252 133.774 911.122 133.195 909.6 132.037C908.078 130.879 907.294 129.244 907.249 127.127L911.883 126.44C911.968 127.621 912.389 128.512 913.15 129.114C913.922 129.71 914.996 130.005 916.359 130.005C917.926 130.016 919.238 129.687 920.289 129.017C921.345 128.347 921.941 127.541 922.089 126.593C922.214 125.855 922.049 125.237 921.589 124.749C921.14 124.26 920.345 123.88 919.21 123.619L915.331 122.728C913.155 122.217 911.622 121.394 910.725 120.253C909.827 119.117 909.526 117.687 909.816 115.967C910.049 114.559 910.645 113.333 911.599 112.289C912.576 111.239 913.797 110.416 915.279 109.837C916.762 109.24 918.403 108.945 920.198 108.945C922.816 108.945 924.781 109.507 926.098 110.637C927.41 111.749 928.166 113.248 928.347 115.127V115.138Z" fill="black"/>
<path d="M853.177 133.784C850.814 133.784 848.866 133.279 847.321 132.268C845.788 131.247 844.709 129.811 844.095 127.966C843.482 126.109 843.38 123.935 843.8 121.443C844.203 118.986 845.027 116.811 846.254 114.938C847.486 113.059 849.019 111.595 850.859 110.539C852.705 109.483 854.744 108.961 856.976 108.961C858.333 108.961 859.611 109.182 860.815 109.631C862.025 110.079 863.053 110.783 863.899 111.742C864.74 112.702 865.325 113.951 865.648 115.483C865.983 117.004 865.972 118.855 865.62 121.035L865.353 122.692H846.225L846.77 119.19H861.298C861.519 117.958 861.463 116.868 861.128 115.92C860.792 114.961 860.219 114.206 859.407 113.65C858.6 113.099 857.589 112.821 856.368 112.821C855.147 112.821 853.949 113.15 852.864 113.809C851.774 114.467 850.871 115.302 850.138 116.323C849.417 117.334 848.963 118.378 848.775 119.451L848.23 122.658C847.957 124.412 848.003 125.82 848.372 126.881C848.747 127.943 849.4 128.721 850.343 129.197C851.28 129.68 852.455 129.918 853.864 129.918C854.772 129.918 855.613 129.793 856.385 129.544C857.169 129.283 857.862 128.902 858.464 128.403C859.072 127.892 859.577 127.256 859.986 126.495L864.274 127.296C863.7 128.601 862.877 129.742 861.798 130.724C860.724 131.695 859.458 132.45 857.998 132.989C856.544 133.523 854.937 133.79 853.177 133.79V133.784Z" fill="black"/>
<path d="M816.012 120.724L813.666 134.989H808.986L812.99 110.961H817.483L816.824 114.872H817.125C817.886 113.589 818.925 112.567 820.237 111.806C821.56 111.034 823.128 110.648 824.934 110.648C826.564 110.648 827.927 110.995 829.034 111.682C830.153 112.357 830.942 113.373 831.397 114.718C831.868 116.064 831.942 117.727 831.618 119.708L829.051 134.995H824.371L826.831 120.276C827.109 118.533 826.882 117.176 826.138 116.194C825.411 115.201 824.247 114.707 822.651 114.707C821.56 114.707 820.555 114.94 819.629 115.411C818.709 115.882 817.931 116.569 817.295 117.477C816.67 118.374 816.239 119.458 816.012 120.73V120.724Z" fill="black"/>
<path d="M792.017 134.989L796.021 110.961H800.7L796.696 134.989H792.017ZM799.343 107.203C798.525 107.203 797.838 106.93 797.276 106.391C796.719 105.84 796.463 105.182 796.509 104.421C796.549 103.649 796.872 102.991 797.48 102.446C798.082 101.895 798.786 101.617 799.593 101.617C800.399 101.617 801.086 101.895 801.643 102.446C802.194 102.991 802.455 103.644 802.427 104.421C802.381 105.182 802.058 105.84 801.456 106.391C800.859 106.936 800.155 107.203 799.343 107.203Z" fill="black"/>
<path d="M756.624 144.003L762.161 110.961H766.733L766.091 114.855H766.483C766.835 114.355 767.318 113.776 767.926 113.118C768.539 112.459 769.346 111.886 770.351 111.398C771.35 110.898 772.6 110.648 774.093 110.648C776.03 110.648 777.677 111.137 779.023 112.119C780.369 113.101 781.329 114.514 781.902 116.359C782.476 118.204 782.55 120.423 782.118 123.023C781.692 125.617 780.891 127.848 779.71 129.704C778.529 131.549 777.103 132.974 775.422 133.973C773.753 134.966 771.941 135.46 769.987 135.46C768.528 135.46 767.375 135.216 766.529 134.722C765.694 134.234 765.075 133.661 764.666 133.002C764.263 132.344 763.95 131.765 763.746 131.248H763.462L761.332 143.998H756.624V144.003ZM764.745 122.978C764.473 124.669 764.473 126.151 764.745 127.422C765.018 128.694 765.558 129.693 766.375 130.414C767.199 131.123 768.284 131.475 769.63 131.475C770.976 131.475 772.253 131.106 773.31 130.363C774.36 129.613 775.235 128.597 775.922 127.314C776.621 126.032 777.109 124.584 777.376 122.978C777.637 121.394 777.632 119.969 777.365 118.709C777.103 117.449 776.564 116.45 775.752 115.723C774.934 114.991 773.826 114.628 772.418 114.628C771.01 114.628 769.84 114.98 768.783 115.678C767.738 116.376 766.875 117.352 766.188 118.601C765.495 119.85 765.018 121.314 764.745 122.983V122.978Z" fill="black"/>
<path d="M724.411 142.308L729.948 109.265H734.52L733.878 113.159H734.27C734.628 112.66 735.105 112.081 735.713 111.422C736.326 110.764 737.138 110.191 738.138 109.702C739.137 109.203 740.387 108.953 741.881 108.953C743.823 108.953 745.464 109.441 746.81 110.423C748.156 111.405 749.116 112.819 749.689 114.664C750.263 116.508 750.337 118.728 749.911 121.328C749.479 123.922 748.679 126.153 747.497 128.009C746.322 129.854 744.89 131.279 743.209 132.278C741.54 133.271 739.728 133.765 737.78 133.765C736.315 133.765 735.162 133.521 734.316 133.027C733.487 132.539 732.862 131.965 732.459 131.307C732.05 130.648 731.743 130.069 731.533 129.553H731.249L729.119 142.302H724.411V142.308ZM732.532 121.282C732.265 122.974 732.265 124.455 732.532 125.727C732.805 126.999 733.35 127.998 734.162 128.718C734.986 129.428 736.071 129.78 737.417 129.78C738.763 129.78 740.046 129.411 741.097 128.667C742.153 127.918 743.022 126.902 743.709 125.619C744.408 124.336 744.896 122.889 745.169 121.282C745.43 119.699 745.424 118.274 745.152 117.014C744.891 115.754 744.351 114.754 743.539 114.028C742.721 113.296 741.614 112.932 740.205 112.932C738.797 112.932 737.627 113.284 736.57 113.982C735.531 114.681 734.662 115.657 733.975 116.906C733.288 118.155 732.805 119.619 732.532 121.288V121.282Z" fill="black"/>
<path d="M700.621 135.523C699.099 135.523 697.77 135.244 696.629 134.677C695.493 134.104 694.652 133.275 694.107 132.191C693.567 131.106 693.425 129.778 693.687 128.2C693.914 126.843 694.363 125.731 695.033 124.851C695.709 123.977 696.538 123.284 697.509 122.768C698.474 122.245 699.531 121.854 700.667 121.593C701.808 121.332 702.955 121.139 704.114 121.014C705.573 120.843 706.76 120.707 707.663 120.594C708.583 120.48 709.271 120.298 709.731 120.06C710.191 119.81 710.469 119.402 710.56 118.84V118.732C710.781 117.375 710.582 116.325 709.963 115.57C709.361 114.809 708.305 114.429 706.806 114.429C705.306 114.429 703.921 114.775 702.859 115.462C701.808 116.149 701.03 116.921 700.53 117.778L696.333 116.779C697.083 115.32 698.037 114.139 699.196 113.243C700.366 112.334 701.643 111.676 703.029 111.273C704.421 110.858 705.84 110.648 707.289 110.648C708.248 110.648 709.248 110.762 710.282 110.995C711.309 111.216 712.252 111.619 713.098 112.215C713.95 112.811 714.586 113.657 715.007 114.764C715.427 115.859 715.484 117.284 715.194 119.033L712.548 134.989H707.976L708.544 131.702H708.351C707.959 132.31 707.402 132.9 706.692 133.485C705.994 134.069 705.136 134.552 704.125 134.938C703.114 135.324 701.944 135.517 700.621 135.517V135.523ZM702.217 131.77C703.523 131.77 704.676 131.515 705.676 131.004C706.692 130.493 707.51 129.823 708.135 129C708.759 128.166 709.151 127.275 709.305 126.327L709.827 123.227C709.628 123.392 709.276 123.545 708.776 123.682C708.282 123.818 707.731 123.937 707.118 124.039C706.499 124.141 705.897 124.232 705.301 124.306C704.716 124.38 704.233 124.448 703.847 124.51C702.927 124.624 702.069 124.817 701.263 125.089C700.468 125.362 699.809 125.748 699.275 126.264C698.741 126.764 698.406 127.434 698.27 128.268C698.082 129.426 698.361 130.3 699.105 130.896C699.854 131.481 700.894 131.77 702.217 131.77Z" fill="black"/>
<path d="M666.824 120.718L664.478 134.983H659.793L665.114 102.945H669.737L667.761 114.866H668.062C668.823 113.566 669.845 112.538 671.129 111.784C672.424 111.023 674.008 110.643 675.888 110.643C677.535 110.643 678.921 110.983 680.034 111.659C681.164 112.334 681.953 113.35 682.413 114.696C682.885 116.03 682.959 117.698 682.635 119.702L680.068 134.989H675.388L677.83 120.27C678.12 118.51 677.893 117.142 677.137 116.171C676.388 115.189 675.212 114.701 673.616 114.701C672.497 114.701 671.47 114.934 670.521 115.405C669.578 115.876 668.783 116.563 668.136 117.471C667.494 118.368 667.051 119.452 666.824 120.724V120.718Z" fill="black"/>
<path d="M620.89 142.811C618.971 142.811 617.363 142.561 616.068 142.056C614.785 141.556 613.774 140.892 613.03 140.069C612.303 139.246 611.792 138.344 611.514 137.362L615.83 135.704C616.04 136.164 616.335 136.646 616.71 137.157C617.085 137.679 617.642 138.122 618.386 138.486C619.135 138.854 620.163 139.03 621.469 139.03C623.241 139.03 624.792 138.599 626.115 137.731C627.444 136.873 628.262 135.511 628.574 133.632L629.312 128.909H629.011C628.659 129.42 628.165 129.988 627.54 130.612C626.916 131.237 626.104 131.782 625.115 132.241C624.122 132.701 622.889 132.928 621.424 132.928C619.521 132.928 617.886 132.486 616.506 131.6C615.137 130.703 614.155 129.386 613.564 127.644C612.968 125.889 612.888 123.738 613.314 121.184C613.729 118.629 614.524 116.438 615.694 114.61C616.869 112.788 618.3 111.386 619.981 110.416C621.668 109.433 623.48 108.945 625.411 108.945C626.904 108.945 628.069 109.195 628.904 109.695C629.75 110.183 630.374 110.756 630.783 111.415C631.187 112.073 631.488 112.652 631.675 113.152H632.016L632.658 109.258H637.246L633.174 133.819C632.845 135.886 632.084 137.577 630.908 138.906C629.738 140.228 628.284 141.21 626.541 141.846C624.809 142.482 622.923 142.8 620.89 142.8V142.811ZM623.02 129.057C624.354 129.057 625.541 128.745 626.586 128.12C627.643 127.485 628.517 126.576 629.216 125.396C629.914 124.209 630.403 122.784 630.67 121.127C630.942 119.509 630.925 118.084 630.624 116.858C630.335 115.626 629.767 114.667 628.921 113.98C628.086 113.282 626.995 112.93 625.649 112.93C624.23 112.93 622.997 113.293 621.952 114.026C620.907 114.747 620.061 115.723 619.402 116.966C618.755 118.204 618.3 119.594 618.039 121.127C617.789 122.699 617.795 124.084 618.056 125.271C618.329 126.463 618.868 127.388 619.686 128.058C620.498 128.728 621.606 129.057 623.02 129.057Z" fill="black"/>
<path d="M587.143 120.724L584.798 134.989H580.112L584.122 110.961H588.614L587.955 114.872H588.256C589.017 113.589 590.057 112.567 591.369 111.806C592.692 111.034 594.259 110.648 596.065 110.648C597.695 110.648 599.058 110.995 600.166 111.682C601.285 112.357 602.068 113.373 602.528 114.718C603 116.064 603.073 117.727 602.75 119.708L600.183 134.995H595.503L597.962 120.276C598.24 118.533 598.013 117.176 597.269 116.194C596.542 115.201 595.378 114.707 593.782 114.707C592.692 114.707 591.687 114.94 590.761 115.411C589.841 115.882 589.063 116.569 588.427 117.477C587.802 118.374 587.37 119.458 587.143 120.73V120.724Z" fill="black"/>
<path d="M459.729 133.294L463.739 109.265H468.419L464.415 133.294H459.735H459.729ZM467.056 105.507C466.244 105.507 465.551 105.235 464.988 104.696C464.438 104.145 464.182 103.487 464.222 102.726C464.262 101.954 464.585 101.296 465.193 100.751C465.801 100.2 466.505 99.9219 467.306 99.9219C468.106 99.9219 468.805 100.2 469.356 100.751C469.912 101.296 470.168 101.948 470.14 102.726C470.094 103.487 469.77 104.145 469.168 104.696C468.578 105.241 467.868 105.507 467.056 105.507Z" fill="black"/>
<path d="M541.102 134.995L545.111 110.967H549.632L548.99 114.787H549.24C549.887 113.493 550.83 112.477 552.074 111.739C553.318 110.99 554.641 110.609 556.049 110.609C556.35 110.609 556.697 110.621 557.083 110.638C557.469 110.649 557.782 110.677 558.02 110.717L557.27 115.19C557.094 115.139 556.771 115.082 556.299 115.02C555.828 114.946 555.345 114.912 554.845 114.912C553.749 114.912 552.733 115.145 551.79 115.616C550.853 116.076 550.063 116.717 549.427 117.54C548.791 118.352 548.377 119.283 548.189 120.322L545.781 134.995H541.102Z" fill="black"/>
<path d="M517.499 133.784C515.142 133.784 513.188 133.279 511.644 132.268C510.11 131.247 509.037 129.811 508.418 127.966C507.804 126.109 507.702 123.935 508.122 121.443C508.531 118.986 509.349 116.811 510.582 114.938C511.814 113.059 513.347 111.595 515.182 110.539C517.028 109.483 519.066 108.961 521.304 108.961C522.661 108.961 523.939 109.182 525.137 109.631C526.347 110.079 527.375 110.783 528.221 111.742C529.068 112.702 529.652 113.951 529.976 115.483C530.311 117.004 530.3 118.855 529.942 121.035L529.675 122.692H510.547L511.093 119.19H525.62C525.842 117.958 525.785 116.868 525.45 115.92C525.115 114.961 524.541 114.206 523.729 113.65C522.928 113.099 521.912 112.821 520.691 112.821C519.47 112.821 518.271 113.15 517.187 113.809C516.102 114.467 515.193 115.302 514.46 116.323C513.739 117.334 513.285 118.378 513.097 119.451L512.552 122.658C512.28 124.412 512.325 125.82 512.694 126.881C513.069 127.943 513.728 128.721 514.665 129.197C515.602 129.68 516.778 129.918 518.186 129.918C519.095 129.918 519.935 129.793 520.708 129.544C521.491 129.283 522.184 128.902 522.786 128.403C523.394 127.892 523.899 127.256 524.303 126.495L528.59 127.296C528.017 128.601 527.193 129.742 526.12 130.724C525.047 131.695 523.78 132.45 522.315 132.989C520.867 133.523 519.259 133.79 517.493 133.79L517.499 133.784Z" fill="black"/>
<path d="M501.256 109.266L488.529 133.294H483.52L478.789 109.266H483.628L486.632 127.759H486.882L496.037 109.266H501.25H501.256Z" fill="black"/>
<path d="M563.144 134.989L567.153 110.961H571.833L567.829 134.989H563.149H563.144ZM570.47 107.203C569.658 107.203 568.97 106.93 568.408 106.391C567.852 105.84 567.596 105.182 567.642 104.421C567.681 103.649 568.005 102.991 568.607 102.446C569.215 101.895 569.919 101.617 570.725 101.617C571.532 101.617 572.219 101.895 572.77 102.446C573.326 102.991 573.588 103.644 573.554 104.421C573.514 105.182 573.19 105.84 572.582 106.391C571.992 106.936 571.288 107.203 570.47 107.203Z" fill="black"/>
<path d="M454.471 101.258L449.149 133.296H444.47L449.791 101.258H454.471Z" fill="black"/>
<path d="M420.861 133.784C418.504 133.784 416.551 133.279 415.006 132.268C413.472 131.247 412.399 129.811 411.78 127.966C411.167 126.109 411.064 123.935 411.485 121.443C411.894 118.986 412.711 116.811 413.944 114.938C415.176 113.059 416.71 111.595 418.544 110.539C420.39 109.483 422.429 108.961 424.666 108.961C426.024 108.961 427.301 109.182 428.5 109.631C429.709 110.079 430.737 110.783 431.584 111.742C432.43 112.702 433.015 113.951 433.339 115.483C433.674 117.004 433.662 118.855 433.304 121.035L433.037 122.692H413.91L414.455 119.19H428.983C429.204 117.958 429.147 116.868 428.812 115.92C428.477 114.961 427.903 114.206 427.091 113.65C426.291 113.099 425.274 112.821 424.053 112.821C422.832 112.821 421.634 113.15 420.549 113.809C419.464 114.467 418.555 115.302 417.823 116.323C417.102 117.334 416.647 118.378 416.46 119.451L415.915 122.658C415.642 124.412 415.687 125.82 416.057 126.881C416.431 127.943 417.09 128.721 418.027 129.197C418.964 129.68 420.14 129.918 421.548 129.918C422.457 129.918 423.298 129.793 424.07 129.544C424.854 129.283 425.547 128.902 426.149 128.403C426.756 127.892 427.262 127.256 427.665 126.495L431.953 127.296C431.379 128.601 430.556 129.742 429.482 130.724C428.409 131.695 427.142 132.45 425.677 132.989C424.223 133.523 422.622 133.79 420.856 133.79L420.861 133.784Z" fill="black"/>
<path d="M385.627 133.767C383.674 133.767 382.021 133.273 380.669 132.28C379.323 131.281 378.369 129.856 377.807 128.011C377.256 126.155 377.193 123.93 377.619 121.33C378.057 118.73 378.869 116.51 380.044 114.666C381.226 112.821 382.651 111.407 384.332 110.425C386.013 109.443 387.825 108.955 389.767 108.955C391.261 108.955 392.414 109.205 393.243 109.704C394.078 110.193 394.691 110.766 395.089 111.424C395.486 112.083 395.782 112.662 395.98 113.161H396.247L398.235 101.258H402.915L397.593 133.296H393.022L393.663 129.555H393.271C392.908 130.066 392.403 130.65 391.755 131.309C391.119 131.967 390.301 132.541 389.313 133.029C388.319 133.517 387.092 133.767 385.633 133.767H385.627ZM387.206 129.776C388.552 129.776 389.756 129.419 390.824 128.715C391.897 127.994 392.789 127 393.499 125.723C394.22 124.452 394.72 122.97 395.004 121.279C395.282 119.61 395.282 118.151 394.987 116.896C394.691 115.642 394.129 114.671 393.294 113.973C392.459 113.275 391.358 112.923 389.989 112.923C388.62 112.923 387.354 113.286 386.314 114.018C385.269 114.751 384.412 115.744 383.747 117.004C383.089 118.264 382.629 119.689 382.367 121.273C382.095 122.879 382.083 124.327 382.339 125.61C382.589 126.893 383.117 127.909 383.918 128.658C384.718 129.396 385.815 129.771 387.206 129.771V129.776Z" fill="black"/>
<path d="M909.617 27.0854L909.571 27.9709H929.352L929.472 27.2671C929.909 24.7865 929.738 21.8744 929.21 19.1497C928.676 16.4251 927.768 13.8082 926.649 11.935C924.44 8.22259 920.941 5.36734 916.228 3.34085C911.508 1.29166 905.766 0.28125 899.031 0.28125C892.295 0.28125 886.275 1.2803 880.653 3.27841C875.07 5.25381 870.402 8.0523 866.682 11.6795C862.973 15.3011 860.622 19.5471 859.651 24.4175V24.4288C858.555 30.3891 859.935 35.2538 863.899 38.864C867.755 42.3778 873.389 44.9094 880.709 46.5159H880.715L890.08 48.6332H890.097C893.187 49.286 895.748 50.0296 897.787 50.864H897.804C899.86 51.6701 901.257 52.6124 902.092 53.6398C902.87 54.5935 903.148 55.7912 902.841 57.3295V57.3409C902.529 59.0041 901.666 60.497 900.212 61.8252C898.741 63.1649 896.799 64.2321 894.351 65.0097H894.345C891.937 65.7874 889.149 66.1791 885.974 66.1791C882.799 66.1791 880.034 65.759 877.722 64.9416C877.16 64.7373 876.99 64.5897 876.95 64.5386C876.944 64.5386 876.944 64.5386 876.944 64.5386C876.938 64.5272 876.933 64.4989 876.933 64.4194C876.933 64.3967 876.938 64.3569 876.938 64.3115C876.95 64.1242 876.973 63.7666 876.938 63.4657C876.887 63.0003 876.717 62.5064 876.336 61.9615C875.911 61.3427 875.808 60.4743 875.911 59.2879C875.967 58.7089 876.064 58.0901 876.172 57.4374C876.183 57.3522 876.2 57.2614 876.217 57.1762C876.308 56.6086 876.41 56.0182 876.478 55.4392L876.598 54.4913H851.575L851.456 55.2008C850.53 60.917 851.206 65.8044 853.58 69.8063H853.585C855.976 73.7628 859.781 76.7089 864.91 78.6786C870.027 80.6427 876.257 81.6076 883.566 81.6076C890.875 81.6076 897.458 80.654 903.114 78.724C908.765 76.7713 913.365 74.0239 916.892 70.4591C920.424 66.8603 922.679 62.5972 923.645 57.6928C924.281 54.3494 924.167 51.3352 923.264 48.6673C922.367 46.022 920.822 43.7344 918.647 41.7988C916.523 39.8858 913.893 38.285 910.787 36.9965C907.72 35.7136 904.284 34.6862 900.473 33.9199L892.772 32.2567H892.761C890.955 31.882 889.245 31.4392 887.644 30.917C886.065 30.3777 884.713 29.7647 883.583 29.0722C882.521 28.3853 881.772 27.5906 881.3 26.7108C880.886 25.8934 880.778 24.8943 881.067 23.6625V23.6285C881.357 22.1242 882.095 20.7902 883.322 19.6209C884.577 18.4175 886.281 17.4525 888.473 16.7486H888.479C890.648 16.0277 893.244 15.6531 896.271 15.6531C900.746 15.6531 903.926 16.4988 905.959 18.0542C906.919 18.7808 907.879 20.251 908.583 22.0163C909.287 23.7647 909.674 25.6436 909.611 27.0627L909.617 27.0854Z" fill="#F88F1F" stroke="#F88F1F"/>
<path d="M766.29 79.074L784.089 1.97656H852.751L848.514 21.4638H804.438L801.893 30.7845H842.579L838.343 48.5745H798.503L795.112 62.9756H838.343L836.645 79.074H766.29Z" fill="#F88F1F"/>
<path d="M684.912 79.074L702.717 1.97656H771.379L767.136 21.4638H723.06L720.515 30.7845H761.207L756.965 48.5745H717.125L713.734 62.9756H756.965L755.272 79.074H684.912Z" fill="#F88F1F"/>
<path d="M596.775 80.5918L596.56 81.6192H640.562C648.156 81.6192 654.778 80.6712 660.423 78.7583C666.074 76.851 670.64 74.2455 674.087 70.9134H674.093C677.534 67.5586 679.738 63.7214 680.664 59.4073C681.51 55.4281 681.169 51.903 679.55 48.8945C677.955 45.9371 675.547 43.6665 672.361 42.0714C670.112 40.9305 667.669 40.1585 665.046 39.7668C667.567 39.1424 669.952 38.2852 672.201 37.1953C675.331 35.6797 677.977 33.7441 680.118 31.3713C682.311 28.9815 683.77 26.183 684.491 22.9986C685.383 18.9058 684.878 15.2275 682.913 12.0203C680.948 8.78475 677.534 6.32685 672.815 4.58986C668.101 2.84152 662.002 1.98438 654.55 1.98438H613.609L613.467 2.6542L596.775 80.5974V80.5918ZM656.663 52.306V52.3174C657.526 53.7592 657.793 55.4394 657.401 57.4205C656.839 60.0544 655.158 62.2114 652.216 63.8917C649.291 65.5605 644.964 66.4461 639.137 66.4461H622.854L626.864 47.4357H643.947C647.349 47.4357 650.092 47.8954 652.211 48.781H652.216C654.386 49.6722 655.834 50.8585 656.663 52.3004V52.306ZM657.958 30.2133H657.952C656.459 31.587 654.522 32.6769 652.131 33.4602C649.768 34.2152 647.19 34.6012 644.39 34.6012H629.681L633.441 16.9986H648.854C653.466 16.9986 656.669 17.8557 658.639 19.4054H658.651C659.656 20.1774 660.303 21.0459 660.65 22.0052C660.996 22.9645 661.059 24.0828 660.792 25.377C660.406 27.2218 659.469 28.8283 657.958 30.2133Z" fill="#F88F1F" stroke="#F88F1F"/>
<path d="M570.549 27.0854L570.509 27.9709H590.284L590.409 27.2671C590.841 24.7865 590.676 21.8744 590.142 19.1497C589.614 16.4251 588.7 13.8082 587.587 11.935C585.378 8.22259 581.873 5.36734 577.165 3.34085C572.446 1.29166 566.704 0.28125 559.963 0.28125C553.222 0.28125 547.207 1.2803 541.591 3.27841C536.002 5.25381 531.34 8.0523 527.62 11.6795C523.911 15.3011 521.56 19.5471 520.589 24.4175V24.4288C519.493 30.3891 520.873 35.2538 524.837 38.864C528.693 42.3778 534.327 44.9094 541.647 46.5159L551.018 48.6332H551.029C554.125 49.286 556.686 50.0296 558.725 50.864H558.736C560.792 51.6701 562.195 52.6124 563.03 53.6398C563.808 54.5935 564.086 55.7912 563.779 57.3295V57.3409C563.467 59.0041 562.604 60.497 561.15 61.8252C559.679 63.1649 557.742 64.2321 555.289 65.0097C552.881 65.7874 550.092 66.1791 546.918 66.1791C543.743 66.1791 540.972 65.759 538.666 64.9416C538.103 64.7373 537.933 64.5897 537.893 64.5386C537.893 64.5272 537.882 64.4989 537.888 64.4194C537.888 64.3967 537.888 64.3569 537.888 64.3115C537.899 64.1242 537.922 63.7666 537.888 63.4657C537.837 63.0003 537.666 62.5064 537.28 61.9615C536.86 61.3427 536.758 60.4743 536.86 59.2879C536.911 58.7089 537.007 58.0901 537.115 57.4374C537.127 57.3522 537.144 57.2614 537.161 57.1762C537.252 56.6086 537.354 56.0182 537.428 55.4392L537.547 54.4913H512.524L512.405 55.2008C511.479 60.917 512.149 65.8044 514.529 69.8063C516.926 73.7628 520.725 76.7089 525.853 78.6786C530.97 80.6427 537.201 81.6076 544.51 81.6076C551.819 81.6076 558.401 80.654 564.052 78.724C569.697 76.7713 574.297 74.0239 577.824 70.4591C581.351 66.8603 583.606 62.5972 584.577 57.6928C585.207 54.3494 585.099 51.3352 584.196 48.6673C583.299 46.022 581.754 43.7344 579.579 41.7988C577.449 39.8858 574.826 38.285 571.719 36.9965C568.652 35.7136 565.211 34.6862 561.4 33.9199L553.699 32.2567H553.687C551.881 31.882 550.172 31.4392 548.57 30.917C546.992 30.3777 545.64 29.7647 544.504 29.0722C543.442 28.3853 542.698 27.5906 542.221 26.7108C541.806 25.8934 541.704 24.8943 541.988 23.6625V23.6455L541.994 23.6285C542.278 22.1242 543.016 20.7902 544.243 19.6209C545.504 18.4175 547.207 17.4525 549.394 16.7486H549.4C551.569 16.0277 554.164 15.6531 557.191 15.6531C561.667 15.6531 564.847 16.4988 566.886 18.0542C567.846 18.7808 568.806 20.251 569.515 22.0163C570.214 23.7647 570.606 25.6436 570.538 27.0627L570.549 27.0854Z" fill="black" stroke="black"/>
<path d="M490.869 27.0854L490.829 27.9709H510.604L510.729 27.2671C511.161 24.7865 510.996 21.8744 510.462 19.1497C509.934 16.4251 509.019 13.8082 507.906 11.935C505.697 8.22259 502.199 5.36734 497.485 3.34085C492.765 1.29166 487.024 0.28125 480.288 0.28125C473.553 0.28125 467.533 1.2803 461.916 3.27841C456.327 5.25381 451.665 8.0523 447.945 11.6795C444.236 15.3011 441.885 19.5471 440.914 24.4175V24.4288C439.818 30.3891 441.198 35.2538 445.162 38.864C449.018 42.3778 454.652 44.9094 461.973 46.5159L471.343 48.6332H471.355C474.45 49.286 477.011 50.0296 479.05 50.864H479.061C481.117 51.6701 482.52 52.6124 483.355 53.6398C484.133 54.5935 484.411 55.7912 484.105 57.3295V57.3409C483.792 59.0041 482.929 60.497 481.475 61.8252C480.004 63.1649 478.068 64.2321 475.614 65.0097C473.206 65.7874 470.418 66.1791 467.243 66.1791C464.068 66.1791 461.297 65.759 458.991 64.9416C458.429 64.7373 458.258 64.5897 458.219 64.5386C458.219 64.5272 458.207 64.4989 458.213 64.4194C458.213 64.3967 458.213 64.3569 458.213 64.3115C458.224 64.1242 458.247 63.7666 458.213 63.4657C458.162 63.0003 457.991 62.5064 457.605 61.9615C457.185 61.3427 457.077 60.4743 457.185 59.2879C457.236 58.7089 457.333 58.0901 457.441 57.4374C457.452 57.3522 457.469 57.2614 457.486 57.1762C457.577 56.6086 457.679 56.0182 457.753 55.4392L457.872 54.4913H432.849L432.73 55.2008C431.804 60.917 432.475 65.8044 434.854 69.8063C437.251 73.7628 441.05 76.7089 446.179 78.6786C451.296 80.6427 457.526 81.6076 464.835 81.6076C472.144 81.6076 478.726 80.654 484.383 78.724C490.028 76.7713 494.628 74.0239 498.155 70.4591C501.688 66.8603 503.942 62.5972 504.908 57.6928C505.544 54.3494 505.43 51.3352 504.527 48.6673C503.63 46.022 502.085 43.7344 499.91 41.7988C497.786 39.8858 495.156 38.285 492.05 36.9965C488.983 35.7136 485.547 34.6862 481.736 33.9199L474.035 32.2567H474.024C472.218 31.882 470.508 31.4392 468.907 30.917C467.328 30.3777 465.976 29.7647 464.841 29.0722C463.779 28.3853 463.035 27.5906 462.557 26.7108C462.143 25.8934 462.041 24.8943 462.325 23.6625V23.6455L462.33 23.6285C462.614 22.1242 463.353 20.7902 464.579 19.6209C465.84 18.4175 467.544 17.4525 469.73 16.7486H469.736C471.906 16.0277 474.501 15.6531 477.528 15.6531C482.003 15.6531 485.184 16.4988 487.223 18.0542C488.182 18.7808 489.142 20.251 489.846 22.0163C490.545 23.7647 490.937 25.6436 490.869 27.0627V27.0854Z" fill="black" stroke="black"/>
<path d="M349.24 79.074L367.039 1.97656H435.701L431.464 21.4638H387.388L384.843 30.7845H425.53L421.293 48.5745H381.453L378.062 62.9756H421.293L419.6 79.074H349.246H349.24Z" fill="black"/>
<path fill-rule="evenodd" clip-rule="evenodd" d="M280.577 3.67188L261.927 80.7693H287.358L293.293 52.8128H311.092C312.784 53.9425 316.181 57.3881 316.181 62.1336L315.334 80.7693H340.766L341.612 53.6586C341.612 51.9614 340.255 45.6946 334.831 44.3379H333.985C340.482 41.511 354.328 31.7987 350.938 18.9188C349.524 13.8384 344.157 4.51767 332.287 4.51767L280.577 3.67188ZM300.074 21.4618L296.684 37.5602H317.873C322.394 34.4552 329.232 26.8829 320.417 21.4618H300.074Z" fill="black"/>
<path d="M179.703 80.7682L196.656 2.48438H238.972C245.491 2.48438 250.841 3.73319 255.027 6.23083C259.241 8.70008 262.188 12.14 262.722 13.5024C264.437 17.8846 264.829 22.9366 263.904 28.6641C262.949 34.42 260.871 39.4891 257.668 43.8713C254.493 48.2252 250.364 51.6197 245.276 54.0662C240.187 56.5128 234.32 57.7275 227.659 57.7275H205.958L213.864 39.2507H227.659C231.197 39.2507 233.145 39.6083 235.644 38.4049C238.171 37.1674 238.813 36.333 240.301 34.1703C241.789 31.9792 241.578 31.6272 241.578 28.6641C242.055 25.7691 239.034 23.1523 238.966 23.1523C237.336 21.455 235.644 21.455 233.945 21.455H217.839L204.277 80.7568H179.697L179.703 80.7682Z" fill="black"/>
<path d="M135.678 2.82812L142.408 24.8584L158.514 2.82812H188.182L152.579 40.1053L172.922 80.7714H142.408L133.928 57.0495H132.23L114.432 81.6172L83.917 80.7714L119.179 33.6342L105.112 2.82812H135.678Z" fill="black"/>
<path d="M39.8399 37.5602L0 79.9235H16.9526L55.9463 38.4117L37.2956 3.67188H21.1893L39.8399 37.5602Z" fill="black"/>
<path d="M66.1178 37.5623L25.4316 80.7714H43.2304L83.0704 40.1053L64.4254 2.82812H49.1652L66.1178 37.5623Z" fill="black"/>
<path d="M92.3961 37.5623L51.71 80.7714H69.5087L109.349 40.1053L90.698 2.82812H75.4379L92.3904 37.5623H92.3961Z" fill="black"/>
</g>
<defs>
<clipPath id="clip0_6120_1821">
<rect width="930" height="144" fill="white"/>
</clipPath>
</defs>
</svg>
