<svg width="576" height="189" viewBox="0 0 576 189" fill="none" xmlns="http://www.w3.org/2000/svg">
<g clip-path="url(#clip0_6120_1802)">
<rect width="576" height="189" fill="white"/>
<path fill-rule="evenodd" clip-rule="evenodd" d="M0 189H244.033V0H0V189Z" fill="white"/>
<path fill-rule="evenodd" clip-rule="evenodd" d="M4.01562 11.3594V185.702L200.254 184.691C181.814 90.4588 101.932 18.2174 4.01562 11.3594Z" fill="#0000D4"/>
<path fill-rule="evenodd" clip-rule="evenodd" d="M133.821 44.0869L220.771 9.61719L109.589 30.3638C117.961 34.4624 126.055 39.0438 133.821 44.0869Z" fill="#5F5FD3"/>
<path fill-rule="evenodd" clip-rule="evenodd" d="M103.486 27.4924L218.574 3.03125H4.29004V7.01355C5.57322 6.99241 6.85639 6.96422 8.1431 6.96422C42.1403 6.96422 74.4173 14.3121 103.486 27.4924Z" fill="#5F5FD3"/>
<path fill-rule="evenodd" clip-rule="evenodd" d="M153.922 58.7371L221.296 13.8359L138.979 47.5444C144.115 51.0791 149.099 54.8112 153.922 58.7371Z" fill="#5F5FD3"/>
<path fill-rule="evenodd" clip-rule="evenodd" d="M170.491 73.5937L223.933 20.1641L157.979 62.1261C162.291 65.7983 166.465 69.6184 170.491 73.5937Z" fill="#5F5FD3"/>
<path fill-rule="evenodd" clip-rule="evenodd" d="M185.635 90.0659L227.627 24.3828L174.178 77.3084C178.154 81.4141 181.968 85.6748 185.635 90.0659Z" fill="#5F5FD3"/>
<path fill-rule="evenodd" clip-rule="evenodd" d="M199.432 108.36L231.847 28.6016L188.236 93.2415C192.167 98.1224 195.904 103.162 199.432 108.36Z" fill="#5F5FD3"/>
<path fill-rule="evenodd" clip-rule="evenodd" d="M202.904 113.617C207.536 120.86 211.777 128.362 215.595 136.112L236.591 30.1797L202.904 113.617Z" fill="#5F5FD3"/>
<path fill-rule="evenodd" clip-rule="evenodd" d="M219.262 143.929C225.237 157.317 229.982 171.379 233.338 185.965H240.022V35.5156L219.262 143.929Z" fill="#5F5FD3"/>
<path fill-rule="evenodd" clip-rule="evenodd" d="M552.973 42.3662C553.234 32.6114 547.699 32.8757 547.699 32.8757H576C576 32.8757 570.465 32.6114 570.726 42.3662V152.425C570.465 162.18 576 161.916 576 161.916H547.699C547.699 161.916 553.234 162.177 552.973 152.425V42.3662Z" fill="black"/>
<path fill-rule="evenodd" clip-rule="evenodd" d="M270.109 30.5156V46.5293C270.109 46.5293 272.284 38.8185 281.383 38.6212H303.793V152.43C304.036 161.487 299.281 161.906 298.6 161.921H326.735C326.062 161.906 321.303 161.487 321.546 152.43V38.6212H345.845C354.944 38.8185 357.119 46.5293 357.119 46.5293V30.5156H270.109Z" fill="black"/>
<path fill-rule="evenodd" clip-rule="evenodd" d="M453.83 36.8761C473.966 36.8761 491.317 49.6406 500.148 68.382V45.0345C487.739 35.1176 470.952 29.1406 453.435 29.1406C414.08 29.1406 382.173 59.3179 382.173 96.5435C382.173 133.766 414.08 163.946 453.435 163.946C471.174 163.946 487.676 157.814 500.148 147.661V122.298C491.578 141.92 474.541 155.418 453.83 155.418C424.789 155.418 401.248 128.885 401.248 96.1452C401.248 63.4165 424.786 36.8761 453.83 36.8761Z" fill="black"/>
</g>
<defs>
<clipPath id="clip0_6120_1802">
<rect width="576" height="189" fill="white"/>
</clipPath>
</defs>
</svg>
