<svg width="3183" height="707" viewBox="0 0 3183 707" fill="none" xmlns="http://www.w3.org/2000/svg">
<path d="M0 290.612C0 132.593 124.336 19.4922 291.633 19.4922C384.506 19.4922 462.007 52.4455 512.672 112.357L432.848 184.259C396.773 143.822 351.506 122.827 297.784 122.827C197.241 122.827 125.859 191.743 125.859 290.603C125.859 389.463 197.241 458.378 297.784 458.378C351.506 458.378 396.773 437.377 432.848 396.207L512.672 468.102C462.007 528.772 384.506 561.729 290.865 561.729C124.336 561.735 0 448.634 0 290.612Z" fill="#F15B40"/>
<path d="M1254.31 167.775H1360.24V257.65H1257.4L1256.21 561.724H1136.46L1137.66 257.65H1072.76V167.775H1137.66V149.786C1137.66 59.1909 1193.25 0 1296.08 0C1329.85 0 1365.15 6.76015 1387.42 21.7404L1355.94 106.372C1341.63 96.8631 1324.79 91.8981 1307.61 92.1284C1272.3 92.1284 1254.31 110.854 1254.31 150.554V167.775Z" fill="#082340"/>
<path d="M1384.02 354.238C1384.02 232.921 1479.97 146.781 1611.22 146.781C1742.47 146.781 1837.62 232.921 1837.62 354.238C1837.62 475.556 1741.22 561.683 1609.98 561.683C1478.74 561.683 1384.02 475.559 1384.02 354.238ZM1716.33 354.238C1716.33 284.583 1671.06 242.645 1611.21 242.645C1551.35 242.645 1505.3 284.583 1505.3 354.238C1505.3 423.893 1551.32 465.835 1611.22 465.835C1671.12 465.835 1716.34 423.893 1716.34 354.238" fill="#082340"/>
<path d="M2177.69 146.562V256.058C2167.56 255.29 2159.76 254.534 2150.39 254.534C2083.4 254.534 2038.99 290.249 2038.99 368.575L2037.75 561.715H1916.19V152.662H2033.54V206.648C2063.13 167.106 2113.02 146.575 2177.68 146.575" fill="#082340"/>
<path d="M2667.25 152.786V488.311C2667.25 638.095 2583.16 706.985 2434.26 706.985C2355.97 706.985 2280 688.259 2231.64 651.555L2279.23 567.659C2314.55 595.391 2372.08 613.361 2425.07 613.361C2509.47 613.361 2547.54 575.911 2547.54 503.257V486.02C2516.06 519.741 2470.77 536.226 2417.05 536.226C2302.69 536.226 2210.6 459.075 2210.6 341.486C2210.6 223.898 2302.69 146.781 2417.05 146.781C2474.63 146.781 2522.2 165.507 2553.67 204.452V152.786H2667.25ZM2549.06 341.496C2549.06 282.349 2503.79 242.636 2440.86 242.636C2377.93 242.636 2331.85 282.355 2331.85 341.496C2331.85 400.636 2377.92 440.356 2440.86 440.356C2503.81 440.356 2549.06 400.658 2549.06 341.496Z" fill="#082340"/>
<path d="M3180.7 387.223H2868.32C2879.84 437.413 2923.6 468.123 2986.51 468.123C3030.27 468.123 3061.73 455.386 3090.14 429.161L3153.83 496.576C3115.46 539.238 3056.69 561.727 2982.26 561.727C2839.5 561.727 2747.83 474.099 2747.83 354.27C2747.83 233.685 2842.24 146.797 2968.1 146.797C3089.35 146.797 3182.98 226.192 3182.98 355.758C3182.98 364.746 3181.44 377.483 3180.67 387.223M2866.77 319.057H3070.14C3061.71 268.13 3022.56 235.193 2968.84 235.193C2914.36 235.193 2875.2 267.394 2866.77 319.057Z" fill="#082340"/>
<path d="M800.059 465.822C740.37 465.635 694.536 423.731 694.536 354.235C694.536 284.739 740.37 242.836 800.059 242.648V146.781C669.011 146.956 573.26 233.038 573.26 354.235C573.26 475.556 667.982 561.676 799.221 561.676H800.059V465.822Z" fill="#F15B40"/>
<path d="M800.059 465.822C859.748 465.635 905.582 423.731 905.582 354.235C905.582 284.739 859.748 242.836 800.059 242.648V146.781C931.107 146.956 1026.86 233.038 1026.86 354.235C1026.86 475.556 932.135 561.676 800.896 561.676H800.059V465.822Z" fill="#082340"/>
</svg>
