<svg width="1099" height="584" viewBox="0 0 1099 584" fill="none" xmlns="http://www.w3.org/2000/svg">
<g clip-path="url(#clip0_6112_1711)">
<path d="M95.2272 510.977H74.7168V582.94H95.2272C119.034 582.94 134.417 568.829 134.417 546.958C134.417 525.087 119.034 510.977 95.2272 510.977ZM88.8177 524.029H94.6778C110.976 524.029 119.949 532.142 119.949 546.958C119.949 561.774 110.976 569.888 94.6778 569.888H88.8177V524.029Z" fill="#AB1F24"/>
<path d="M164.266 510.977H149.982V582.94H164.266V510.977Z" fill="#AB1F24"/>
<path d="M177.635 524.029H198.512V582.94H212.613V524.029H233.306V510.977H177.635V524.029Z" fill="#AB1F24"/>
<path d="M288.428 510.977L271.214 539.727L253.816 510.977H237.701L264.072 554.366V582.94H278.173V554.366L304.177 510.977H288.428Z" fill="#AB1F24"/>
<path d="M452.878 544.842C456.357 541.49 458.188 536.904 458.188 531.26C458.188 518.914 449.215 510.977 435.114 510.977H408.744V582.94H436.579C451.779 582.94 461.485 574.474 461.485 561.421C461.485 554.19 458.555 548.369 452.878 544.842ZM434.565 523.852C440.974 523.852 444.087 526.322 444.087 531.613C444.087 536.904 441.524 539.374 435.664 539.374H422.845V523.852H434.565ZM423.028 552.073H435.847C443.355 552.073 447.384 555.072 447.384 561.069C447.384 567.066 443.721 570.064 436.03 570.064H423.028V552.073Z" fill="#AB1F24"/>
<path d="M491.151 510.977H476.867V582.94H491.151V510.977Z" fill="#AB1F24"/>
<path d="M560.924 533.906C560.924 520.148 550.485 510.977 534.736 510.977H510.929V582.94H525.03V556.659H534.004L550.852 582.94H567.15L548.288 553.837C556.345 550.133 560.924 543.078 560.924 533.906ZM524.847 524.029H534.187C542.428 524.029 546.456 527.38 546.456 534.082C546.456 538.316 545.175 543.783 534.187 543.783H524.847V524.029Z" fill="#AB1F24"/>
<path d="M591.872 510.977H577.588V582.94H622.821V570.064H591.872V510.977Z" fill="#AB1F24"/>
<path d="M771.888 556.663H792.032V565.834C787.82 568.833 782.326 570.244 775.551 570.244C761.45 570.244 751.194 560.367 751.194 546.609C751.194 532.851 760.9 522.974 774.452 522.974C784.341 522.974 789.102 526.678 792.398 530.206L794.962 533.028L805.034 523.856L802.471 521.21C795.329 513.626 786.172 509.922 774.452 509.922C753.209 509.922 736.544 525.973 736.544 546.609C736.544 567.598 753.209 583.296 775.368 583.296C787.271 583.296 796.427 580.121 804.485 573.419L805.767 572.361V543.787H771.705V556.663" fill="#AB1F24"/>
<path d="M872.243 533.554C872.243 519.797 861.804 510.625 846.055 510.625H822.249V582.588H836.349V556.308H845.323L862.171 582.588H878.469L859.607 553.485C867.665 549.781 872.243 542.55 872.243 533.554ZM836.349 523.501H845.689C853.93 523.501 857.776 526.852 857.776 533.554C857.776 537.788 856.494 543.255 845.689 543.255H836.349V523.501Z" fill="#AB1F24"/>
<path d="M922.786 509.922C901.36 509.922 884.695 525.973 884.695 546.609C884.695 567.246 901.36 583.296 922.786 583.296C944.212 583.296 961.06 567.246 961.06 546.609C961.06 525.973 944.212 509.922 922.786 509.922ZM922.786 570.244C909.051 570.244 898.979 560.367 898.979 546.609C898.979 532.851 909.051 522.974 922.786 522.974C936.521 522.974 946.593 532.851 946.593 546.609C946.593 560.367 936.521 570.244 922.786 570.244Z" fill="#AB1F24"/>
<path d="M1016.18 556.484C1016.18 565.656 1011.6 570.242 1002.81 570.242C994.023 570.242 989.445 565.479 989.445 556.484V510.625H975.344V556.837C975.344 572.887 986.149 583.117 1002.81 583.117C1019.48 583.117 1030.28 572.711 1030.28 556.837V510.625H1016.18V556.484Z" fill="#AB1F24"/>
<path d="M1072.59 510.625H1048.96V582.588H1063.06V556.837H1072.4C1088.33 556.837 1098.59 547.841 1098.59 533.731C1098.77 519.797 1088.52 510.625 1072.59 510.625ZM1063.25 523.501H1072.22C1080.46 523.501 1084.31 526.852 1084.31 533.731C1084.31 540.61 1080.28 543.785 1072.22 543.785H1063.25V523.501Z" fill="#AB1F24"/>
<path d="M0 582.761H13.9178L20.1442 567.945H43.5847L49.811 582.761H63.912L32.0475 508.328L0 582.761ZM25.2718 555.774L31.8644 540.077L38.4571 555.774H25.2718Z" fill="#AB1F24"/>
<path d="M299.049 582.94H312.967L319.01 568.124H342.451L348.677 582.94H362.778L330.914 508.508L299.049 582.94ZM324.138 556.131L330.731 540.433L337.323 556.131H324.138Z" fill="#AB1F24"/>
<path d="M631.794 582.761H645.712L651.939 567.945H675.379L681.605 582.761H695.706L663.842 508.328L631.794 582.761ZM656.883 555.774L663.476 540.077L670.068 555.774H656.883Z" fill="#AB1F24"/>
<path d="M930.478 288.029L827.559 333.712L714.569 198.075L840.744 0H930.478V288.029Z" fill="#AB1F24"/>
<path d="M930.478 457.18V288.031L827.559 333.714L930.478 457.18Z" fill="#EF7032"/>
<path d="M714.569 198.075L549.386 0H840.744L714.569 198.075Z" fill="#EF7032"/>
<path d="M669.153 269.336L714.386 198.255L549.386 0.179688V237.411H550.485C594.07 237.235 634.725 249.052 669.153 269.336Z" fill="#FFD35D"/>
<path d="M550.485 237.234H549.386V457.181L669.153 269.336C634.541 249.052 594.07 237.234 550.485 237.234Z" fill="#AB1F24"/>
<path d="M757.787 364.758L827.559 333.715L714.569 198.078L669.153 269.336C707.61 291.912 738.559 325.072 757.787 364.758Z" fill="#EF7032"/>
<path d="M669.153 269.336L549.386 457.357L757.787 364.758C738.559 325.072 707.61 291.913 669.153 269.336Z" fill="#D31F26"/>
<path d="M827.559 333.711L757.787 364.754C771.339 392.798 779.03 424.194 779.03 457.354H930.478L827.559 333.711Z" fill="#FFD35D"/>
<path d="M549.386 457.178H778.847C778.847 424.195 771.339 392.799 757.787 364.578L549.386 457.178Z" fill="#AB1F24"/>
<path d="M168.479 288.029L271.397 333.712L384.387 198.075L258.212 0H168.479V288.029Z" fill="#AB1F24"/>
<path d="M168.479 457.18V288.031L271.397 333.714L168.479 457.18Z" fill="#EF7032"/>
<path d="M384.387 198.075L549.386 0H258.212L384.387 198.075Z" fill="#EF7032"/>
<path d="M429.62 269.336L384.387 198.255L549.387 0.179688V237.411H548.288C504.886 237.235 464.232 249.052 429.62 269.336Z" fill="#D31F26"/>
<path d="M548.288 237.234H549.386V457.181L429.803 269.336C464.231 249.052 504.886 237.234 548.288 237.234Z" fill="#EF7032"/>
<path d="M341.169 364.758L271.397 333.715L384.387 198.078L429.62 269.159C391.163 291.912 360.214 325.072 341.169 364.758Z" fill="#EF7032"/>
<path d="M429.62 269.336L549.386 457.357L341.169 364.758C360.214 325.072 391.163 291.913 429.62 269.336Z" fill="#D31F26"/>
<path d="M271.397 333.711L341.169 364.754C327.617 392.798 319.926 424.194 319.926 457.354H168.479L271.397 333.711Z" fill="#FFD35D"/>
<path d="M549.386 457.178H319.926C319.926 424.195 327.434 392.799 341.169 364.578L549.386 457.178Z" fill="#AB1F24"/>
</g>
<defs>
<clipPath id="clip0_6112_1711">
<rect width="1099" height="584" fill="white"/>
</clipPath>
</defs>
</svg>
