<svg width="2462" height="2462" viewBox="0 0 2462 2462" fill="none" xmlns="http://www.w3.org/2000/svg">
<g clip-path="url(#clip0_6112_1758)">
<path d="M2357.27 1230.69C2357.27 1529.47 2238.57 1816.02 2027.3 2027.29C1816.03 2238.56 1529.48 2357.25 1230.7 2357.25C931.917 2357.25 645.37 2238.56 434.098 2027.29C222.826 1816.02 104.135 1529.47 104.135 1230.69C104.135 931.909 222.826 645.365 434.098 434.094C645.37 222.823 931.917 104.133 1230.7 104.133C1529.48 104.133 1816.03 222.823 2027.3 434.094C2238.57 645.365 2357.27 931.909 2357.27 1230.69Z" stroke="black" stroke-width="208.27"/>
<path d="M870.787 268.055C868.605 268.055 866.422 268.055 870.787 268.055Z" stroke="black" stroke-width="0.820465"/>
<path fill-rule="evenodd" clip-rule="evenodd" d="M844.598 235.317L166.955 1400.73L1034.47 1404.01L1227.62 1060.27H615.443L1152.32 163.297L844.598 235.317Z" fill="black" stroke="black" stroke-width="15.7529"/>
<path fill-rule="evenodd" clip-rule="evenodd" d="M1027.92 2251.88L1551.71 1394.19L1217.79 1390.91L1401.12 1071.73L2258.81 1073.37L2088.58 1387.64L1751.4 1384.37L1237.44 2264.98L1027.92 2251.88Z" fill="black" stroke="black" stroke-width="40.1207"/>
</g>
<defs>
<clipPath id="clip0_6112_1758">
<rect width="2462" height="2462" fill="white"/>
</clipPath>
</defs>
</svg>
