<svg width="330" height="306" viewBox="0 0 330 306" fill="none" xmlns="http://www.w3.org/2000/svg">
<g clip-path="url(#clip0_6112_1752)">
<path fill-rule="evenodd" clip-rule="evenodd" d="M263.278 283.673C251.993 291.652 237.16 292.852 225.669 287.666C225.669 287.666 222.537 286.469 219.613 283.278C217.098 280.276 153.58 211.843 153.58 211.843L153.374 211.64C173.018 215.035 194.54 206.059 205.613 189.696C216.68 174.131 216.272 151.984 205.822 136.419C193.289 119.461 168.837 113.876 148.36 116.466C112.841 121.256 87.35 151.386 79.4158 182.917C71.2597 218.824 77.1163 252.746 89.8682 284.671C92.7853 291.459 96.7572 298.44 101.565 304.418C64.1585 288.863 31.145 260.13 13.8069 221.617C-5.41591 180.115 -4.99781 127.643 17.7788 85.5424C35.7441 53.0198 67.5001 22.8907 106.785 10.1185C147.942 -6.04153 203.314 -2.65061 243.435 18.8982C292.114 42.0427 328.887 99.7141 329.096 151.189C330.769 204.463 306.104 252.746 263.278 283.673Z" fill="#BFA161"/>
<path fill-rule="evenodd" clip-rule="evenodd" d="M126.632 303.823C108.458 285.06 93.8278 260.722 104.907 235.383C114.719 216.029 123.496 196.272 127.677 173.922C129.35 197.272 144.189 218.023 151.283 240.373C154.001 251.144 154.213 262.321 149.827 273.491C145.022 285.662 137.287 296.034 128.092 305.412L126.632 303.823Z" fill="#BFA161"/>
</g>
<defs>
<clipPath id="clip0_6112_1752">
<rect width="330" height="306" fill="white"/>
</clipPath>
</defs>
</svg>
