<svg width="2500" height="2296" viewBox="0 0 2500 2296" fill="none" xmlns="http://www.w3.org/2000/svg">
<g clip-path="url(#clip0_6112_1669)">
<path d="M0 1618.85H601.859V1802H429.198V2242.17H178.406V1802H0V1618.85ZM906.668 1870.7L779.952 2242.17H539.105L775.32 1618.85H1036.88L1278.79 2242.17H1034.98L906.668 1870.7ZM1221.26 1618.85H1823.09V1802H1650.48V2242.17H1399.7V1802H1221.26V1618.85ZM2128.01 1870.7L2001.24 2242.17H1760.4L1996.69 1618.85H2258.18L2500 2242.17H2256.28L2128.01 1870.7Z" fill="#486AAE"/>
<path fill-rule="evenodd" clip-rule="evenodd" d="M2136.89 473.934C2114.41 429.743 2084.82 387.387 2048 347.668C1965.26 258.367 1848.52 184.057 1710.38 132.805C1571.09 81.1568 1412.22 53.8281 1250.78 53.8281C1089.34 53.8281 930.473 81.1568 791.259 132.805C653.04 184.063 536.297 258.373 453.559 347.668C416.766 387.381 387.074 429.796 364.608 474.011C544.459 430.519 852.105 373.095 1137.76 367.024C1165.31 366.432 1184.28 375.257 1196.78 391.089C1211.99 410.369 1210.85 479.093 1210.48 509.839L1202.36 1304.53C1218.44 1305.06 1234.61 1305.4 1250.78 1305.4C1267.09 1305.4 1283.35 1305.14 1299.43 1304.6L1291.31 509.833C1290.89 479.093 1289.71 410.363 1304.98 391.083C1317.5 375.257 1336.41 366.432 1363.96 367.018C1649.49 373.042 1957.07 430.477 2136.89 473.934Z" fill="#486AAE"/>
<path fill-rule="evenodd" clip-rule="evenodd" d="M2175.28 577.28C1912.05 517.772 1736.27 506.767 1562.82 497.142C1411.63 488.738 1409.65 542.726 1424.75 645.898C1425.74 652.194 1426.95 660.131 1428.39 669.182C1479.1 969.548 1542.25 1228.03 1553.1 1271.9C1921.69 1187.64 2187.51 954.048 2187.51 679.636C2187.51 645.081 2183.33 610.846 2175.28 577.28ZM1076.96 645.898C1092.07 542.732 1090.13 488.738 938.96 497.142C765.452 506.767 589.622 517.766 326.292 577.316C318.248 610.882 314.019 645.075 314.019 679.63C314.019 798.232 362.268 912.996 453.565 1011.6C536.303 1100.9 653.045 1175.21 791.264 1226.49C841.29 1245.01 894.082 1260.2 948.461 1272.34C958.666 1231.24 1023.27 967.38 1074.53 661.642C1075.48 655.784 1076.36 650.376 1076.96 645.898Z" fill="#486AAE"/>
</g>
<defs>
<clipPath id="clip0_6112_1669">
<rect width="2500" height="2296" fill="white"/>
</clipPath>
</defs>
</svg>
