<svg width="909" height="563" viewBox="0 0 909 563" fill="none" xmlns="http://www.w3.org/2000/svg">
<g clip-path="url(#clip0_6118_1713)">
<rect width="909" height="563" fill="white"/>
<path fill-rule="evenodd" clip-rule="evenodd" d="M442.963 0.308729C434.674 0.436958 429.191 0.586238 425.458 0.785471C424.563 0.833126 421.938 0.960781 419.623 1.06911C352.033 4.22927 287.209 16.5321 228.496 37.3427C153.316 63.9901 91.6606 103.582 51.618 150.925C31.9842 174.139 17.9819 198.373 9.4315 223.939C3.36922 242.066 0.379498 259.35 0.030152 278.293C-0.507642 307.446 5.92197 335.611 19.397 363.133C22.3615 369.187 23.577 371.468 26.776 376.98C51.8359 420.16 94.5051 459.442 149.865 490.298C157.999 494.832 170.281 501.139 178.729 505.121C231.088 529.799 290.903 547.043 354.575 555.814C357.205 556.177 359.616 556.512 359.932 556.559C371.374 558.263 396.452 560.557 414.553 561.555C415.552 561.61 416.93 561.692 417.614 561.738C424.976 562.227 440.794 562.593 454.538 562.593C470.549 562.592 482.873 562.27 494.715 561.542C495.504 561.494 497.656 561.366 499.498 561.257C545.903 558.529 591.985 551.149 635.907 539.413C688.687 525.311 738.631 504.053 779.193 478.426C805.072 462.075 826.524 444.84 845.573 425.093C882.025 387.306 903.587 344.202 908.139 300.015C908.883 292.789 909.006 290.108 908.998 281.259C908.988 270.28 908.499 263.639 906.985 253.891C899.566 206.124 872.352 160.292 827.988 120.848C762.505 62.6288 663.315 21.5956 552.11 6.72246C549.322 6.34964 546.782 6.00591 546.466 5.95864C546.151 5.91156 544.084 5.65663 541.875 5.39194C524.324 3.29071 507.645 1.93015 487.636 0.967862C486.531 0.914657 484.895 0.832552 484.001 0.78528C475.884 0.356766 455.307 0.117726 442.963 0.308729ZM437.415 12.744C418.401 13.2183 399.48 14.3886 381.557 16.1997C378.404 16.5182 375.563 16.8144 375.243 16.8579C374.924 16.9015 374.276 16.9813 373.802 17.0357C339.676 20.9463 307.66 26.951 276.9 35.2103C198.622 56.2279 132.651 90.1984 84.9163 134.068C81.2166 137.468 71.1259 147.611 67.8597 151.212C36.9321 185.317 18.7131 222.1 13.8511 260.253C11.5842 278.043 12.2033 296.168 15.6801 313.795C21.0657 341.097 33.4746 367.865 52.456 393.124C64.4636 409.104 79.9148 425.146 97.0806 439.456C133.456 469.778 179.383 495.017 232.514 513.882C247.659 519.259 262.4 523.798 279.674 528.405C305.363 535.255 336.848 541.281 365.288 544.791C368.761 545.22 371.868 545.609 372.194 545.657C373.414 545.835 381.928 546.714 386.907 547.176C425.519 550.757 465.564 551.248 504.281 548.616C515.585 547.847 530.22 546.516 536.805 545.658C537.173 545.61 540.315 545.222 543.788 544.795C572.085 541.317 603.98 535.213 629.403 528.41C639.917 525.597 648.618 523.082 657.144 520.392C707.695 504.445 752.699 482.757 789.909 456.41C811.142 441.375 829.744 424.827 844.973 407.423C870.034 378.784 886.354 347.573 893.051 315.478C898.612 288.828 897.552 261.175 889.963 234.894C879.785 199.651 857.657 165.419 825.79 135.617C791.549 103.595 747.736 76.8584 695.407 56.0524C648.746 37.4998 595.951 24.3528 541.875 17.8194C539.665 17.5524 537.556 17.2946 537.187 17.2468C536.819 17.1987 536.001 17.1069 535.37 17.0426C534.739 16.9783 534.007 16.8929 533.744 16.8527C533.481 16.8125 531.156 16.5633 528.578 16.2988C512.467 14.6458 496.878 13.5999 478.357 12.9293C470.987 12.6623 445.345 12.5463 437.415 12.744ZM688.931 124.717C661.626 126.062 638.983 133.693 621.108 147.574C601.829 162.547 591.721 182.004 590.383 206.718C589.575 221.647 593.144 232.629 602.274 243.304C609.703 251.99 620.061 257.717 640.977 264.701C646.691 266.609 651.989 268.201 662.885 271.283C674.852 274.668 682.985 277.554 688.875 280.506C694.485 283.317 696.844 285.899 697.637 290.098C697.888 291.428 697.901 291.957 697.715 293.317C696.843 299.668 693.486 304.129 687.276 307.19C682.802 309.395 678.585 310.483 671.691 311.21C665.197 311.896 660.247 311.428 654.615 309.595C650.16 308.145 646.164 305.916 643.826 303.577C640.41 300.16 638.65 295.693 638.273 289.484L638.146 287.384H604.326H570.507L570.401 287.91C570.343 288.2 570.212 289.47 570.11 290.733C569.482 298.52 569.785 304.386 571.161 311.078C572.862 319.344 576.65 327.539 581.914 334.345C588.114 342.358 597.093 349.528 607.114 354.466C620.961 361.289 636.181 364.23 655.804 363.876C670.531 363.61 682.79 361.906 696.842 358.171C712.416 354.031 725.461 347.541 736.538 338.42C746.013 330.618 752.683 322.461 757.759 312.469C761.633 304.843 764.065 297.609 766.001 287.958C767.476 280.608 767.632 279.073 767.616 272.073C767.603 266.436 767.57 265.864 767.101 263.269C765.437 254.052 761.848 247.041 755.586 240.77C747.441 232.615 734.798 225.698 717.887 220.145C713.341 218.652 710.457 217.818 702.868 215.803C680.723 209.921 676.514 208.596 670.895 205.738C664.8 202.638 661.518 199.557 660.349 195.839C659.699 193.768 659.749 190.631 660.467 188.533C662.245 183.337 665.949 180.089 672.142 178.291C677.064 176.863 684.24 176.431 690.72 177.174C699.398 178.168 705.246 181.461 707.854 186.821C708.941 189.054 709.393 190.967 709.514 193.843L709.615 196.282L743.147 196.331L776.678 196.38L776.793 195.539C776.857 195.077 776.908 193.039 776.908 191.009C776.908 179.352 775.122 169.75 771.376 161.277C767.511 152.536 760.296 143.875 752.037 138.063C741.3 130.507 724.969 125.797 705.738 124.709C701.963 124.496 693.35 124.5 688.931 124.717ZM143.171 129.155C143.06 129.627 141.737 136.986 140.202 145.662C139.663 148.715 138.285 156.423 137.142 162.791C135.998 169.16 134.888 175.361 134.675 176.571C134.461 177.782 133.853 181.208 133.323 184.185C132.793 187.163 132.359 189.682 132.359 189.783C132.359 189.902 145.055 189.968 167.562 189.968C191.321 189.968 202.764 190.031 202.764 190.163C202.764 190.27 202.383 192.488 201.916 195.091C201.45 197.695 200.285 204.217 199.327 209.585C198.369 214.954 196.774 223.867 195.782 229.394C194.79 234.92 193.285 243.36 192.438 248.149C191.59 252.939 190.642 258.236 190.33 259.92C189.81 262.73 187.235 277.149 183.135 300.206C182.246 305.206 180.577 314.551 179.426 320.972C178.274 327.393 176.687 336.264 175.899 340.685C175.11 345.106 174.031 351.134 173.501 354.082C172.971 357.029 172.537 359.505 172.537 359.584C172.536 359.664 190.075 359.707 211.512 359.68L250.489 359.632L250.817 357.814C251.293 355.174 253.625 342.092 255.491 331.594C256.38 326.594 258.048 317.249 259.198 310.828C260.348 304.407 261.771 296.441 262.359 293.125C262.948 289.809 263.897 284.513 264.468 281.355C265.464 275.852 266.275 271.301 271.839 240.016C273.205 232.331 274.578 224.666 274.89 222.982C275.201 221.298 276.493 214.064 277.761 206.906C279.899 194.836 280.499 191.507 280.737 190.399L280.829 189.968H315.727H350.626L350.825 188.963C350.935 188.411 351.676 184.255 352.471 179.729C353.267 175.203 354.083 170.638 354.286 169.586C354.488 168.533 355.178 164.7 355.82 161.069C356.461 157.437 358.015 148.723 359.272 141.705C360.529 134.686 361.558 128.895 361.558 128.834C361.558 128.774 312.443 128.725 252.415 128.725H143.272L143.171 129.155ZM367.949 129.442C368.011 129.837 368.537 133.131 369.12 136.763C369.703 140.394 371.034 148.748 372.078 155.327C373.122 161.906 374.283 169.184 374.657 171.499C375.471 176.536 379.709 203.09 382.507 220.686C383.612 227.633 385.161 237.322 385.951 242.217C386.74 247.111 388.25 256.542 389.306 263.173C390.362 269.805 391.995 280.054 392.934 285.948C393.873 291.843 395.028 299.077 395.499 302.025C398.008 317.709 399.346 326.085 400.376 332.551C402.688 347.079 403.878 354.527 404.291 357.048L404.713 359.632H444.684H484.655L492.897 345.182C497.429 337.235 506.248 321.776 512.493 310.828C527.611 284.33 542.218 258.724 555.509 235.422C561.514 224.896 577.626 196.654 591.314 172.663C605.002 148.672 616.202 128.971 616.202 128.883C616.202 128.796 597.96 128.725 575.665 128.725H535.128L516.37 164.466C470.573 251.724 464.654 262.987 464.526 263.114C464.452 263.189 463.376 254.189 462.135 243.116C456.889 196.297 454.741 177.196 454.643 176.487C454.586 176.073 453.373 165.264 451.948 152.468C450.522 139.672 449.319 129.095 449.275 128.964C449.21 128.773 440.887 128.725 408.515 128.725H367.838L367.949 129.442ZM352.382 373.529C344.034 374.27 335.576 378.909 330.509 385.525C328.774 387.791 327.852 389.284 326.36 392.239C324.6 395.726 323.227 399.67 322.521 403.268C322.398 403.899 322.228 404.502 322.146 404.608C321.944 404.864 321.442 407.436 321.156 409.679C320.815 412.355 320.864 418.185 321.245 420.399C322.101 425.373 323.785 429.092 326.425 431.842C329.355 434.894 332.999 436.801 337.894 437.843C339.487 438.182 340.49 438.258 343.383 438.262C348.719 438.268 351.96 437.558 356.302 435.434C359.403 433.917 361.433 432.435 364.156 429.702C366.479 427.369 368.082 425.316 369.709 422.588C370.663 420.99 372.399 417.35 372.74 416.234L372.871 415.804H366.588H360.304L359.747 417.096C357.517 422.264 353.807 425.716 349.311 426.805C347.527 427.237 344.304 427.386 342.705 427.11C338.616 426.404 335.642 423.365 334.357 418.579C333.566 415.636 333.85 406.915 334.856 403.225C337.022 395.282 341.411 388.746 346.263 386.239C348.726 384.967 350.419 384.559 353.331 384.535C355.307 384.519 355.959 384.59 357.085 384.942C359.697 385.761 361.69 387.53 362.782 390C363.317 391.21 363.854 393.586 363.854 394.743V395.517H370.152H376.45L376.582 394.918C376.746 394.169 376.551 391.516 376.179 389.448C375.429 385.273 373.797 382.079 370.997 379.31C368.38 376.721 365.151 374.944 361.502 374.083C360.1 373.752 355.641 373.274 354.595 373.342C354.373 373.357 353.378 373.441 352.382 373.529ZM522.884 373.52C510.21 374.632 500.045 382.336 495.063 394.606C493.726 397.899 492.803 401.199 491.731 406.521C490.828 411.002 490.805 411.2 490.806 414.56C490.807 418.473 491.171 420.815 492.326 424.342C493.707 428.559 496.243 431.831 500.228 434.535C506.506 438.795 516.625 439.556 525.502 436.437C532.902 433.836 540.058 427.483 543.775 420.214C546.419 415.043 548.239 408.658 548.871 402.335C549.166 399.382 549.008 393.288 548.582 391.15C547.667 386.566 545.411 382.291 542.376 379.39C540.548 377.643 539.587 376.978 537.335 375.899C533.316 373.974 527.891 373.081 522.884 373.52ZM667.99 373.519C659.372 374.284 650.931 379.001 645.741 385.953C642.161 390.748 640.09 395.228 638.49 401.641C638.136 403.062 637.677 404.871 637.47 405.661C636.41 409.715 636.185 417.847 637.026 421.737C638.505 428.585 641.833 433.063 647.552 435.903C653.237 438.726 661.491 439.139 668.336 436.943C670.56 436.23 673.821 434.586 675.784 433.191C680.797 429.626 685.787 422.969 688.207 416.617L688.517 415.804H682.233H675.95L675.433 417.022C672.638 423.599 667.343 427.283 660.683 427.281C653.436 427.28 649.3 422.033 649.3 412.842C649.3 404.018 652.463 395.057 657.53 389.529C660.986 385.758 666.053 383.903 670.984 384.604C675.761 385.282 678.614 388.429 679.352 393.834L679.582 395.517H685.868H692.155V393.808C692.155 388.155 690.477 383.465 687.21 379.984C683.402 375.926 679.143 373.987 672.99 373.508C670.39 373.306 670.39 373.306 667.99 373.519ZM720.774 374.087C713 374.975 706.724 378.344 703.214 383.513C700.184 387.978 698.675 395.013 699.803 399.424C700.307 401.393 700.999 402.612 702.299 403.816C704.193 405.57 707.516 406.993 715.304 409.386C721.696 411.35 725.252 412.549 726.408 413.13C727.495 413.677 728.829 414.954 729.328 415.925C729.783 416.813 730.078 418.618 729.943 419.692C729.373 424.234 727.022 426.973 722.67 428.168C720.945 428.641 715.609 428.757 713.905 428.358C709.443 427.312 707.425 424.743 707.425 420.107C707.425 419.119 707.483 418.049 707.554 417.727L707.682 417.143H701.078H694.474L694.325 418.052C694.065 419.641 694.18 424.012 694.522 425.542C695.164 428.409 696.329 430.62 698.227 432.571C702.154 436.61 708.262 438.407 717.122 438.129C724.523 437.898 729.686 436.576 734.166 433.765C740.377 429.869 744.002 423.122 744.002 415.458C744.002 411.85 743.197 409.553 741.162 407.347C738.545 404.513 734.409 402.723 724.2 400.006C718.521 398.494 716.653 397.92 715.495 397.33C713.105 396.111 712.04 393.49 712.689 390.423C713.655 385.855 716.839 383.488 722.479 383.145C724.306 383.034 726.219 383.216 727.742 383.645C728.889 383.969 730.46 385.042 731.298 386.073C732.553 387.619 732.964 388.906 732.984 391.354L733.001 393.411L739.481 393.411L745.962 393.412L745.867 389.919C745.784 386.848 745.711 386.218 745.259 384.711C743.85 380.006 741.158 377.256 736.24 375.498C733.389 374.478 730.606 374.062 726.114 373.982C724.009 373.945 721.606 373.993 720.774 374.087ZM169.617 377.861C169.343 379.414 167.945 387.316 166.511 395.421C160.482 429.486 159.337 436.012 159.336 436.33C159.335 436.647 160.524 436.665 181.629 436.665C199.293 436.665 203.941 436.615 204.008 436.426C204.131 436.075 205.825 426.408 205.825 426.055C205.825 425.786 204.197 425.756 189.563 425.756C180.619 425.756 173.301 425.691 173.301 425.612C173.301 425.533 173.824 422.584 174.463 419.057C175.102 415.531 175.731 412.043 175.861 411.306L176.097 409.966L190.375 409.917C203.763 409.871 204.658 409.848 204.751 409.535C204.88 409.096 206.59 399.476 206.59 399.186C206.59 399.017 203.097 398.962 192.337 398.962C181.058 398.962 178.086 398.912 178.092 398.722C178.097 398.591 178.596 395.641 179.2 392.168L180.3 385.852L195.995 385.803L211.69 385.754L212.414 381.688C212.812 379.452 213.247 377.041 213.381 376.33L213.625 375.038H191.87H170.116L169.617 377.861ZM224.957 375.103C224.957 375.139 224.309 378.821 223.518 383.285C219.062 408.417 216.419 423.329 215.396 429.105C214.762 432.684 214.194 435.849 214.132 436.139L214.021 436.666L234.832 436.618L255.644 436.569L256.554 431.402C257.055 428.56 257.468 426.084 257.473 425.899C257.481 425.583 256.666 425.564 242.979 425.564H228.478L230.434 414.512C231.509 408.433 233.515 397.119 234.891 389.371C236.267 381.622 237.393 375.228 237.393 375.161C237.393 375.093 234.595 375.038 231.175 375.038C227.755 375.038 224.957 375.068 224.957 375.103ZM275.031 375.756C274.974 376.151 273.668 383.579 272.127 392.263C266.708 422.806 264.368 436.109 264.368 436.386C264.368 436.631 267.2 436.66 286.701 436.618L309.034 436.569L309.934 431.593C310.428 428.856 310.839 426.423 310.846 426.186L310.859 425.756H294.588H278.317L278.431 425.134C278.494 424.792 279.128 421.239 279.84 417.239L281.135 409.966L295.464 409.871L309.793 409.775L310.7 404.703C311.2 401.914 311.612 399.481 311.616 399.297C311.623 398.981 310.821 398.962 297.371 398.962C286.091 398.962 283.119 398.912 283.127 398.722C283.131 398.591 283.628 395.641 284.23 392.168L285.325 385.852L301.057 385.803C309.71 385.776 316.789 385.685 316.789 385.602C316.789 385.429 318.463 376.126 318.612 375.469L318.71 375.038H296.921H275.133L275.031 375.756ZM384.516 375.141C384.516 375.313 382.783 384.865 382.669 385.325L382.561 385.756H391.478C397.232 385.756 400.395 385.823 400.395 385.945C400.395 386.05 399.452 391.497 398.299 398.051C397.146 404.604 395.166 415.859 393.899 423.06C392.631 430.262 391.595 436.27 391.595 436.412C391.595 436.624 392.694 436.661 397.765 436.62L403.935 436.569L405.508 427.67C407.889 414.198 412.452 388.306 412.683 386.952L412.888 385.756H421.74H430.593L430.702 385.23C430.762 384.94 431.162 382.723 431.591 380.302C432.02 377.881 432.417 375.706 432.474 375.469L432.578 375.038H408.547C395.33 375.038 384.516 375.084 384.516 375.141ZM439.201 377.957C438.921 379.562 437.432 387.981 435.891 396.665C430.223 428.61 428.902 436.118 428.902 436.388C428.902 436.623 429.8 436.665 434.913 436.665H440.924L441.03 436.138C441.088 435.849 441.658 432.641 442.296 429.009C442.935 425.378 443.841 420.29 444.31 417.703C444.78 415.115 445.164 412.935 445.164 412.857C445.164 412.78 448.887 412.75 453.438 412.791C462.311 412.871 462.472 412.888 464.307 413.919C465.216 414.43 465.759 415.451 466.038 417.171C466.258 418.526 465.972 421.628 465.15 426.808C464.354 431.826 464.24 433.164 464.469 434.813C464.584 435.636 464.678 436.39 464.678 436.487C464.678 436.701 478.388 436.733 478.52 436.52C478.569 436.44 478.668 436.061 478.74 435.677C478.853 435.076 478.816 434.962 478.47 434.852C478.25 434.782 477.839 434.422 477.557 434.052C477.12 433.479 477.031 433.144 476.961 431.808C476.854 429.77 477.188 426.749 477.705 425.074C478.294 423.165 478.826 419.721 478.964 416.921C479.2 412.129 478.262 409.955 475.169 408.116L473.861 407.339L475.299 406.616C480.839 403.832 484.757 397.946 485.551 391.215C486.214 385.583 483.56 379.574 479.341 377.159C478.76 376.827 477.664 376.343 476.907 376.086C473.832 375.04 473.808 375.038 456.094 375.038H439.709L439.201 377.957ZM562.729 375.469C562.673 375.706 562.109 378.828 561.476 382.407C556.969 407.89 554.613 421.197 553.363 428.233C552.569 432.701 551.919 436.426 551.919 436.511C551.919 436.713 563.346 436.712 563.472 436.509C563.525 436.423 563.999 433.947 564.526 431.007C565.053 428.066 565.872 423.507 566.346 420.875C566.819 418.244 567.59 413.938 568.058 411.306C570.62 396.892 571.339 393.051 571.452 393.177C571.566 393.304 573.763 399.254 583.835 426.713L587.451 436.569H593.74H600.03L601.323 429.392C602.034 425.445 603.777 415.756 605.197 407.861C606.616 399.966 608.511 389.433 609.407 384.453C610.303 379.473 611.036 375.317 611.036 375.216C611.036 375.102 608.805 375.052 605.16 375.084L599.284 375.134L598.286 380.78C595.158 398.48 593.379 408.582 592.656 412.742C592.208 415.32 591.791 417.489 591.729 417.562C591.668 417.634 588.044 408.096 583.678 396.366L575.738 375.039L569.285 375.039L562.831 375.038L562.729 375.469ZM621.75 375.248C621.75 375.364 621.014 379.605 620.115 384.674C619.216 389.743 617.281 400.651 615.816 408.914C614.351 417.177 612.649 426.767 612.034 430.225C611.293 434.385 610.985 436.539 611.121 436.591C611.234 436.635 614.035 436.648 617.346 436.62L623.365 436.569L623.502 435.804C623.577 435.382 624.855 428.191 626.341 419.823C631.936 388.319 634.185 375.548 634.185 375.297C634.185 375.085 633.066 375.038 627.968 375.038C623.583 375.038 621.75 375.1 621.75 375.248ZM521.434 384.604C518.833 385.077 515.72 386.353 513.772 387.743C510.849 389.83 507.681 394.251 505.938 398.675C504.543 402.218 503.767 406.029 503.423 411.019C503.075 416.083 504.577 421.944 506.798 424.188C510.537 427.965 517.915 428.746 523.7 425.976C528.101 423.868 531.753 419.24 534.22 412.646C535.764 408.517 536.478 404.418 536.487 399.632C536.495 395.021 535.797 392.056 534.088 389.429C532.639 387.204 530.236 385.571 527.427 384.903C525.893 384.539 522.675 384.378 521.434 384.604ZM450.05 385.804C450.009 385.936 449.889 386.56 449.783 387.191C449.291 390.135 447.236 401.584 447.144 401.897C447.044 402.235 447.374 402.245 455.907 402.168C465.664 402.08 465.878 402.056 468.164 400.837C471.894 398.849 473.868 393.242 472.354 388.934C471.898 387.635 471.578 387.231 470.511 386.606C468.887 385.654 467.94 385.571 458.693 385.568C452.005 385.565 450.109 385.617 450.05 385.804Z" fill="#0484CB"/>
<path fill-rule="evenodd" clip-rule="evenodd" d="M437.415 12.7399C418.4 13.2142 399.48 14.3845 381.557 16.1956C378.404 16.5141 375.563 16.8103 375.243 16.8538C374.924 16.8974 374.275 16.9772 373.802 17.0316C339.676 20.9422 307.66 26.9469 276.899 35.2062C198.622 56.2238 132.651 90.1942 84.916 134.064C81.2163 137.464 71.1256 147.607 67.8595 151.208C36.9318 185.313 18.7128 222.096 13.8509 260.249C11.5839 278.038 12.203 296.164 15.6799 313.791C21.0655 341.093 33.4743 367.86 52.4557 393.12C64.4634 409.1 79.9146 425.142 97.0804 439.451C133.455 469.774 179.383 495.013 232.514 513.877C247.659 519.255 262.399 523.794 279.674 528.401C305.363 535.251 336.848 541.277 365.288 544.787C368.761 545.215 371.868 545.605 372.193 545.652C373.414 545.831 381.928 546.71 386.907 547.172C425.519 550.752 465.564 551.243 504.281 548.611C515.585 547.843 530.219 546.512 536.805 545.654C537.173 545.606 540.315 545.218 543.788 544.791C572.085 541.313 603.979 535.209 629.402 528.406C639.917 525.593 648.618 523.078 657.143 520.388C707.695 504.441 752.698 482.752 789.909 456.406C811.142 441.371 829.744 424.822 844.973 407.418C870.034 378.78 886.354 347.568 893.051 315.474C898.612 288.824 897.552 261.171 889.963 234.89C879.785 199.647 857.657 165.415 825.79 135.613C791.549 103.59 747.736 76.8542 695.407 56.0483C648.746 37.4957 595.951 24.3486 541.874 17.8153C539.665 17.5483 537.556 17.2905 537.187 17.2427C536.819 17.1946 536.001 17.1028 535.37 17.0385C534.738 16.9741 534.007 16.8888 533.743 16.8486C533.48 16.8084 531.156 16.5592 528.578 16.2947C512.467 14.6417 496.878 13.5958 478.357 12.9252C470.987 12.6582 445.345 12.5422 437.415 12.7399ZM688.93 124.713C661.626 126.057 638.982 133.689 621.108 147.57C601.829 162.542 591.721 182 590.383 206.714C589.575 221.643 593.144 232.625 602.273 243.3C609.703 251.986 620.061 257.713 640.977 264.697C646.691 266.605 651.989 268.197 662.885 271.279C674.852 274.664 682.985 277.55 688.875 280.501C694.485 283.313 696.844 285.895 697.637 290.094C697.888 291.424 697.901 291.953 697.714 293.312C696.843 299.664 693.486 304.125 687.276 307.186C682.802 309.39 678.584 310.478 671.691 311.206C665.197 311.892 660.247 311.423 654.615 309.591C650.16 308.141 646.164 305.912 643.826 303.573C640.41 300.156 638.65 295.689 638.273 289.48L638.145 287.379H604.326H570.507L570.401 287.906C570.343 288.195 570.212 289.466 570.11 290.729C569.481 298.516 569.785 304.382 571.161 311.073C572.862 319.34 576.649 327.535 581.914 334.341C588.113 342.354 597.093 349.523 607.114 354.461C620.961 361.285 636.181 364.226 655.804 363.872C670.531 363.606 682.79 361.901 696.842 358.166C712.416 354.027 725.461 347.537 736.538 338.416C746.013 330.614 752.683 322.457 757.759 312.465C761.633 304.839 764.065 297.605 766.001 287.954C767.476 280.604 767.632 279.069 767.616 272.069C767.603 266.432 767.57 265.86 767.101 263.265C765.436 254.048 761.848 247.037 755.585 240.766C747.441 232.611 734.798 225.694 717.887 220.141C713.34 218.648 710.456 217.814 702.868 215.799C680.723 209.917 676.514 208.592 670.894 205.734C664.8 202.634 661.518 199.553 660.349 195.835C659.698 193.764 659.749 190.626 660.467 188.529C662.245 183.333 665.949 180.084 672.141 178.287C677.064 176.858 684.24 176.427 690.72 177.169C699.397 178.164 705.246 181.457 707.854 186.816C708.941 189.05 709.393 190.963 709.513 193.838L709.615 196.278L743.147 196.326L776.678 196.375L776.793 195.535C776.856 195.073 776.908 193.035 776.908 191.005C776.908 179.348 775.122 169.746 771.376 161.273C767.511 152.532 760.296 143.871 752.037 138.059C741.299 130.503 724.969 125.793 705.738 124.705C701.963 124.491 693.35 124.496 688.93 124.713ZM143.17 129.151C143.06 129.623 141.737 136.982 140.202 145.658C139.662 148.711 138.285 156.419 137.142 162.787C135.998 169.156 134.888 175.356 134.674 176.567C134.461 177.777 133.853 181.204 133.323 184.181C132.793 187.158 132.359 189.677 132.359 189.779C132.359 189.897 145.055 189.964 167.561 189.964C191.321 189.964 202.764 190.027 202.764 190.159C202.764 190.266 202.382 192.484 201.916 195.087C201.45 197.69 200.285 204.213 199.327 209.581C198.369 214.949 196.773 223.863 195.782 229.39C194.79 234.916 193.285 243.356 192.438 248.145C191.59 252.935 190.642 258.231 190.33 259.916C189.81 262.726 187.234 277.145 183.135 300.202C182.246 305.202 180.577 314.547 179.425 320.968C178.274 327.389 176.687 336.259 175.898 340.68C175.109 345.102 174.031 351.13 173.501 354.078C172.971 357.025 172.537 359.501 172.536 359.58C172.536 359.659 190.075 359.703 211.512 359.676L250.488 359.628L250.816 357.81C251.293 355.17 253.625 342.088 255.491 331.59C256.38 326.59 258.048 317.245 259.198 310.824C260.348 304.403 261.771 296.437 262.359 293.121C262.947 289.805 263.896 284.509 264.468 281.351C265.463 275.848 266.275 271.297 271.838 240.011C273.205 232.327 274.578 224.662 274.889 222.978C275.201 221.294 276.493 214.059 277.761 206.902C279.899 194.831 280.499 191.503 280.736 190.395L280.829 189.964H315.727H350.625L350.825 188.959C350.935 188.406 351.676 184.251 352.471 179.725C353.267 175.199 354.083 170.634 354.285 169.581C354.488 168.529 355.178 164.696 355.819 161.065C356.461 157.433 358.014 148.719 359.272 141.701C360.529 134.682 361.558 128.89 361.558 128.83C361.558 128.77 312.443 128.72 252.414 128.72H143.271L143.17 129.151ZM367.949 129.438C368.01 129.833 368.537 133.127 369.12 136.759C369.703 140.39 371.034 148.744 372.078 155.323C373.122 161.902 374.283 169.179 374.657 171.495C375.471 176.532 379.709 203.085 382.507 220.681C383.612 227.629 385.161 237.318 385.95 242.212C386.739 247.107 388.249 256.538 389.306 263.169C390.362 269.801 391.995 280.049 392.934 285.944C393.873 291.839 395.027 299.073 395.499 302.021C398.008 317.705 399.346 326.08 400.375 332.547C402.688 347.075 403.878 354.523 404.29 357.044L404.713 359.628H444.684H484.655L492.896 345.178C497.429 337.231 506.248 321.772 512.493 310.824C527.611 284.326 542.218 258.72 555.509 235.418C561.513 224.892 577.625 196.65 591.314 172.659C605.002 148.668 616.201 128.967 616.201 128.879C616.201 128.792 597.96 128.72 575.665 128.72H535.128L516.369 164.462C470.573 251.72 464.654 262.982 464.526 263.11C464.452 263.184 463.376 254.185 462.135 243.112C456.889 196.293 454.741 177.192 454.643 176.483C454.586 176.069 453.373 165.26 451.948 152.464C450.522 139.668 449.319 129.091 449.274 128.96C449.21 128.769 440.887 128.72 408.515 128.72H367.837L367.949 129.438ZM352.382 373.525C344.033 374.266 335.575 378.905 330.509 385.521C328.774 387.787 327.851 389.279 326.36 392.235C324.6 395.721 323.227 399.666 322.521 403.264C322.397 403.895 322.228 404.498 322.145 404.603C321.944 404.86 321.442 407.432 321.156 409.675C320.815 412.35 320.863 418.18 321.245 420.395C322.101 425.369 323.785 429.087 326.425 431.838C329.355 434.89 332.999 436.797 337.894 437.839C339.487 438.178 340.489 438.254 343.382 438.257C348.718 438.263 351.959 437.554 356.302 435.43C359.403 433.913 361.433 432.431 364.155 429.698C366.479 427.365 368.082 425.312 369.709 422.584C370.662 420.986 372.399 417.346 372.74 416.23L372.871 415.799H366.587H360.303L359.746 417.091C357.517 422.26 353.807 425.712 349.31 426.801C347.527 427.233 344.303 427.382 342.705 427.106C338.616 426.399 335.642 423.361 334.357 418.575C333.566 415.632 333.85 406.91 334.856 403.221C337.021 395.278 341.411 388.742 346.263 386.235C348.726 384.962 350.419 384.554 353.331 384.531C355.307 384.515 355.959 384.586 357.085 384.938C359.696 385.756 361.69 387.526 362.782 389.996C363.317 391.206 363.853 393.582 363.853 394.739V395.513H370.152H376.45L376.581 394.914C376.746 394.165 376.551 391.511 376.179 389.444C375.429 385.269 373.796 382.074 370.997 379.306C368.379 376.717 365.151 374.94 361.502 374.079C360.1 373.748 355.641 373.27 354.595 373.338C354.373 373.353 353.377 373.437 352.382 373.525ZM522.884 373.516C510.21 374.628 500.045 382.332 495.063 394.602C493.726 397.894 492.803 401.194 491.731 406.517C490.828 410.997 490.805 411.195 490.806 414.555C490.807 418.469 491.171 420.811 492.326 424.338C493.707 428.555 496.243 431.827 500.227 434.53C506.506 438.791 516.625 439.552 525.502 436.433C532.902 433.832 540.058 427.479 543.775 420.21C546.419 415.038 548.239 408.654 548.87 402.331C549.165 399.377 549.008 393.284 548.582 391.146C547.667 386.562 545.411 382.287 542.376 379.386C540.548 377.638 539.587 376.973 537.335 375.895C533.316 373.97 527.89 373.077 522.884 373.516ZM667.99 373.515C659.372 374.28 650.931 378.997 645.741 385.949C642.161 390.744 640.09 395.224 638.49 401.637C638.136 403.058 637.677 404.867 637.47 405.657C636.41 409.711 636.185 417.843 637.026 421.732C638.505 428.581 641.833 433.059 647.552 435.899C653.237 438.722 661.491 439.135 668.335 436.939C670.56 436.225 673.821 434.582 675.784 433.187C680.797 429.622 685.787 422.964 688.207 416.613L688.516 415.799H682.233H675.95L675.432 417.018C672.638 423.595 667.343 427.278 660.683 427.277C653.436 427.276 649.299 422.029 649.299 412.837C649.299 404.014 652.463 395.053 657.53 389.525C660.986 385.754 666.053 383.899 670.984 384.599C675.761 385.278 678.614 388.425 679.352 393.83L679.582 395.513H685.868H692.155V393.804C692.155 388.151 690.477 383.461 687.209 379.98C683.401 375.922 679.143 373.983 672.99 373.504C670.389 373.302 670.39 373.302 667.99 373.515ZM720.774 374.083C713 374.971 706.724 378.34 703.214 383.509C700.184 387.974 698.675 395.008 699.803 399.42C700.306 401.389 700.999 402.608 702.299 403.811C704.193 405.565 707.516 406.988 715.304 409.382C721.696 411.346 725.252 412.545 726.408 413.126C727.495 413.673 728.829 414.95 729.328 415.921C729.783 416.809 730.078 418.613 729.943 419.688C729.372 424.23 727.022 426.969 722.67 428.164C720.945 428.637 715.609 428.753 713.905 428.353C709.443 427.308 707.425 424.739 707.425 420.103C707.425 419.115 707.483 418.045 707.554 417.723L707.682 417.139H701.078H694.474L694.325 418.048C694.065 419.637 694.18 424.008 694.522 425.538C695.164 428.404 696.329 430.616 698.227 432.567C702.154 436.606 708.262 438.403 717.122 438.125C724.523 437.893 729.686 436.571 734.166 433.761C740.376 429.865 744.002 423.118 744.002 415.454C744.002 411.846 743.197 409.549 741.162 407.343C738.545 404.509 734.409 402.719 724.2 400.002C718.52 398.49 716.652 397.916 715.495 397.326C713.105 396.106 712.04 393.486 712.689 390.418C713.655 385.851 716.839 383.484 722.478 383.141C724.306 383.029 726.219 383.211 727.742 383.641C728.889 383.965 730.46 385.037 731.297 386.069C732.553 387.614 732.964 388.901 732.984 391.35L733.001 393.407L739.481 393.407L745.961 393.407L745.867 389.915C745.784 386.844 745.711 386.214 745.259 384.706C743.849 380.002 741.157 377.252 736.24 375.494C733.389 374.474 730.606 374.058 726.113 373.978C724.009 373.941 721.606 373.988 720.774 374.083ZM169.617 377.857C169.343 379.41 167.945 387.312 166.511 395.417C160.482 429.482 159.337 436.008 159.336 436.326C159.335 436.643 160.523 436.661 181.629 436.661C199.293 436.661 203.941 436.611 204.008 436.421C204.131 436.07 205.825 426.404 205.825 426.051C205.825 425.782 204.197 425.752 189.563 425.752C180.619 425.752 173.301 425.687 173.301 425.608C173.301 425.529 173.823 422.579 174.463 419.053C175.102 415.527 175.731 412.039 175.861 411.302L176.096 409.962L190.374 409.913C203.763 409.867 204.658 409.843 204.751 409.53C204.88 409.092 206.59 399.472 206.59 399.182C206.59 399.012 203.097 398.958 192.337 398.958C181.058 398.958 178.086 398.908 178.092 398.718C178.097 398.587 178.595 395.637 179.2 392.163L180.3 385.848L195.995 385.799L211.69 385.75L212.414 381.684C212.812 379.448 213.247 377.037 213.381 376.326L213.625 375.034H191.87H170.115L169.617 377.857ZM224.957 375.099C224.957 375.135 224.309 378.817 223.518 383.281C219.062 408.413 216.419 423.325 215.396 429.101C214.762 432.68 214.193 435.845 214.132 436.135L214.021 436.662L234.832 436.613L255.644 436.565L256.554 431.397C257.054 428.555 257.468 426.079 257.472 425.895C257.48 425.579 256.666 425.56 242.979 425.56H228.478L230.433 414.508C231.509 408.429 233.515 397.115 234.891 389.367C236.267 381.618 237.392 375.223 237.392 375.156C237.392 375.089 234.594 375.034 231.175 375.034C227.755 375.034 224.957 375.064 224.957 375.099ZM275.03 375.752C274.974 376.147 273.668 383.575 272.127 392.259C266.707 422.801 264.368 436.105 264.368 436.382C264.368 436.627 267.2 436.656 286.701 436.613L309.034 436.565L309.933 431.589C310.428 428.852 310.838 426.419 310.845 426.182L310.858 425.752H294.588H278.317L278.431 425.13C278.494 424.788 279.128 421.235 279.84 417.235L281.135 409.962L295.464 409.867L309.792 409.771L310.7 404.699C311.2 401.91 311.612 399.477 311.616 399.292C311.623 398.976 310.82 398.958 297.37 398.958C286.091 398.958 283.119 398.908 283.126 398.718C283.131 398.587 283.628 395.637 284.23 392.163L285.325 385.848L301.057 385.799C309.71 385.772 316.789 385.681 316.789 385.598C316.789 385.424 318.462 376.122 318.612 375.465L318.71 375.034H296.921H275.132L275.03 375.752ZM384.516 375.136C384.516 375.309 382.783 384.861 382.668 385.321L382.561 385.752H391.478C397.232 385.752 400.395 385.819 400.395 385.941C400.395 386.045 399.452 391.493 398.299 398.046C397.146 404.6 395.165 415.855 393.898 423.056C392.631 430.258 391.594 436.266 391.594 436.408C391.594 436.62 392.694 436.657 397.764 436.615L403.934 436.565L405.508 427.665C407.889 414.194 412.452 388.302 412.683 386.948L412.887 385.752H421.74H430.593L430.702 385.226C430.762 384.936 431.162 382.718 431.591 380.297C432.019 377.876 432.417 375.702 432.474 375.465L432.578 375.034H408.547C395.33 375.034 384.516 375.08 384.516 375.136ZM439.2 377.953C438.921 379.558 437.431 387.977 435.891 396.661C430.222 428.605 428.901 436.114 428.901 436.384C428.901 436.619 429.8 436.661 434.913 436.661H440.924L441.029 436.134C441.087 435.845 441.657 432.637 442.296 429.005C442.934 425.374 443.841 420.286 444.31 417.698C444.779 415.111 445.163 412.931 445.163 412.853C445.163 412.775 448.887 412.746 453.438 412.787C462.31 412.867 462.472 412.884 464.307 413.915C465.215 414.426 465.759 415.447 466.038 417.167C466.257 418.522 465.972 421.624 465.149 426.804C464.353 431.821 464.24 433.16 464.469 434.808C464.584 435.632 464.678 436.385 464.678 436.483C464.678 436.697 478.388 436.729 478.52 436.515C478.569 436.436 478.668 436.057 478.74 435.673C478.853 435.072 478.816 434.958 478.47 434.848C478.25 434.778 477.839 434.418 477.557 434.048C477.12 433.475 477.031 433.14 476.961 431.803C476.854 429.766 477.188 426.745 477.705 425.069C478.294 423.161 478.826 419.717 478.964 416.917C479.199 412.125 478.262 409.951 475.169 408.112L473.86 407.334L475.299 406.612C480.839 403.827 484.757 397.942 485.55 391.21C486.214 385.579 483.559 379.57 479.341 377.155C478.76 376.823 477.664 376.339 476.907 376.082C473.832 375.035 473.807 375.034 456.094 375.034H439.709L439.2 377.953ZM562.729 375.465C562.673 375.702 562.109 378.824 561.476 382.403C556.969 407.886 554.613 421.193 553.362 428.229C552.568 432.697 551.919 436.421 551.919 436.506C551.919 436.709 563.346 436.707 563.471 436.505C563.524 436.419 563.999 433.943 564.526 431.002C565.053 428.062 565.871 423.503 566.345 420.871C566.819 418.24 567.59 413.933 568.057 411.302C570.62 396.888 571.339 393.047 571.452 393.173C571.566 393.3 573.763 399.25 583.835 426.708L587.45 436.565H593.74H600.03L601.323 429.388C602.034 425.441 603.777 415.752 605.197 407.857C606.616 399.962 608.51 389.429 609.407 384.449C610.303 379.469 611.036 375.312 611.036 375.212C611.036 375.098 608.805 375.048 605.16 375.079L599.284 375.13L598.286 380.776C595.158 398.475 593.379 408.578 592.656 412.737C592.208 415.316 591.791 417.485 591.729 417.557C591.667 417.629 588.044 408.091 583.677 396.362L575.738 375.035L569.284 375.035L562.831 375.034L562.729 375.465ZM621.75 375.244C621.75 375.36 621.014 379.601 620.115 384.67C619.216 389.739 617.281 400.646 615.816 408.91C614.351 417.173 612.648 426.763 612.033 430.221C611.293 434.381 610.984 436.535 611.121 436.587C611.234 436.631 614.035 436.643 617.346 436.616L623.365 436.565L623.502 435.799C623.577 435.378 624.855 428.187 626.341 419.819C631.935 388.315 634.185 375.544 634.185 375.293C634.185 375.081 633.066 375.034 627.967 375.034C623.583 375.034 621.75 375.096 621.75 375.244ZM521.434 384.6C518.833 385.073 515.719 386.349 513.772 387.739C510.849 389.826 507.68 394.247 505.938 398.67C504.543 402.214 503.766 406.025 503.423 411.015C503.075 416.079 504.577 421.939 506.798 424.183C510.537 427.961 517.915 428.742 523.699 425.972C528.101 423.864 531.753 419.236 534.22 412.642C535.764 408.513 536.478 404.414 536.486 399.627C536.494 395.017 535.797 392.052 534.087 389.425C532.639 387.2 530.236 385.567 527.427 384.899C525.893 384.535 522.675 384.374 521.434 384.6ZM450.05 385.8C450.009 385.931 449.888 386.556 449.783 387.187C449.291 390.131 447.236 401.58 447.144 401.893C447.044 402.231 447.374 402.241 455.907 402.164C465.663 402.075 465.878 402.052 468.164 400.833C471.894 398.845 473.867 393.238 472.354 388.93C471.898 387.631 471.577 387.227 470.511 386.602C468.887 385.649 467.94 385.566 458.693 385.563C452.005 385.561 450.109 385.613 450.05 385.8ZM451.034 562.736C452.843 562.767 455.856 562.767 457.73 562.736C459.605 562.705 458.125 562.679 454.442 562.679C450.759 562.679 449.226 562.704 451.034 562.736Z" fill="#FBFBFB"/>
</g>
<defs>
<clipPath id="clip0_6118_1713">
<rect width="909" height="563" fill="white"/>
</clipPath>
</defs>
</svg>
