<svg width="431" height="171" viewBox="0 0 431 171" fill="none" xmlns="http://www.w3.org/2000/svg">
<path d="M9.36805 38.4364H38.427V9.3775C38.427 4.18773 34.2203 0 29.0495 0C23.8786 0 19.672 4.20664 19.672 9.3775V19.672H9.3775C4.18773 19.672 0 23.8786 0 29.0494C0 34.2203 4.20664 38.427 9.3775 38.427L9.36805 38.4364Z" fill="#034EA2"/>
<path d="M50.9336 9.3775V38.4364H79.9925C85.1823 38.4364 89.37 34.2298 89.37 29.0589C89.37 23.8881 85.1634 19.6814 79.9925 19.6814H69.698V9.38696C69.698 4.1972 65.4914 0 60.3111 0C55.1308 0 50.9336 4.20664 50.9336 9.3775Z" fill="#ED1C24"/>
<path d="M38.4364 80.0042V50.9453H9.3775C4.18773 50.9453 0 55.152 0 60.3228C0 65.4937 4.20664 69.7003 9.3775 69.7003H19.672V79.9948C19.672 85.1845 23.8786 89.3723 29.0495 89.3723C34.2203 89.3723 38.427 85.1656 38.427 79.9948L38.4364 80.0042Z" fill="#EB2127"/>
<path d="M64.5934 50.9922L90.6934 92.9357H90.873V50.9922H103.748V113.515H89.9939L63.9884 71.6567H63.8088V113.515H50.9336V50.9922H64.5934Z" fill="#034EA2"/>
<path d="M110.196 82.169C110.376 79.248 111.094 76.828 112.38 74.8995C113.665 72.9711 115.301 71.4302 117.286 70.2581C119.271 69.0859 121.502 68.254 123.988 67.7624C126.465 67.2709 128.96 67.0156 131.475 67.0156C133.753 67.0156 136.06 67.1763 138.395 67.4977C140.73 67.8191 142.866 68.443 144.785 69.3789C146.713 70.3148 148.292 71.6099 149.511 73.2736C150.74 74.9374 151.355 77.1399 151.355 79.8813V103.439C151.355 105.48 151.468 107.437 151.705 109.309C151.931 111.181 152.347 112.57 152.934 113.516H140.323C140.096 112.816 139.898 112.098 139.756 111.37C139.605 110.642 139.51 109.895 139.444 109.139C137.459 111.181 135.124 112.617 132.439 113.43C129.745 114.243 127.004 114.659 124.205 114.659C122.05 114.659 120.027 114.395 118.165 113.875C116.293 113.355 114.658 112.532 113.259 111.426C111.86 110.32 110.763 108.912 109.979 107.22C109.194 105.528 108.797 103.514 108.797 101.179C108.797 98.6174 109.251 96.4999 110.149 94.8362C111.047 93.1724 112.219 91.849 113.656 90.8564C115.093 89.8638 116.719 89.1265 118.562 88.6255C120.405 88.1339 122.249 87.7369 124.12 87.4438C125.992 87.1508 127.826 86.9239 129.632 86.7443C131.437 86.5647 133.044 86.3094 134.443 85.9597C135.842 85.6099 136.958 85.0995 137.771 84.4283C138.584 83.7571 138.962 82.7834 138.915 81.4978C138.915 80.1555 138.697 79.0873 138.262 78.3027C137.827 77.518 137.241 76.9036 136.513 76.4593C135.776 76.0245 134.935 75.7314 133.971 75.5802C133.006 75.4384 131.966 75.3627 130.86 75.3627C128.412 75.3627 126.484 75.8827 125.085 76.9414C123.686 77.9907 122.863 79.749 122.636 82.1973H110.205V82.169H110.196ZM138.924 91.3574C138.404 91.8301 137.742 92.1893 136.948 92.454C136.164 92.7187 135.313 92.9361 134.405 93.1062C133.507 93.2858 132.553 93.4277 131.56 93.5411C130.567 93.6545 129.575 93.8058 128.582 93.9759C127.646 94.1555 126.729 94.3824 125.822 94.6755C124.924 94.9685 124.13 95.3655 123.459 95.8571C122.787 96.3487 122.249 96.982 121.842 97.7383C121.436 98.504 121.228 99.4682 121.228 100.631C121.228 101.794 121.436 102.673 121.842 103.439C122.249 104.204 122.806 104.79 123.506 105.235C124.205 105.669 125.018 105.981 125.954 106.152C126.881 106.331 127.845 106.416 128.847 106.416C131.295 106.416 133.195 106.01 134.538 105.187C135.88 104.374 136.873 103.391 137.515 102.257C138.158 101.113 138.555 99.9692 138.697 98.797C138.839 97.6249 138.915 96.6984 138.915 95.9895V91.348L138.924 91.3574Z" fill="#034EA2"/>
<path d="M171.177 68.2289V76.6327H171.357C171.943 75.2337 172.728 73.9291 173.72 72.738C174.713 71.5469 175.857 70.5166 177.133 69.6752C178.419 68.8245 179.789 68.1722 181.245 67.6995C182.701 67.2269 184.223 67 185.801 67C186.614 67 187.531 67.1512 188.514 67.4348V78.996C187.928 78.8826 187.229 78.7786 186.406 78.6841C185.593 78.599 184.809 78.5517 184.043 78.5517C181.765 78.5517 179.836 78.9298 178.267 79.6955C176.689 80.4612 175.422 81.4916 174.458 82.8056C173.493 84.1196 172.813 85.651 172.397 87.4093C171.99 89.1581 171.782 91.0582 171.782 93.1001V113.509H159.352V68.2384H171.177V68.2289Z" fill="#034EA2"/>
<path d="M194.753 82.169C194.933 79.248 195.651 76.828 196.937 74.8995C198.222 72.9711 199.858 71.4302 201.843 70.2581C203.828 69.0859 206.059 68.254 208.545 67.7624C211.022 67.2709 213.517 67.0156 216.032 67.0156C218.301 67.0156 220.617 67.1763 222.952 67.4977C225.286 67.8191 227.423 68.443 229.342 69.3789C231.27 70.3148 232.849 71.6099 234.068 73.2736C235.297 74.9374 235.912 77.1399 235.912 79.8813V103.439C235.912 105.48 236.025 107.437 236.271 109.309C236.498 111.181 236.914 112.57 237.5 113.516H224.889C224.663 112.816 224.464 112.098 224.322 111.37C224.171 110.642 224.076 109.895 224.01 109.139C222.025 111.181 219.69 112.617 217.006 113.43C214.311 114.243 211.57 114.659 208.772 114.659C206.617 114.659 204.594 114.395 202.731 113.875C200.86 113.355 199.224 112.532 197.825 111.426C196.426 110.32 195.33 108.912 194.545 107.22C193.76 105.528 193.363 103.514 193.363 101.179C193.363 98.6174 193.817 96.4999 194.715 94.8362C195.613 93.1724 196.785 91.849 198.222 90.8564C199.659 89.8638 201.285 89.1265 203.128 88.6255C204.972 88.1339 206.825 87.7369 208.687 87.4438C210.549 87.1508 212.392 86.9239 214.198 86.7443C216.004 86.5647 217.611 86.3094 219.01 85.9597C220.409 85.6099 221.524 85.0995 222.337 84.4283C223.15 83.7571 223.528 82.7834 223.481 81.4978C223.481 80.1555 223.264 79.0873 222.829 78.3027C222.394 77.518 221.817 76.9036 221.08 76.4593C220.343 76.0245 219.501 75.7314 218.537 75.5802C217.573 75.4384 216.533 75.3627 215.427 75.3627C212.979 75.3627 211.041 75.8827 209.651 76.9414C208.252 77.9907 207.43 79.749 207.203 82.1973H194.772V82.169H194.753ZM223.481 91.3574C222.961 91.8301 222.299 92.1893 221.505 92.454C220.721 92.7187 219.87 92.9361 218.962 93.1062C218.055 93.2858 217.11 93.4277 216.107 93.5411C215.115 93.6545 214.122 93.8058 213.13 93.9759C212.194 94.1555 211.277 94.3824 210.369 94.6755C209.471 94.9685 208.677 95.3655 208.006 95.8571C207.335 96.3487 206.796 96.982 206.39 97.7383C205.983 98.504 205.775 99.4682 205.775 100.631C205.775 101.794 205.974 102.673 206.39 103.439C206.796 104.204 207.354 104.79 208.053 105.235C208.753 105.669 209.566 105.981 210.502 106.152C211.428 106.331 212.392 106.416 213.394 106.416C215.843 106.416 217.743 106.01 219.085 105.187C220.428 104.374 221.42 103.391 222.063 102.257C222.706 101.113 223.103 99.9692 223.245 98.797C223.386 97.6249 223.462 96.6984 223.462 95.9895V91.348L223.481 91.3574Z" fill="#034EA2"/>
<path d="M261.548 126.99C259.147 128.569 255.82 129.354 251.566 129.354C250.28 129.354 249.014 129.306 247.756 129.221C246.499 129.136 245.232 129.032 243.956 128.909V118.662C245.128 118.776 246.319 118.889 247.548 119.012C248.777 119.125 249.997 119.154 251.226 119.097C252.861 118.917 254.071 118.284 254.865 117.169C255.65 116.063 256.047 114.834 256.047 113.491C256.047 112.499 255.867 111.563 255.527 110.684L239.674 68.2109H252.899L263.146 99.2077H263.326L273.223 68.2109H286.098L267.182 119.088C265.84 122.765 263.968 125.393 261.577 126.972H261.539L261.548 126.99Z" fill="#034EA2"/>
<path d="M289.303 82.169C289.483 79.248 290.211 76.828 291.487 74.8995C292.773 72.9711 294.408 71.4302 296.393 70.2581C298.378 69.0859 300.609 68.254 303.095 67.7624C305.572 67.2709 308.068 67.0156 310.582 67.0156C312.851 67.0156 315.167 67.1763 317.502 67.4977C319.837 67.8191 321.973 68.443 323.892 69.3789C325.821 70.3148 327.399 71.6099 328.619 73.2736C329.848 74.9374 330.462 77.1399 330.462 79.8813V103.439C330.462 105.48 330.576 107.437 330.821 109.309C331.048 111.181 331.464 112.57 332.05 113.516H319.44C319.213 112.816 319.015 112.098 318.873 111.37C318.721 110.642 318.627 109.895 318.561 109.139C316.576 111.181 314.241 112.617 311.547 113.43C308.862 114.243 306.111 114.659 303.313 114.659C301.158 114.659 299.135 114.395 297.272 113.875C295.401 113.355 293.765 112.532 292.366 111.426C290.967 110.32 289.871 108.912 289.086 107.22C288.301 105.528 287.904 103.514 287.904 101.179C287.904 98.6174 288.358 96.4999 289.256 94.8362C290.164 93.1724 291.326 91.849 292.763 90.8564C294.2 89.8638 295.826 89.1265 297.669 88.6255C299.513 88.1339 301.356 87.7369 303.228 87.4438C305.09 87.1508 306.933 86.9239 308.739 86.7443C310.545 86.5647 312.152 86.3094 313.551 85.9597C314.95 85.6099 316.065 85.0995 316.878 84.4283C317.691 83.7571 318.069 82.7834 318.022 81.4978C318.022 80.1555 317.805 79.0873 317.37 78.3027C316.935 77.518 316.349 76.9036 315.621 76.4593C314.884 76.0245 314.042 75.7314 313.078 75.5802C312.114 75.4384 311.074 75.3627 309.968 75.3627C307.52 75.3627 305.582 75.8827 304.192 76.9414C302.793 77.9907 301.971 79.749 301.744 82.1973H289.313V82.169H289.303ZM318.031 91.3574C317.511 91.8301 316.85 92.1893 316.056 92.454C315.271 92.7187 314.42 92.9361 313.513 93.1062C312.605 93.2858 311.66 93.4277 310.658 93.5411C309.665 93.6545 308.673 93.8058 307.68 93.9759C306.744 94.1555 305.827 94.3824 304.92 94.6755C304.012 94.9685 303.228 95.3655 302.557 95.8571C301.885 96.3487 301.347 96.982 300.94 97.7383C300.534 98.504 300.326 99.4682 300.326 100.631C300.326 101.794 300.524 102.673 300.94 103.439C301.347 104.204 301.904 104.79 302.604 105.235C303.303 105.669 304.116 105.981 305.052 106.152C305.979 106.331 306.943 106.416 307.945 106.416C310.393 106.416 312.293 106.01 313.636 105.187C314.978 104.374 315.971 103.391 316.613 102.257C317.256 101.113 317.653 99.9692 317.795 98.797C317.937 97.6249 318.013 96.6984 318.013 95.9895V91.348L318.031 91.3574Z" fill="#034EA2"/>
<path d="M350.285 68.2289V74.5341H350.55C352.128 71.9062 354.17 69.9966 356.685 68.7961C359.199 67.605 361.761 67 364.389 67C367.716 67 370.439 67.4537 372.575 68.3518C374.712 69.2498 376.375 70.5071 377.614 72.1236C378.843 73.7212 379.703 75.678 380.195 77.994C380.686 80.3006 380.932 82.8529 380.932 85.6605V113.509H368.501V87.9481C368.501 84.2141 367.915 81.4255 366.743 79.5821C365.571 77.7387 363.5 76.8218 360.523 76.8218C357.138 76.8218 354.681 77.8333 353.168 79.8373C351.646 81.8509 350.89 85.1689 350.89 89.7726V113.509H338.459V68.2384H350.285H350.275L350.285 68.2289Z" fill="#034EA2"/>
<path d="M387.37 82.169C387.55 79.248 388.278 76.828 389.554 74.8995C390.839 72.9711 392.475 71.4302 394.46 70.2581C396.445 69.0859 398.676 68.254 401.162 67.7624C403.639 67.2709 406.135 67.0156 408.649 67.0156C410.918 67.0156 413.234 67.1763 415.569 67.4977C417.904 67.8191 420.04 68.443 421.959 69.3789C423.887 70.3148 425.466 71.6099 426.686 73.2736C427.915 74.9374 428.529 77.1399 428.529 79.8813V103.439C428.529 105.48 428.642 107.437 428.888 109.309C429.115 111.181 429.531 112.57 430.117 113.516H417.507C417.28 112.816 417.081 112.098 416.939 111.37C416.788 110.642 416.694 109.895 416.627 109.139C414.642 111.181 412.307 112.617 409.623 113.43C406.938 114.243 404.197 114.659 401.389 114.659C399.234 114.659 397.211 114.395 395.349 113.875C393.477 113.355 391.841 112.532 390.442 111.426C389.043 110.32 387.947 108.912 387.162 107.22C386.378 105.528 385.98 103.514 385.98 101.179C385.98 98.6174 386.434 96.4999 387.332 94.8362C388.24 93.1724 389.402 91.849 390.839 90.8564C392.276 89.8638 393.902 89.1265 395.746 88.6255C397.589 88.1339 399.442 87.7369 401.304 87.4438C403.166 87.1508 405.01 86.9239 406.815 86.7443C408.621 86.5647 410.228 86.3094 411.627 85.9597C413.026 85.6099 414.141 85.0995 414.954 84.4283C415.767 83.7571 416.145 82.7834 416.098 81.4978C416.098 80.1555 415.881 79.0873 415.446 78.3027C415.002 77.518 414.415 76.9036 413.697 76.4593C412.96 76.0245 412.118 75.7314 411.154 75.5802C410.19 75.4384 409.15 75.3627 408.044 75.3627C405.596 75.3627 403.658 75.8827 402.268 76.9414C400.869 77.9907 400.047 79.749 399.82 82.1973H387.389V82.169H387.37ZM416.089 91.3574C415.569 91.8301 414.907 92.1893 414.113 92.454C413.328 92.7187 412.478 92.9361 411.57 93.1062C410.663 93.2858 409.717 93.4277 408.715 93.5411C407.723 93.6545 406.73 93.8058 405.737 93.9759C404.802 94.1555 403.885 94.3824 402.977 94.6755C402.079 94.9685 401.285 95.3655 400.614 95.8571C399.943 96.3487 399.404 96.982 398.997 97.7383C398.591 98.504 398.383 99.4682 398.383 100.631C398.383 101.794 398.581 102.673 398.997 103.439C399.404 104.204 399.962 104.79 400.661 105.235C401.361 105.669 402.174 105.981 403.11 106.152C404.036 106.331 405 106.416 406.002 106.416C408.451 106.416 410.351 106.01 411.693 105.187C413.035 104.374 414.028 103.391 414.671 102.257C415.314 101.113 415.711 99.9692 415.852 98.797C415.994 97.6249 416.07 96.6984 416.07 95.9895V91.348L416.089 91.3574Z" fill="#034EA2"/>
<path d="M59.1845 132.305V146.702H74.3662V132.305H82.6094V169.815H74.3662V153.631H59.1845V169.815H50.9414V132.305H59.1845Z" fill="#EB2127"/>
<path d="M96.0148 163.306C97.1397 164.394 98.7467 164.932 100.845 164.932C102.348 164.932 103.653 164.554 104.731 163.798C105.818 163.042 106.479 162.248 106.735 161.406H113.305C112.255 164.668 110.639 166.993 108.474 168.402C106.309 169.801 103.681 170.5 100.59 170.5C98.4537 170.5 96.5252 170.151 94.8142 169.47C93.0937 168.789 91.6474 167.816 90.4469 166.549C89.2558 165.282 88.3294 163.779 87.6866 162.03C87.0437 160.281 86.7129 158.353 86.7129 156.254C86.7129 154.156 87.0532 152.331 87.7149 150.583C88.3766 148.834 89.322 147.321 90.5509 146.036C91.7798 144.759 93.245 143.748 94.9371 143.02C96.6387 142.283 98.5198 141.914 100.581 141.914C102.887 141.914 104.91 142.358 106.621 143.247C108.342 144.145 109.741 145.346 110.847 146.849C111.953 148.352 112.747 150.072 113.238 152.001C113.72 153.929 113.9 155.942 113.758 158.041H94.1525C94.2565 160.461 94.8709 162.21 95.9959 163.297L96.0148 163.306ZM104.447 149.013C103.549 148.03 102.197 147.548 100.373 147.548C99.1816 147.548 98.1984 147.756 97.4044 148.153C96.6198 148.56 95.9864 149.051 95.5138 149.647C95.0411 150.242 94.7102 150.876 94.5117 151.537C94.3132 152.199 94.1998 152.804 94.162 153.324H106.3C105.95 151.433 105.326 149.996 104.428 149.013H104.447Z" fill="#EB2127"/>
<path d="M117.899 151.016C118.003 149.267 118.438 147.811 119.213 146.648C119.979 145.486 120.962 144.569 122.153 143.86C123.344 143.16 124.687 142.659 126.171 142.366C127.655 142.064 129.149 141.922 130.67 141.922C132.032 141.922 133.421 142.016 134.82 142.215C136.219 142.413 137.505 142.782 138.649 143.349C139.812 143.907 140.757 144.682 141.485 145.684C142.222 146.686 142.591 148 142.591 149.645V163.777C142.591 165.006 142.657 166.179 142.799 167.304C142.941 168.428 143.186 169.27 143.536 169.827H135.974C135.832 169.412 135.718 168.977 135.624 168.542C135.539 168.107 135.473 167.653 135.435 167.209C134.244 168.438 132.845 169.289 131.228 169.78C129.621 170.262 127.976 170.518 126.294 170.518C124.999 170.518 123.789 170.357 122.664 170.045C121.539 169.724 120.565 169.241 119.724 168.58C118.882 167.918 118.23 167.077 117.748 166.056C117.275 165.035 117.039 163.834 117.039 162.426C117.039 160.885 117.313 159.609 117.852 158.616C118.391 157.614 119.09 156.82 119.951 156.224C120.811 155.629 121.794 155.185 122.891 154.892C123.997 154.589 125.103 154.362 126.227 154.183C127.352 154.003 128.449 153.861 129.536 153.767C130.623 153.663 131.587 153.502 132.429 153.294C133.27 153.086 133.932 152.784 134.433 152.377C134.915 151.98 135.151 151.384 135.113 150.619C135.113 149.815 134.981 149.172 134.716 148.7C134.452 148.218 134.102 147.858 133.667 147.594C133.223 147.329 132.722 147.159 132.145 147.074C131.569 146.989 130.945 146.941 130.273 146.941C128.808 146.941 127.645 147.263 126.804 147.887C125.963 148.511 125.481 149.569 125.339 151.035H117.88L117.899 151.006V151.016ZM135.123 156.527C134.801 156.811 134.414 157.019 133.941 157.179C133.469 157.34 132.958 157.472 132.419 157.576C131.88 157.68 131.304 157.775 130.708 157.841C130.113 157.907 129.517 158.002 128.922 158.106C128.364 158.21 127.806 158.351 127.267 158.531C126.729 158.711 126.246 158.947 125.849 159.24C125.443 159.543 125.121 159.911 124.876 160.374C124.63 160.828 124.507 161.414 124.507 162.104C124.507 162.794 124.63 163.333 124.876 163.787C125.121 164.25 125.452 164.6 125.878 164.865C126.303 165.129 126.785 165.309 127.343 165.413C127.901 165.517 128.487 165.574 129.073 165.574C130.538 165.574 131.682 165.328 132.485 164.836C133.289 164.354 133.885 163.759 134.272 163.078C134.65 162.397 134.896 161.707 134.981 160.998C135.066 160.299 135.113 159.732 135.113 159.316V156.527H135.123Z" fill="#EB2127"/>
<path d="M154.994 132.305V169.815H147.535V132.305H154.994Z" fill="#EB2127"/>
<path d="M176.433 142.656V147.648H170.969V161.099C170.969 162.366 171.177 163.207 171.593 163.623C172.009 164.039 172.86 164.247 174.117 164.247C174.533 164.247 174.94 164.228 175.327 164.191C175.705 164.153 176.083 164.106 176.433 164.03V169.806C175.809 169.91 175.11 169.985 174.335 170.014C173.569 170.052 172.813 170.07 172.075 170.07C170.913 170.07 169.825 169.995 168.795 169.834C167.755 169.673 166.848 169.371 166.063 168.917C165.279 168.463 164.655 167.811 164.191 166.97C163.738 166.129 163.511 165.022 163.511 163.661V147.638H158.992V142.647H163.511V134.508H170.969V142.647H176.433V142.656Z" fill="#EB2127"/>
<path d="M187.881 132.305V146.437H188.041C188.987 144.858 190.187 143.715 191.671 142.996C193.137 142.278 194.574 141.919 195.982 141.919C197.977 141.919 199.621 142.193 200.898 142.731C202.174 143.27 203.176 144.027 203.913 144.991C204.651 145.955 205.161 147.127 205.464 148.517C205.766 149.897 205.908 151.438 205.908 153.12V169.824H198.449V154.482C198.449 152.241 198.09 150.568 197.4 149.462C196.7 148.356 195.453 147.808 193.666 147.808C191.634 147.808 190.159 148.413 189.251 149.623C188.344 150.833 187.89 152.818 187.89 155.588V169.824H180.432V132.314H187.9L187.881 132.305Z" fill="#EB2127"/>
</svg>
